<?xml version="1.0" encoding="UTF-8" standalone="no"?>
<svg xmlns="http://www.w3.org/2000/svg">
<metadata>
This is a SVG font generated by Alphabet Type GmbH.
</metadata>
<defs>
<font id="PorscheNextWCyItalic" horiz-adv-x="498" >
<font-face units-per-em="1000" ascent="1152" descent="-440" />
<missing-glyph horiz-adv-x="498" />
<glyph unicode="&#x20;" horiz-adv-x="214" />
<glyph unicode="&#x21;" horiz-adv-x="225" d="M86 214L130 214L209 712L129 712ZM40 0L124 0L136 102L52 102Z"/>
<glyph unicode="&#x22;" horiz-adv-x="325" d="M248 487L281 487L322 626L333 712L251 712L240 626ZM101 487L134 487L175 626L185 712L104 712L93 626Z"/>
<glyph unicode="&#x23;" horiz-adv-x="676" d="M132 474L226 474L133 238L25 238L17 171L107 171L40 0L110 0L177 171L379 171L312 0L382 0L449 171L561 171L569 238L475 238L568 474L676 474L684 541L594 541L661 712L591 712L524 541L322 541L389 712L319 712L252 541L140 541ZM296 474L498 474L405 238L203 238Z"/>
<glyph unicode="&#x24;" horiz-adv-x="560" d="M38 216C27 75 81 3 210 -10L199 -104L279 -104L290 -10C422 2 504 79 504 211C504 311 446 357 344 385L290 400C223 419 175 443 175 511C175 607 247 648 327 648C424 648 464 608 459 488L538 488C546 624 511 705 380 721L392 816L312 816L301 722C170 711 91 627 91 499C91 392 160 352 252 327L307 312C377 293 421 268 421 201C421 97 350 54 255 54C151 54 110 100 117 216Z"/>
<glyph unicode="&#x25;" horiz-adv-x="723" d="M187 348C289 348 331 398 347 534C350 555 351 574 351 591C351 679 317 720 226 720C119 720 81 662 68 538C65 515 64 497 64 478C64 383 100 348 187 348ZM190 400C149 400 132 414 132 466C132 483 134 507 138 536C150 636 170 661 222 661C263 661 281 647 281 592C281 577 280 559 277 536C264 424 245 400 190 400ZM76 0L136 0L678 712L618 712ZM521 -8C623 -8 665 42 681 178C684 199 685 218 685 235C685 323 651 364 560 364C453 364 415 306 402 182C399 159 398 141 398 122C398 27 434 -8 521 -8ZM524 44C483 44 466 58 466 110C466 127 468 151 472 180C484 280 504 305 556 305C597 305 615 291 615 236C615 221 614 203 611 180C598 68 579 44 524 44Z"/>
<glyph unicode="&#x26;" horiz-adv-x="608" d="M33 186C31 173 30 160 30 148C30 44 94 -12 243 -12C331 -12 391 16 434 60L481 0L579 0L480 131C492 160 501 196 507 244L522 366L450 366L429 199L269 413C234 460 202 498 202 547C202 620 248 648 313 648C405 648 429 613 418 488L496 488C512 654 470 724 316 724C187 724 119 653 119 536C119 480 145 441 185 388C97 327 44 278 33 186ZM242 54C149 54 114 87 114 154C114 163 115 174 116 185C124 253 148 282 223 338L395 112C365 73 314 54 242 54Z"/>
<glyph unicode="&#x27;" horiz-adv-x="178" d="M101 487L134 487L175 626L185 712L104 712L93 626Z"/>
<glyph unicode="&#x28;" horiz-adv-x="313" d="M314 772C186 772 116 737 65 319C52 216 46 135 46 72C46 -120 103 -148 201 -148L222 -148L230 -82L210 -82C152 -82 120 -62 120 65C120 123 127 202 140 312C184 664 221 706 307 706L327 706L335 772Z"/>
<glyph unicode="&#x29;" horiz-adv-x="313" d="M9 -148C136 -148 206 -113 257 305C270 408 276 489 276 552C276 744 220 772 122 772L101 772L92 706L112 706C171 706 203 686 203 559C203 501 196 422 183 312C139 -40 101 -82 16 -82L-4 -82L-12 -148Z"/>
<glyph unicode="&#x2a;" horiz-adv-x="407" d="M70 569L133 547L200 530L147 477L100 422L141 387L189 443L232 505L263 445L297 389L344 419L310 475L271 530L343 547L411 568L400 621L332 600L263 572L278 643L286 712L231 712L223 643L219 572L157 599L93 620Z"/>
<glyph unicode="&#x2b;" horiz-adv-x="560" d="M56 257L247 257L223 60L289 60L313 257L504 257L512 323L321 323L345 520L279 520L255 323L64 323Z"/>
<glyph unicode="&#x2c;" horiz-adv-x="207" d="M44 102L17 -128L56 -128L119 27L128 102Z"/>
<glyph unicode="&#x2d;" horiz-adv-x="414" d="M62 258L354 258L361 325L69 325Z"/>
<glyph unicode="&#x2e;" horiz-adv-x="207" d="M32 0L116 0L128 102L44 102Z"/>
<glyph unicode="&#x2f;" horiz-adv-x="454" d="M6 0L79 0L473 712L399 712Z"/>
<glyph unicode="&#x30;" horiz-adv-x="560" d="M256 -12C429 -12 492 77 530 361C537 410 540 452 540 491C540 656 479 724 331 724C147 724 90 622 58 367C51 314 48 267 48 227C48 46 115 -12 256 -12ZM256 54C165 54 130 91 130 207C130 248 135 300 143 364C170 584 211 648 329 648C418 648 455 610 455 495C455 459 452 416 445 364C414 122 380 54 256 54Z"/>
<glyph unicode="&#x31;" horiz-adv-x="560" d="M276 0L359 0L446 712L377 712L156 628L146 552L353 626Z"/>
<glyph unicode="&#x32;" horiz-adv-x="560" d="M45 0L463 0L471 66L133 66L134 79C142 146 179 181 278 242L360 293C466 359 535 436 535 551C535 659 468 724 331 724C172 724 111 636 87 488L165 488C187 609 236 648 328 648C407 648 452 616 452 544C452 442 374 387 300 342L217 291C132 238 66 174 53 66Z"/>
<glyph unicode="&#x33;" horiz-adv-x="560" d="M43 216C31 60 96 -12 256 -12C420 -12 505 78 505 223C505 303 470 346 411 367C491 398 528 475 528 552C528 659 461 724 324 724C167 724 104 633 77 488L156 488C180 608 230 648 321 648C401 648 446 618 446 546C446 453 390 398 294 398L228 398L218 325L290 325C383 325 422 287 422 218C422 108 364 54 257 54C153 54 114 100 121 216Z"/>
<glyph unicode="&#x34;" horiz-adv-x="560" d="M16 164L339 164L319 0L399 0L419 164L520 164L528 234L427 234L486 712L370 712L23 226ZM112 234L397 637L347 234Z"/>
<glyph unicode="&#x35;" horiz-adv-x="560" d="M67 288L141 288C168 349 208 383 296 383C392 383 428 343 428 262C428 249 427 236 425 221C412 109 367 54 255 54C152 54 115 100 122 192L44 192C33 56 105 -12 253 -12C403 -12 487 53 508 219C510 235 511 250 511 264C511 389 440 452 305 452C242 452 193 432 161 400L210 636L527 636L536 712L153 712L71 320Z"/>
<glyph unicode="&#x36;" horiz-adv-x="560" d="M46 225C44 209 43 194 43 179C43 44 123 -12 259 -12C410 -12 490 54 510 219C512 235 513 250 513 263C513 388 437 452 304 452C275 452 249 446 226 437L441 712L352 712L138 436C87 371 57 314 46 225ZM128 220C141 331 187 383 298 383C394 383 430 344 430 261C430 251 430 236 428 220C414 110 369 54 257 54C161 54 125 94 125 174C125 187 126 203 128 220Z"/>
<glyph unicode="&#x37;" horiz-adv-x="560" d="M99 636L459 636L94 0L183 0L553 652L560 712L108 712Z"/>
<glyph unicode="&#x38;" horiz-adv-x="560" d="M37 159C37 43 115 -12 254 -12C425 -12 506 67 506 218C506 285 477 331 416 358C500 392 531 471 531 553C531 658 467 724 331 724C169 724 94 635 94 497C94 429 125 386 169 362C77 335 37 249 37 159ZM288 322C380 322 423 289 423 217C423 106 367 54 255 54C163 54 120 87 120 163C120 273 181 322 288 322ZM296 391C211 391 177 430 177 494C177 594 224 648 328 648C408 648 448 620 448 549C448 449 401 391 296 391Z"/>
<glyph unicode="&#x39;" horiz-adv-x="560" d="M279 257C306 257 330 262 353 270L145 0L235 0L446 279C496 345 527 399 538 491C540 508 541 524 541 539C541 670 463 724 331 724C184 724 100 660 79 495C77 479 76 464 76 449C76 324 146 257 279 257ZM288 326C196 326 159 367 159 448C159 462 160 477 162 492C173 592 219 648 328 648C423 648 458 607 458 531C458 519 457 506 455 492C442 381 396 326 288 326Z"/>
<glyph unicode="&#x3a;" horiz-adv-x="207" d="M77 370L160 370L173 472L89 472ZM31 0L115 0L127 102L43 102Z"/>
<glyph unicode="&#x3b;" horiz-adv-x="207" d="M77 370L160 370L173 472L89 472ZM43 102L15 -128L55 -128L118 27L127 102Z"/>
<glyph unicode="&#x3c;" horiz-adv-x="560" d="M46 257L472 76L480 140L134 287L516 434L525 504L54 323Z"/>
<glyph unicode="&#x3d;" horiz-adv-x="560" d="M69 361L517 361L525 427L77 427ZM43 153L491 153L499 219L51 219Z"/>
<glyph unicode="&#x3e;" horiz-adv-x="560" d="M90 440L435 293L53 146L45 76L515 257L523 323L98 504Z"/>
<glyph unicode="&#x3f;" horiz-adv-x="388" d="M121 214L190 214L194 251C206 363 395 386 395 562C395 650 335 712 200 712L83 712L74 636L195 636C275 636 313 610 313 550C313 419 143 385 127 259ZM89 0L173 0L184 102L101 102Z"/>
<glyph unicode="&#x40;" horiz-adv-x="850" d="M238 287C235 263 234 241 234 221C234 100 289 49 393 49C456 49 495 75 520 131C531 71 576 49 637 49C729 49 784 101 808 322C812 361 815 396 815 429C815 653 699 724 475 724C218 724 95 635 52 295C47 252 45 214 45 178C45 -43 149 -143 426 -143L469 -143L478 -76L425 -76C212 -76 121 -21 121 176C121 211 124 249 129 292C166 591 265 651 476 651C656 651 740 608 740 428C740 397 738 364 733 325C712 137 684 110 634 110C601 110 586 135 593 194L632 513L559 513L552 451C533 500 493 521 437 521C316 521 258 451 238 287ZM315 285C331 417 365 454 442 454C503 454 532 430 532 351C532 332 531 310 528 285C512 151 476 110 399 110C338 110 310 136 310 216C310 235 312 258 315 285Z"/>
<glyph unicode="&#x41;" horiz-adv-x="562" d="M-17 0L61 0L134 172L404 172L436 0L518 0L382 712L292 712ZM324 614L392 242L164 242Z"/>
<glyph unicode="&#x42;" horiz-adv-x="577" d="M51 0L317 0C446 0 512 63 526 196C527 207 528 216 528 226C528 292 502 344 447 372C495 389 534 436 543 521C544 530 545 542 545 552C545 653 484 712 366 712L138 712ZM343 330C408 330 446 304 446 231C446 222 445 207 444 199C432 102 383 66 308 66L142 66L174 330ZM363 636C435 636 462 609 462 552C462 543 461 532 460 521C450 442 422 401 337 401L183 401L211 636Z"/>
<glyph unicode="&#x43;" horiz-adv-x="590" d="M288 -12C448 -12 518 64 550 259L471 259C442 110 406 54 287 54C178 54 137 91 137 219C137 258 141 304 148 361C175 584 221 648 360 648C479 648 502 599 494 451L572 451C585 636 544 724 360 724C162 724 95 625 63 361C57 313 54 270 54 233C54 54 117 -12 288 -12Z"/>
<glyph unicode="&#x44;" horiz-adv-x="615" d="M51 0L283 0C483 0 547 96 579 358C584 401 586 437 586 472C586 644 516 712 351 712L138 712ZM351 636C463 636 503 597 503 478C503 446 500 407 494 361C465 129 421 66 281 66L142 66L211 636Z"/>
<glyph unicode="&#x45;" horiz-adv-x="510" d="M51 0L432 0L440 66L142 66L174 331L448 331L457 401L183 401L211 636L510 636L519 712L138 712Z"/>
<glyph unicode="&#x46;" horiz-adv-x="485" d="M51 0L134 0L174 331L437 331L446 401L183 401L211 636L499 636L508 712L138 712Z"/>
<glyph unicode="&#x47;" horiz-adv-x="598" d="M317 300L479 300L475 268C456 115 408 54 287 54C178 54 137 91 137 219C137 258 141 304 148 361C175 584 221 648 360 648C467 648 502 601 498 488L577 488C582 644 530 724 360 724C161 724 95 625 63 361C57 313 54 270 54 233C54 54 124 -12 289 -12C453 -12 531 77 554 268L566 370L326 370Z"/>
<glyph unicode="&#x48;" horiz-adv-x="638" d="M51 0L134 0L174 330L483 330L443 0L526 0L613 712L530 712L492 401L183 401L221 712L138 712Z"/>
<glyph unicode="&#x49;" horiz-adv-x="246" d="M51 0L134 0L221 712L138 712Z"/>
<glyph unicode="&#x4a;" horiz-adv-x="385" d="M-5 66L-12 0L76 0C224 0 285 61 301 192L365 712L282 712L218 190C207 103 165 66 74 66Z"/>
<glyph unicode="&#x4b;" horiz-adv-x="567" d="M51 0L134 0L160 212L275 340L439 0L528 0L335 401L617 712L522 712L174 327L221 712L138 712Z"/>
<glyph unicode="&#x4c;" horiz-adv-x="477" d="M51 0L432 0L440 66L142 66L221 712L138 712Z"/>
<glyph unicode="&#x4d;" horiz-adv-x="778" d="M117 0L202 535L332 0L386 0L642 526L600 0L680 0L737 712L652 712L375 136L237 712L152 712L37 0Z"/>
<glyph unicode="&#x4e;" horiz-adv-x="638" d="M51 0L134 0L201 549L453 0L526 0L613 712L530 712L462 162L211 712L138 712Z"/>
<glyph unicode="&#x4f;" horiz-adv-x="623" d="M288 -12C489 -12 554 84 587 358C592 403 595 443 595 479C595 654 525 724 360 724C162 724 95 628 63 364C57 316 54 273 54 236C54 57 124 -12 288 -12ZM287 54C178 54 137 91 137 219C137 258 141 304 148 361C175 584 221 648 360 648C470 648 511 609 511 486C511 451 507 410 501 361C469 116 428 54 287 54Z"/>
<glyph unicode="&#x50;" horiz-adv-x="542" d="M51 0L134 0L168 283L317 283C448 283 520 329 538 491C540 509 541 527 541 542C541 664 480 712 352 712L138 712ZM352 636C426 636 459 615 459 542C459 528 458 513 456 494C442 380 405 352 316 352L177 352L211 636Z"/>
<glyph unicode="&#x51;" horiz-adv-x="623" d="M288 -12C372 -12 425 11 470 50L510 0L600 0L515 108C554 168 573 245 587 358C593 405 595 444 595 480C595 655 525 724 360 724C162 724 95 628 63 364C57 316 54 273 54 236C54 57 124 -12 288 -12ZM321 239L427 104C395 67 351 54 287 54C178 54 137 91 137 219C137 258 141 304 148 361C175 584 221 648 360 648C468 648 511 609 511 486C511 451 508 410 501 361C490 280 480 219 464 174L333 341Z"/>
<glyph unicode="&#x52;" horiz-adv-x="558" d="M51 0L134 0L168 283L289 283L410 0L499 0L371 293C469 304 522 351 538 491C540 510 541 527 541 543C541 665 479 712 352 712L138 712ZM352 636C426 636 459 615 459 542C459 528 457 513 455 494C442 380 405 352 316 352L177 352L211 636Z"/>
<glyph unicode="&#x53;" horiz-adv-x="543" d="M36 216C24 60 89 -12 249 -12C404 -12 492 69 492 212C492 311 434 356 333 385L278 400C211 419 166 441 166 508C166 603 229 648 314 648C411 648 450 608 445 488L524 488C532 637 486 724 317 724C169 724 82 636 82 498C82 393 149 353 241 327L295 312C366 292 409 268 409 203C409 97 342 54 251 54C146 54 107 100 115 216Z"/>
<glyph unicode="&#x54;" horiz-adv-x="522" d="M64 636L266 636L189 0L271 0L348 636L551 636L560 712L73 712Z"/>
<glyph unicode="&#x55;" horiz-adv-x="624" d="M73 235C53 67 115 -12 287 -12C458 -12 525 68 546 235L605 712L522 712L464 235C448 102 397 54 288 54C179 54 140 102 156 235L215 712L132 712Z"/>
<glyph unicode="&#x56;" horiz-adv-x="562" d="M205 0L295 0L605 712L526 712L263 98L151 712L69 712Z"/>
<glyph unicode="&#x57;" horiz-adv-x="886" d="M168 0L259 0L484 555L568 0L656 0L927 712L848 712L624 110L533 712L472 712L229 107L154 712L72 712Z"/>
<glyph unicode="&#x58;" horiz-adv-x="518" d="M-21 0L66 0L264 297L392 0L479 0L320 362L558 712L470 712L282 430L160 712L73 712L224 366Z"/>
<glyph unicode="&#x59;" horiz-adv-x="543" d="M199 0L282 0L316 294L588 712L502 712L288 378L157 712L68 712L235 298Z"/>
<glyph unicode="&#x5a;" horiz-adv-x="488" d="M76 636L404 636L12 50L7 0L421 0L429 66L111 66L511 662L516 712L85 712Z"/>
<glyph unicode="&#x5b;" horiz-adv-x="309" d="M31 -148L224 -148L232 -82L111 -82L207 706L329 706L337 772L144 772Z"/>
<glyph unicode="&#x5c;" horiz-adv-x="452" d="M160 712L92 712L316 0L384 0Z"/>
<glyph unicode="&#x5d;" horiz-adv-x="309" d="M291 772L98 772L90 706L211 706L114 -82L-6 -82L-14 -148L178 -148Z"/>
<glyph unicode="&#x5e;" horiz-adv-x="560" d="M152 469L221 469L331 642L400 469L465 469L368 712L308 712Z"/>
<glyph unicode="&#x5f;" horiz-adv-x="578" d="M4 -12L-4 -84L501 -84L509 -12Z"/>
<glyph unicode="&#x60;" horiz-adv-x="468" d="M245 568L307 568L247 724L162 724Z"/>
<glyph unicode="&#x61;" horiz-adv-x="454" d="M161 -8C226 -8 267 23 290 60L283 0L360 0L401 344C413 443 375 512 252 512C121 512 78 453 62 345L135 345C146 418 173 442 244 442C317 442 328 405 320 334L316 302L240 290C123 271 22 240 22 116C22 39 73 -8 161 -8ZM179 57C128 57 103 81 103 128C103 206 178 221 239 229L309 239L300 166C291 98 246 57 179 57Z"/>
<glyph unicode="&#x62;" horiz-adv-x="509" d="M37 0L114 0L122 68C141 15 183 -8 247 -8C380 -8 445 67 464 248C467 275 468 296 468 319C468 452 417 512 304 512C244 512 200 490 171 445L204 712L124 712ZM242 58C171 58 143 88 143 176C143 199 145 223 148 252C165 395 203 439 289 439C358 439 390 411 390 324C390 303 388 279 385 252C366 106 328 58 242 58Z"/>
<glyph unicode="&#x63;" horiz-adv-x="459" d="M215 -8C326 -8 387 47 414 191L338 191C319 91 284 58 213 58C147 58 117 85 117 174C117 196 119 222 123 253C141 396 177 439 260 439C331 439 354 411 353 317L429 317C436 445 388 512 264 512C125 512 66 434 43 253C40 225 38 198 38 175C38 44 94 -8 215 -8Z"/>
<glyph unicode="&#x64;" horiz-adv-x="508" d="M204 -8C265 -8 310 16 339 65L332 0L409 0L496 712L416 712L383 443C363 491 322 512 263 512C130 512 65 437 44 256C40 227 38 200 38 176C38 49 91 -8 204 -8ZM217 58C148 58 118 88 118 176C118 197 120 223 124 252C142 395 179 439 265 439C334 439 365 411 365 324C365 303 363 279 360 252C341 106 303 58 217 58Z"/>
<glyph unicode="&#x65;" horiz-adv-x="467" d="M213 -8C332 -8 386 49 409 149L337 149C320 82 288 58 219 58C151 58 118 81 118 174C118 194 119 217 123 245L424 245L426 264C446 429 403 512 266 512C129 512 66 435 44 253C40 225 38 201 38 177C38 47 94 -8 213 -8ZM262 439C334 439 363 409 356 307L132 307C153 410 193 439 262 439Z"/>
<glyph unicode="&#x66;" horiz-adv-x="312" d="M45 434L108 434L56 0L136 0L188 434L317 434L326 504L197 504L203 556C210 613 237 639 294 639L354 639L363 712L300 712C195 712 136 655 123 554L117 504L54 504Z"/>
<glyph unicode="&#x67;" horiz-adv-x="508" d="M204 -8C263 -8 307 15 336 60L324 -39C313 -124 275 -150 199 -150C120 -150 97 -122 102 -50L26 -50C21 -152 60 -216 200 -216C329 -216 389 -158 404 -39L471 504L394 504L385 437C366 489 324 512 263 512C130 512 65 434 44 253C40 224 38 197 38 174C38 47 91 -8 204 -8ZM217 58C148 58 118 88 118 176C118 197 120 223 124 252C142 395 179 439 265 439C334 439 365 411 365 324C365 303 363 279 360 252C341 106 303 58 217 58Z"/>
<glyph unicode="&#x68;" horiz-adv-x="496" d="M37 0L117 0L155 317C166 409 204 439 276 439C347 439 371 406 360 317L321 0L401 0L442 334C456 447 406 512 298 512C239 512 197 491 172 449L204 712L124 712Z"/>
<glyph unicode="&#x69;" horiz-adv-x="216" d="M113 618L192 618L204 712L124 712ZM37 0L117 0L179 504L99 504Z"/>
<glyph unicode="&#x6a;" horiz-adv-x="216" d="M113 618L192 618L204 712L124 712ZM27 -77C21 -125 0 -142 -44 -142L-69 -142L-78 -208L-35 -208C54 -208 97 -160 108 -72L179 504L99 504Z"/>
<glyph unicode="&#x6b;" horiz-adv-x="454" d="M37 0L117 0L136 155L215 235L327 0L413 0L272 291L475 504L381 504L148 259L204 712L124 712Z"/>
<glyph unicode="&#x6c;" horiz-adv-x="216" d="M37 0L117 0L204 712L124 712Z"/>
<glyph unicode="&#x6d;" horiz-adv-x="780" d="M37 0L117 0L156 317C167 408 204 439 276 439C347 439 371 406 360 317L321 0L401 0L440 317C451 408 488 439 560 439C631 439 655 406 644 317L605 0L685 0L726 334C740 447 690 512 582 512C513 512 462 484 435 428C416 481 370 512 298 512C235 512 192 489 168 444L176 504L99 504Z"/>
<glyph unicode="&#x6e;" horiz-adv-x="496" d="M37 0L117 0L155 317C166 408 204 439 276 439C347 439 371 406 360 317L321 0L401 0L442 334C456 447 406 512 298 512C236 512 193 489 168 443L176 504L99 504Z"/>
<glyph unicode="&#x6f;" horiz-adv-x="484" d="M214 -8C357 -8 416 68 440 249C443 276 445 303 445 326C445 457 392 512 269 512C125 512 68 436 44 255C40 228 38 201 38 176C38 47 91 -8 214 -8ZM217 58C148 58 118 88 118 176C118 197 120 223 124 252C142 395 179 439 265 439C334 439 365 411 365 324C365 303 363 279 360 252C341 106 303 58 217 58Z"/>
<glyph unicode="&#x70;" horiz-adv-x="509" d="M12 -208L91 -208L124 61C144 13 187 -8 247 -8C381 -8 440 67 464 248C468 275 470 300 470 324C470 453 415 512 304 512C242 512 197 488 168 440L176 504L99 504ZM242 58C171 58 143 88 143 176C143 199 145 223 148 252C165 395 203 439 289 439C358 439 390 411 390 324C390 303 388 279 385 252C366 106 328 58 242 58Z"/>
<glyph unicode="&#x71;" horiz-adv-x="508" d="M204 -8C263 -8 307 15 336 61L303 -208L383 -208L471 504L394 504L385 437C366 489 324 512 263 512C130 512 65 434 44 253C40 224 38 197 38 174C38 47 91 -8 204 -8ZM217 58C148 58 118 88 118 176C118 197 120 223 124 252C142 395 179 439 265 439C334 439 365 411 365 324C365 303 363 279 360 252C341 106 303 58 217 58Z"/>
<glyph unicode="&#x72;" horiz-adv-x="310" d="M33 0L113 0L156 360C162 409 190 434 240 434L316 434L325 504L239 504C139 504 87 450 76 354Z"/>
<glyph unicode="&#x73;" horiz-adv-x="428" d="M26 143C23 55 59 -8 187 -8C308 -8 374 44 374 153C374 217 340 257 260 277L208 290C153 305 135 322 135 357C135 421 172 442 236 442C300 442 326 425 321 354L394 354C407 472 346 512 238 512C119 512 58 456 58 348C58 277 96 242 161 226L212 213C276 197 296 185 296 146C296 78 255 56 190 56C126 56 96 76 99 143Z"/>
<glyph unicode="&#x74;" horiz-adv-x="330" d="M42 434L106 434L72 155C59 52 110 0 211 0L281 0L288 66L226 66C162 66 143 90 152 158L186 434L333 434L343 504L194 504L209 624L132 624L117 504L51 504Z"/>
<glyph unicode="&#x75;" horiz-adv-x="496" d="M95 504L53 170C39 57 89 -8 197 -8C258 -8 302 15 327 60L320 0L397 0L459 504L379 504L339 186C327 91 287 58 219 58C147 58 125 97 136 186L175 504Z"/>
<glyph unicode="&#x76;" horiz-adv-x="440" d="M152 0L226 0L458 504L380 504L204 110L125 504L44 504Z"/>
<glyph unicode="&#x77;" horiz-adv-x="694" d="M134 0L208 0L360 358L425 0L498 0L712 504L634 504L477 117L408 504L351 504L188 117L126 504L44 504Z"/>
<glyph unicode="&#x78;" horiz-adv-x="435" d="M-13 0L71 0L209 192L303 0L387 0L261 251L448 504L364 504L224 312L133 504L48 504L172 252Z"/>
<glyph unicode="&#x79;" horiz-adv-x="440" d="M-9 -142L-17 -208L28 -208C123 -208 155 -158 197 -67L460 504L382 504L207 116L127 504L46 504L154 0L126 -62C99 -122 72 -142 29 -142Z"/>
<glyph unicode="&#x7a;" horiz-adv-x="399" d="M55 434L287 434L12 46L7 0L331 0L338 66L112 66L392 458L398 504L64 504Z"/>
<glyph unicode="&#x7b;" horiz-adv-x="369" d="M148 422C140 359 114 342 70 342L38 342L30 282L63 282C106 282 129 265 121 202L96 -1C83 -109 138 -148 227 -148L283 -148L292 -82L236 -82C177 -82 160 -61 168 4L191 186C201 267 184 299 131 311L131 313C187 325 211 357 221 438L243 620C251 685 274 706 332 706L388 706L396 772L340 772C251 772 186 733 173 625Z"/>
<glyph unicode="&#x7c;" horiz-adv-x="306" d="M64 -208L131 -208L252 784L185 784Z"/>
<glyph unicode="&#x7d;" horiz-adv-x="369" d="M288 625C301 733 246 772 157 772L101 772L92 706L148 706C207 706 224 685 216 620L193 438C183 357 200 325 252 313L252 311C196 299 173 267 163 186L141 4C133 -61 110 -82 52 -82L-3 -82L-11 -148L44 -148C133 -148 198 -109 211 -1L236 202C244 265 270 282 313 282L346 282L353 342L321 342C277 342 255 359 263 422Z"/>
<glyph unicode="&#x7e;" horiz-adv-x="560" d="M57 257C78 276 117 313 180 313C271 313 296 233 389 233C454 233 488 271 509 289L517 355C496 338 459 299 394 299C312 299 285 379 185 379C120 379 86 341 65 323Z"/>
<glyph unicode="&#xa0;" horiz-adv-x="214" />
<glyph unicode="&#xa1;" horiz-adv-x="225" d="M115 610L198 610L211 712L127 712ZM42 0L122 0L165 498L121 498Z"/>
<glyph unicode="&#xa2;" horiz-adv-x="560" d="M220 0L300 0L312 97C413 108 471 163 496 295L420 295C401 195 358 162 278 162C201 162 164 191 164 287C164 307 166 330 169 357C188 500 231 543 324 543C404 543 435 514 435 421L513 421C517 534 475 598 375 613L387 712L307 712L295 614C168 603 109 524 89 357C86 330 85 309 85 286C85 166 132 111 232 98Z"/>
<glyph unicode="&#xa3;" horiz-adv-x="560" d="M40 299L102 299L66 0L487 0L494 66L157 66L185 299L379 299L388 369L193 369L212 520C223 611 268 648 356 648C447 648 476 608 471 488L549 488C557 633 517 724 359 724C216 724 145 648 129 520L110 369L49 369Z"/>
<glyph unicode="&#xa4;" horiz-adv-x="560" d="M135 189L191 239C214 222 243 212 278 212C313 212 343 221 370 240L412 192L452 227L408 277C433 308 446 344 446 385C446 410 440 432 429 451L485 501L451 539L395 488C371 507 342 516 308 516C273 516 243 505 216 488L174 536L135 501L177 452C154 421 140 384 140 345C140 318 146 296 158 277L102 227ZM282 268C231 268 198 303 198 351C198 411 248 459 305 459C354 459 388 426 388 378C388 317 337 268 282 268Z"/>
<glyph unicode="&#xa5;" horiz-adv-x="560" d="M61 283L240 283L231 209L53 209L44 139L223 139L206 0L289 0L306 139L487 139L496 209L314 209L323 283L504 283L513 352L365 352L594 712L509 712L294 371L167 712L78 712L216 352L70 352Z"/>
<glyph unicode="&#xa6;" horiz-adv-x="306" d="M138 404L206 404L252 784L184 784ZM111 187L63 -208L131 -208L179 187Z"/>
<glyph unicode="&#xa7;" horiz-adv-x="550" d="M336 322C397 300 430 282 430 243C430 220 419 198 406 182L464 155C492 188 512 224 512 267C512 330 466 361 385 391L282 429C224 450 181 469 181 529C181 614 249 648 318 648C415 648 458 608 453 488L532 488C543 637 486 724 319 724C183 724 97 645 97 517C97 429 152 388 225 362ZM18 20C10 -129 68 -216 233 -216C365 -216 452 -136 452 -11C452 75 398 114 326 140L214 181C154 203 121 222 121 259C121 282 131 304 143 321L86 347C58 314 39 278 39 235C39 172 85 140 165 111L268 74C325 53 368 36 368 -23C368 -108 303 -147 232 -147C136 -147 90 -100 97 20Z"/>
<glyph unicode="&#xa8;" horiz-adv-x="468" d="M317 597L397 597L408 691L328 691ZM149 597L229 597L240 691L161 691Z"/>
<glyph unicode="&#xa9;" horiz-adv-x="700" d="M354 -12C587 -12 662 89 662 356C662 623 588 724 354 724C120 724 46 623 46 356C46 89 121 -12 354 -12ZM354 32C150 32 93 123 93 356C93 589 150 676 354 676C558 676 615 589 615 356C615 123 558 32 354 32ZM358 152C467 152 489 208 494 310L425 310C423 234 411 213 358 213C294 213 276 231 276 364C276 485 294 504 358 504C411 504 423 483 425 409L494 409C489 518 475 572 358 572C238 572 203 530 203 364C203 210 233 152 358 152Z"/>
<glyph unicode="&#xaa;" horiz-adv-x="383" d="M60 245L318 245L324 296L65 296ZM178 348C225 348 254 371 271 399L265 356L331 356L359 594C367 662 343 720 248 720C153 720 120 672 109 595L171 595C178 644 195 662 242 662C279 662 292 646 292 611C292 602 291 593 288 570L236 561C157 548 82 526 82 434C82 382 118 348 178 348ZM282 520L276 469C271 422 237 401 198 401C166 401 150 415 150 444C150 495 197 507 238 513Z"/>
<glyph unicode="&#xab;" horiz-adv-x="397" d="M259 64L326 64L266 256L374 448L307 448L188 256ZM109 64L175 64L115 256L223 448L157 448L38 256Z"/>
<glyph unicode="&#xac;" horiz-adv-x="560" d="M51 257L432 257L409 60L475 60L507 323L59 323Z"/>
<glyph unicode="&#xad;" horiz-adv-x="414" d="M62 258L354 258L361 325L69 325Z"/>
<glyph unicode="&#xae;" horiz-adv-x="430" d="M255 364C397 364 442 424 442 585C442 745 397 805 255 805C114 805 69 745 69 585C69 424 114 364 255 364ZM255 395C135 395 101 445 101 585C101 724 135 772 255 772C376 772 410 724 410 585C410 445 376 395 255 395ZM171 465L222 465L222 544L253 544L294 465L352 465L302 557C330 566 343 590 343 631C343 687 314 712 262 712L171 712ZM257 667C281 667 292 654 292 629C292 603 282 591 259 591L222 591L222 667Z"/>
<glyph unicode="&#xaf;" horiz-adv-x="468" d="M145 617L407 617L414 675L152 675Z"/>
<glyph unicode="&#xb0;" horiz-adv-x="330" d="M200 487C276 487 328 546 328 614C328 675 286 720 219 720C142 720 91 662 91 593C91 533 132 487 200 487ZM203 540C168 540 147 564 147 595C147 638 177 668 216 668C251 668 272 644 272 612C272 569 242 540 203 540Z"/>
<glyph unicode="&#xb1;" horiz-adv-x="560" d="M71 373L261 373L239 192L305 192L327 373L519 373L526 439L335 439L358 620L292 620L269 439L78 439ZM25 0L473 0L480 66L32 66Z"/>
<glyph unicode="&#xb2;" horiz-adv-x="318" d="M66 516L319 516L325 568L140 568C145 595 161 604 206 627L256 652C313 679 356 720 356 780C356 844 317 880 234 880C143 880 103 834 87 750L153 750C165 805 184 821 231 821C266 821 285 809 285 777C285 731 250 714 215 697L169 674C117 649 77 615 70 555Z"/>
<glyph unicode="&#xb3;" horiz-adv-x="318" d="M67 632C62 543 101 508 193 508C280 508 339 546 339 626C339 662 323 686 298 697C335 717 353 742 353 785C353 841 314 880 230 880C141 880 99 834 84 751L150 751C159 806 186 821 226 821C265 821 284 807 284 779C284 738 255 719 218 719L181 719L174 665L211 665C254 665 268 651 268 623C268 575 236 560 196 560C148 560 130 576 133 632Z"/>
<glyph unicode="&#xb4;" horiz-adv-x="468" d="M225 568L293 568L416 724L325 724Z"/>
<glyph unicode="&#xb5;" horiz-adv-x="513" d="M114 29C131 5 161 -8 209 -8C265 -8 311 14 339 61C348 20 381 0 440 0L470 0L477 66L463 66C418 66 410 83 416 131L462 504L382 504L343 186C331 91 292 58 223 58C151 58 129 94 140 185L178 504L98 504L11 -208L85 -208Z"/>
<glyph unicode="&#xb6;" horiz-adv-x="522" d="M271 228L243 0L326 0L413 712L302 712C159 712 81 656 62 487C58 457 56 430 56 406C56 277 112 228 247 228ZM368 0L410 0L497 712L455 712Z"/>
<glyph unicode="&#xb7;" horiz-adv-x="206" d="M58 237L143 237L156 339L71 339Z"/>
<glyph unicode="&#xb8;" horiz-adv-x="468" d="M154 -78L182 -78C223 -78 243 -91 243 -116C243 -160 207 -170 170 -170L113 -170L107 -216L183 -216C252 -216 309 -185 309 -117C309 -73 280 -41 211 -37L216 0L186 0Z"/>
<glyph unicode="&#xb9;" horiz-adv-x="318" d="M185 516L255 516L298 872L246 872L133 834L126 775L220 805Z"/>
<glyph unicode="&#xba;" horiz-adv-x="404" d="M66 245L337 245L342 296L72 296ZM218 348C326 348 365 404 381 534C383 553 384 571 384 588C384 680 346 720 254 720C147 720 108 667 92 536C90 516 89 498 89 481C89 388 127 348 218 348ZM220 403C176 403 157 421 157 480C157 495 158 512 161 535C172 634 196 659 251 659C298 659 316 642 316 585C316 570 315 554 312 535C299 434 278 403 220 403Z"/>
<glyph unicode="&#xbb;" horiz-adv-x="396" d="M174 64L240 64L359 256L288 448L222 448L282 256ZM23 64L90 64L208 256L138 448L71 448L131 256Z"/>
<glyph unicode="&#xbc;" horiz-adv-x="692" d="M143 356L213 356L256 712L204 712L91 674L84 615L178 645ZM44 0L104 0L646 712L586 712ZM342 77L512 77L503 0L570 0L579 77L629 77L635 131L585 131L613 356L526 356L347 121ZM416 131L537 287L518 131Z"/>
<glyph unicode="&#xbd;" horiz-adv-x="692" d="M145 356L215 356L258 712L206 712L93 674L86 615L180 645ZM26 0L86 0L628 712L568 712ZM356 0L609 0L615 52L430 52C435 79 451 88 496 111L546 136C603 163 646 204 646 264C646 328 607 364 524 364C433 364 393 318 377 234L443 234C455 289 474 305 521 305C556 305 575 293 575 261C575 215 540 198 505 181L459 158C407 133 367 99 360 39Z"/>
<glyph unicode="&#xbe;" horiz-adv-x="692" d="M50 472C45 383 84 348 176 348C263 348 322 386 322 466C322 502 306 526 281 537C318 557 336 582 336 625C336 681 297 720 213 720C124 720 82 674 67 591L133 591C142 646 169 661 209 661C248 661 267 647 267 619C267 578 238 559 201 559L164 559L157 505L194 505C237 505 251 491 251 463C251 415 219 400 179 400C131 400 113 416 116 472ZM73 0L133 0L675 712L615 712ZM367 77L537 77L528 0L595 0L604 77L654 77L660 131L610 131L638 356L551 356L372 121ZM441 131L562 287L543 131Z"/>
<glyph unicode="&#xbf;" horiz-adv-x="386" d="M228 610L311 610L324 712L241 712ZM18 151C18 63 78 0 214 0L330 0L338 66L217 66C136 66 99 98 99 162C99 291 271 328 287 453L292 498L223 498L219 461C207 350 18 326 18 151Z"/>
<glyph unicode="&#xc0;" horiz-adv-x="562" d="M-17 0L61 0L134 172L404 172L436 0L518 0L382 712L292 712ZM324 614L392 242L164 242ZM315 776L377 776L317 932L232 932Z"/>
<glyph unicode="&#xc1;" horiz-adv-x="562" d="M-17 0L61 0L134 172L404 172L436 0L518 0L382 712L292 712ZM324 614L392 242L164 242ZM295 776L363 776L486 932L395 932Z"/>
<glyph unicode="&#xc2;" horiz-adv-x="562" d="M-17 0L61 0L134 172L404 172L436 0L518 0L382 712L292 712ZM324 614L392 242L164 242ZM200 776L273 776L357 886L413 776L480 776L395 932L324 932Z"/>
<glyph unicode="&#xc3;" horiz-adv-x="562" d="M-17 0L61 0L134 172L404 172L436 0L518 0L382 712L292 712ZM324 614L392 242L164 242ZM218 792L273 792L278 830C280 847 287 855 299 855C328 855 352 792 403 792C442 792 467 811 474 862L481 913L425 913L421 874C419 857 412 849 401 849C368 849 347 913 296 913C256 913 231 894 224 843Z"/>
<glyph unicode="&#xc4;" horiz-adv-x="562" d="M-17 0L61 0L134 172L404 172L436 0L518 0L382 712L292 712ZM324 614L392 242L164 242ZM387 805L467 805L478 899L398 899ZM219 805L299 805L310 899L231 899Z"/>
<glyph unicode="&#xc5;" horiz-adv-x="562" d="M-17 0L61 0L134 172L404 172L436 0L518 0L382 712L292 712ZM324 614L392 242L164 242ZM344 808C309 808 299 824 299 848C299 891 314 920 358 920C393 920 403 903 403 879C403 836 388 808 344 808ZM343 769C414 769 447 820 447 879C447 930 418 958 359 958C288 958 255 907 255 848C255 797 284 769 343 769Z"/>
<glyph unicode="&#xc6;" horiz-adv-x="815" d="M-21 0L63 0L147 172L379 172L358 0L736 0L745 72L450 72L481 326L754 326L762 396L489 396L518 633L814 633L823 712L331 712ZM374 633L435 633L387 242L182 242Z"/>
<glyph unicode="&#xc7;" horiz-adv-x="590" d="M235 -78L263 -78C304 -78 324 -91 324 -116C324 -160 288 -170 251 -170L194 -170L188 -216L264 -216C333 -216 390 -185 390 -117C390 -73 361 -41 292 -37L295 -12C450 -9 518 67 550 259L471 259C442 110 406 54 287 54C178 54 137 91 137 219C137 258 141 304 148 361C175 584 221 648 360 648C479 648 502 599 494 451L572 451C585 636 544 724 360 724C162 724 95 625 63 361C57 313 54 270 54 233C54 63 110 -5 262 -11Z"/>
<glyph unicode="&#xc8;" horiz-adv-x="510" d="M51 0L432 0L440 66L142 66L174 331L448 331L457 401L183 401L211 636L510 636L519 712L138 712ZM316 776L378 776L318 932L233 932Z"/>
<glyph unicode="&#xc9;" horiz-adv-x="510" d="M51 0L432 0L440 66L142 66L174 331L448 331L457 401L183 401L211 636L510 636L519 712L138 712ZM296 776L364 776L487 932L396 932Z"/>
<glyph unicode="&#xca;" horiz-adv-x="510" d="M51 0L432 0L440 66L142 66L174 331L448 331L457 401L183 401L211 636L510 636L519 712L138 712ZM201 776L274 776L358 886L414 776L481 776L396 932L325 932Z"/>
<glyph unicode="&#xcb;" horiz-adv-x="510" d="M51 0L432 0L440 66L142 66L174 331L448 331L457 401L183 401L211 636L510 636L519 712L138 712ZM388 805L468 805L479 899L399 899ZM220 805L300 805L311 899L232 899Z"/>
<glyph unicode="&#xcc;" horiz-adv-x="246" d="M51 0L134 0L221 712L138 712ZM158 776L220 776L160 932L75 932Z"/>
<glyph unicode="&#xcd;" horiz-adv-x="246" d="M51 0L134 0L221 712L138 712ZM138 776L206 776L329 932L238 932Z"/>
<glyph unicode="&#xce;" horiz-adv-x="246" d="M51 0L134 0L221 712L138 712ZM43 776L116 776L200 886L256 776L323 776L238 932L167 932Z"/>
<glyph unicode="&#xcf;" horiz-adv-x="246" d="M51 0L134 0L221 712L138 712ZM230 805L310 805L321 899L241 899ZM62 805L142 805L153 899L74 899Z"/>
<glyph unicode="&#xd0;" horiz-adv-x="633" d="M41 334L101 334L60 0L300 0C500 0 564 96 596 358C601 401 604 436 604 471C604 643 534 712 368 712L147 712L108 397L49 397ZM368 636C480 636 520 597 520 478C520 446 517 407 511 361C482 129 438 66 298 66L151 66L184 334L330 334L338 397L191 397L220 636Z"/>
<glyph unicode="&#xd1;" horiz-adv-x="638" d="M51 0L134 0L201 549L453 0L526 0L613 712L530 712L462 162L211 712L138 712ZM266 792L321 792L326 830C328 847 335 855 347 855C376 855 400 792 451 792C490 792 515 811 522 862L529 913L473 913L469 874C467 857 460 849 449 849C416 849 395 913 344 913C304 913 279 894 272 843Z"/>
<glyph unicode="&#xd2;" horiz-adv-x="623" d="M288 -12C489 -12 554 84 587 358C592 403 595 443 595 479C595 654 525 724 360 724C162 724 95 628 63 364C57 316 54 273 54 236C54 57 124 -12 288 -12ZM287 54C178 54 137 91 137 219C137 258 141 304 148 361C175 584 221 648 360 648C470 648 511 609 511 486C511 451 507 410 501 361C469 116 428 54 287 54ZM352 776L414 776L354 932L269 932Z"/>
<glyph unicode="&#xd3;" horiz-adv-x="623" d="M288 -12C489 -12 554 84 587 358C592 403 595 443 595 479C595 654 525 724 360 724C162 724 95 628 63 364C57 316 54 273 54 236C54 57 124 -12 288 -12ZM287 54C178 54 137 91 137 219C137 258 141 304 148 361C175 584 221 648 360 648C470 648 511 609 511 486C511 451 507 410 501 361C469 116 428 54 287 54ZM332 776L400 776L523 932L432 932Z"/>
<glyph unicode="&#xd4;" horiz-adv-x="623" d="M288 -12C489 -12 554 84 587 358C592 403 595 443 595 479C595 654 525 724 360 724C162 724 95 628 63 364C57 316 54 273 54 236C54 57 124 -12 288 -12ZM287 54C178 54 137 91 137 219C137 258 141 304 148 361C175 584 221 648 360 648C470 648 511 609 511 486C511 451 507 410 501 361C469 116 428 54 287 54ZM237 776L310 776L394 886L450 776L517 776L432 932L361 932Z"/>
<glyph unicode="&#xd5;" horiz-adv-x="623" d="M288 -12C489 -12 554 84 587 358C592 403 595 443 595 479C595 654 525 724 360 724C162 724 95 628 63 364C57 316 54 273 54 236C54 57 124 -12 288 -12ZM287 54C178 54 137 91 137 219C137 258 141 304 148 361C175 584 221 648 360 648C470 648 511 609 511 486C511 451 507 410 501 361C469 116 428 54 287 54ZM255 792L310 792L315 830C317 847 324 855 336 855C365 855 389 792 440 792C479 792 504 811 511 862L518 913L462 913L458 874C456 857 449 849 438 849C405 849 384 913 333 913C293 913 268 894 261 843Z"/>
<glyph unicode="&#xd6;" horiz-adv-x="623" d="M288 -12C489 -12 554 84 587 358C592 403 595 443 595 479C595 654 525 724 360 724C162 724 95 628 63 364C57 316 54 273 54 236C54 57 124 -12 288 -12ZM287 54C178 54 137 91 137 219C137 258 141 304 148 361C175 584 221 648 360 648C470 648 511 609 511 486C511 451 507 410 501 361C469 116 428 54 287 54ZM424 805L504 805L515 899L435 899ZM256 805L336 805L347 899L268 899Z"/>
<glyph unicode="&#xd7;" horiz-adv-x="560" d="M124 104L280 242L399 107L451 152L331 288L486 426L443 475L288 337L170 472L119 426L237 291L81 152Z"/>
<glyph unicode="&#xd8;" horiz-adv-x="633" d="M11 0L89 78C124 14 189 -12 293 -12C493 -12 559 84 591 358C596 403 599 443 599 479C599 518 596 549 589 578L638 627L648 712L569 633C534 697 469 724 365 724C166 724 100 628 68 364C62 316 59 273 59 236C59 195 62 160 69 133L21 85ZM292 54C211 54 167 75 150 139L514 503C514 498 515 493 515 486C515 451 512 410 506 361C477 116 433 54 292 54ZM142 219C142 258 146 304 153 361C180 584 224 648 365 648C445 648 486 628 505 569L142 206Z"/>
<glyph unicode="&#xd9;" horiz-adv-x="624" d="M73 235C53 67 115 -12 287 -12C458 -12 525 68 546 235L605 712L522 712L464 235C448 102 397 54 288 54C179 54 140 102 156 235L215 712L132 712ZM354 776L416 776L356 932L271 932Z"/>
<glyph unicode="&#xda;" horiz-adv-x="624" d="M73 235C53 67 115 -12 287 -12C458 -12 525 68 546 235L605 712L522 712L464 235C448 102 397 54 288 54C179 54 140 102 156 235L215 712L132 712ZM334 776L402 776L525 932L434 932Z"/>
<glyph unicode="&#xdb;" horiz-adv-x="624" d="M73 235C53 67 115 -12 287 -12C458 -12 525 68 546 235L605 712L522 712L464 235C448 102 397 54 288 54C179 54 140 102 156 235L215 712L132 712ZM239 776L312 776L396 886L452 776L519 776L434 932L363 932Z"/>
<glyph unicode="&#xdc;" horiz-adv-x="624" d="M73 235C53 67 115 -12 287 -12C458 -12 525 68 546 235L605 712L522 712L464 235C448 102 397 54 288 54C179 54 140 102 156 235L215 712L132 712ZM426 805L506 805L517 899L437 899ZM258 805L338 805L349 899L270 899Z"/>
<glyph unicode="&#xdd;" horiz-adv-x="543" d="M199 0L282 0L316 294L588 712L502 712L288 378L157 712L68 712L235 298ZM295 776L363 776L486 932L395 932Z"/>
<glyph unicode="&#xde;" horiz-adv-x="540" d="M51 0L134 0L153 154L303 154C424 154 499 199 518 356C520 372 521 388 521 405C521 524 458 570 337 570L203 570L221 712L138 712ZM337 494C405 494 438 473 438 401C438 389 437 375 435 358C422 249 383 224 303 224L161 224L194 494Z"/>
<glyph unicode="&#xdf;" horiz-adv-x="541" d="M218 0L266 0C410 0 477 59 493 197C495 212 496 226 496 240C496 308 473 357 410 382C466 405 491 451 500 528C502 543 503 557 503 572C503 672 454 724 327 724C183 724 135 655 122 546L117 504L54 504L45 434L108 434L56 0L136 0L202 546C211 621 240 651 324 651C395 651 424 629 424 568C424 557 423 545 421 532C410 445 382 410 301 410L276 410L267 341L304 341C380 341 416 320 416 245C416 233 415 219 413 203C400 94 353 66 267 66L225 66Z"/>
<glyph unicode="&#xe0;" horiz-adv-x="454" d="M161 -8C226 -8 267 23 290 60L283 0L360 0L401 344C413 443 375 512 252 512C121 512 78 453 62 345L135 345C146 418 173 442 244 442C317 442 328 405 320 334L316 302L240 290C123 271 22 240 22 116C22 39 73 -8 161 -8ZM179 57C128 57 103 81 103 128C103 206 178 221 239 229L309 239L300 166C291 98 246 57 179 57ZM237 568L299 568L239 724L154 724Z"/>
<glyph unicode="&#xe1;" horiz-adv-x="454" d="M161 -8C226 -8 267 23 290 60L283 0L360 0L401 344C413 443 375 512 252 512C121 512 78 453 62 345L135 345C146 418 173 442 244 442C317 442 328 405 320 334L316 302L240 290C123 271 22 240 22 116C22 39 73 -8 161 -8ZM179 57C128 57 103 81 103 128C103 206 178 221 239 229L309 239L300 166C291 98 246 57 179 57ZM217 568L285 568L408 724L317 724Z"/>
<glyph unicode="&#xe2;" horiz-adv-x="454" d="M161 -8C226 -8 267 23 290 60L283 0L360 0L401 344C413 443 375 512 252 512C121 512 78 453 62 345L135 345C146 418 173 442 244 442C317 442 328 405 320 334L316 302L240 290C123 271 22 240 22 116C22 39 73 -8 161 -8ZM179 57C128 57 103 81 103 128C103 206 178 221 239 229L309 239L300 166C291 98 246 57 179 57ZM122 568L195 568L279 678L335 568L402 568L317 724L246 724Z"/>
<glyph unicode="&#xe3;" horiz-adv-x="454" d="M161 -8C226 -8 267 23 290 60L283 0L360 0L401 344C413 443 375 512 252 512C121 512 78 453 62 345L135 345C146 418 173 442 244 442C317 442 328 405 320 334L316 302L240 290C123 271 22 240 22 116C22 39 73 -8 161 -8ZM179 57C128 57 103 81 103 128C103 206 178 221 239 229L309 239L300 166C291 98 246 57 179 57ZM140 584L195 584L200 622C202 639 209 647 221 647C250 647 274 584 325 584C364 584 389 603 396 654L403 705L347 705L343 666C341 649 334 641 323 641C290 641 269 705 218 705C178 705 153 686 146 635Z"/>
<glyph unicode="&#xe4;" horiz-adv-x="454" d="M161 -8C226 -8 267 23 290 60L283 0L360 0L401 344C413 443 375 512 252 512C121 512 78 453 62 345L135 345C146 418 173 442 244 442C317 442 328 405 320 334L316 302L240 290C123 271 22 240 22 116C22 39 73 -8 161 -8ZM179 57C128 57 103 81 103 128C103 206 178 221 239 229L309 239L300 166C291 98 246 57 179 57ZM309 597L389 597L400 691L320 691ZM141 597L221 597L232 691L153 691Z"/>
<glyph unicode="&#xe5;" horiz-adv-x="454" d="M161 -8C226 -8 267 23 290 60L283 0L360 0L401 344C413 443 375 512 252 512C121 512 78 453 62 345L135 345C146 418 173 442 244 442C317 442 328 405 320 334L316 302L240 290C123 271 22 240 22 116C22 39 73 -8 161 -8ZM179 57C128 57 103 81 103 128C103 206 178 221 239 229L309 239L300 166C291 98 246 57 179 57ZM266 600C231 600 221 616 221 640C221 683 236 712 280 712C315 712 325 695 325 671C325 628 310 600 266 600ZM265 561C336 561 369 612 369 671C369 722 340 750 281 750C210 750 177 699 177 640C177 589 206 561 265 561Z"/>
<glyph unicode="&#xe6;" horiz-adv-x="734" d="M159 -8C239 -8 296 29 319 82C343 20 395 -8 481 -8C599 -8 654 49 676 149L604 149C587 82 555 58 486 58C418 58 385 81 385 174C385 194 386 217 390 245L691 245L693 264C713 429 670 512 533 512C466 512 417 494 381 454C361 490 320 512 252 512C121 512 78 453 62 345L135 345C146 418 173 442 244 442C317 442 329 406 320 334L316 299L240 287C129 269 22 236 22 113C22 40 73 -8 159 -8ZM178 57C128 57 103 82 103 126C103 203 184 218 238 226L308 236L300 171C290 92 241 57 178 57ZM529 439C601 439 630 409 623 307L399 307C420 410 460 439 529 439Z"/>
<glyph unicode="&#xe7;" horiz-adv-x="459" d="M161 -78L189 -78C230 -78 250 -91 250 -116C250 -160 214 -170 177 -170L120 -170L114 -216L190 -216C259 -216 316 -185 316 -117C316 -73 287 -41 218 -37L222 -8C328 -5 387 50 414 191L338 191C319 91 284 58 213 58C147 58 117 85 117 174C117 196 119 222 123 253C141 396 177 439 260 439C331 439 354 411 353 317L429 317C436 445 388 512 264 512C125 512 66 434 43 253C40 225 38 198 38 175C38 53 86 0 190 -7Z"/>
<glyph unicode="&#xe8;" horiz-adv-x="467" d="M213 -8C332 -8 386 49 409 149L337 149C320 82 288 58 219 58C151 58 118 81 118 174C118 194 119 217 123 245L424 245L426 264C446 429 403 512 266 512C129 512 66 435 44 253C40 225 38 201 38 177C38 47 94 -8 213 -8ZM262 439C334 439 363 409 356 307L132 307C153 410 193 439 262 439ZM247 568L309 568L249 724L164 724Z"/>
<glyph unicode="&#xe9;" horiz-adv-x="467" d="M213 -8C332 -8 386 49 409 149L337 149C320 82 288 58 219 58C151 58 118 81 118 174C118 194 119 217 123 245L424 245L426 264C446 429 403 512 266 512C129 512 66 435 44 253C40 225 38 201 38 177C38 47 94 -8 213 -8ZM262 439C334 439 363 409 356 307L132 307C153 410 193 439 262 439ZM227 568L295 568L418 724L327 724Z"/>
<glyph unicode="&#xea;" horiz-adv-x="467" d="M213 -8C332 -8 386 49 409 149L337 149C320 82 288 58 219 58C151 58 118 81 118 174C118 194 119 217 123 245L424 245L426 264C446 429 403 512 266 512C129 512 66 435 44 253C40 225 38 201 38 177C38 47 94 -8 213 -8ZM262 439C334 439 363 409 356 307L132 307C153 410 193 439 262 439ZM132 568L205 568L289 678L345 568L412 568L327 724L256 724Z"/>
<glyph unicode="&#xeb;" horiz-adv-x="467" d="M213 -8C332 -8 386 49 409 149L337 149C320 82 288 58 219 58C151 58 118 81 118 174C118 194 119 217 123 245L424 245L426 264C446 429 403 512 266 512C129 512 66 435 44 253C40 225 38 201 38 177C38 47 94 -8 213 -8ZM262 439C334 439 363 409 356 307L132 307C153 410 193 439 262 439ZM319 597L399 597L410 691L330 691ZM151 597L231 597L242 691L163 691Z"/>
<glyph unicode="&#xec;" horiz-adv-x="216" d="M37 0L117 0L179 504L99 504ZM123 568L185 568L125 724L40 724Z"/>
<glyph unicode="&#xed;" horiz-adv-x="216" d="M37 0L117 0L179 504L99 504ZM103 568L171 568L294 724L203 724Z"/>
<glyph unicode="&#xee;" horiz-adv-x="216" d="M37 0L117 0L179 504L99 504ZM8 568L81 568L165 678L221 568L288 568L203 724L132 724Z"/>
<glyph unicode="&#xef;" horiz-adv-x="216" d="M37 0L117 0L179 504L99 504ZM195 597L275 597L286 691L206 691ZM27 597L107 597L118 691L39 691Z"/>
<glyph unicode="&#xf0;" horiz-adv-x="486" d="M148 520L304 581C325 538 341 502 352 467C328 488 298 496 263 496C126 496 67 422 43 243C40 216 38 195 38 172C38 43 97 -8 218 -8C351 -8 417 70 440 247C443 274 444 299 444 326C444 431 417 524 374 608L504 659L510 712L352 650L319 712L235 712L282 622L154 572ZM122 236C138 383 177 423 263 423C332 423 363 395 363 308C363 287 362 263 358 236C340 99 303 58 217 58C148 58 117 81 117 165C117 185 119 209 122 236Z"/>
<glyph unicode="&#xf1;" horiz-adv-x="496" d="M37 0L117 0L155 317C166 408 204 439 276 439C347 439 371 406 360 317L321 0L401 0L442 334C456 447 406 512 298 512C236 512 193 489 168 443L176 504L99 504ZM160 584L215 584L220 622C222 639 229 647 241 647C270 647 294 584 345 584C384 584 409 603 416 654L423 705L367 705L363 666C361 649 354 641 343 641C310 641 289 705 238 705C198 705 173 686 166 635Z"/>
<glyph unicode="&#xf2;" horiz-adv-x="484" d="M214 -8C357 -8 416 68 440 249C443 276 445 303 445 326C445 457 392 512 269 512C125 512 68 436 44 255C40 228 38 201 38 176C38 47 91 -8 214 -8ZM217 58C148 58 118 88 118 176C118 197 120 223 124 252C142 395 179 439 265 439C334 439 365 411 365 324C365 303 363 279 360 252C341 106 303 58 217 58ZM251 568L313 568L253 724L168 724Z"/>
<glyph unicode="&#xf3;" horiz-adv-x="484" d="M214 -8C357 -8 416 68 440 249C443 276 445 303 445 326C445 457 392 512 269 512C125 512 68 436 44 255C40 228 38 201 38 176C38 47 91 -8 214 -8ZM217 58C148 58 118 88 118 176C118 197 120 223 124 252C142 395 179 439 265 439C334 439 365 411 365 324C365 303 363 279 360 252C341 106 303 58 217 58ZM231 568L299 568L422 724L331 724Z"/>
<glyph unicode="&#xf4;" horiz-adv-x="484" d="M214 -8C357 -8 416 68 440 249C443 276 445 303 445 326C445 457 392 512 269 512C125 512 68 436 44 255C40 228 38 201 38 176C38 47 91 -8 214 -8ZM217 58C148 58 118 88 118 176C118 197 120 223 124 252C142 395 179 439 265 439C334 439 365 411 365 324C365 303 363 279 360 252C341 106 303 58 217 58ZM136 568L209 568L293 678L349 568L416 568L331 724L260 724Z"/>
<glyph unicode="&#xf5;" horiz-adv-x="484" d="M214 -8C357 -8 416 68 440 249C443 276 445 303 445 326C445 457 392 512 269 512C125 512 68 436 44 255C40 228 38 201 38 176C38 47 91 -8 214 -8ZM217 58C148 58 118 88 118 176C118 197 120 223 124 252C142 395 179 439 265 439C334 439 365 411 365 324C365 303 363 279 360 252C341 106 303 58 217 58ZM154 584L209 584L214 622C216 639 223 647 235 647C264 647 288 584 339 584C378 584 403 603 410 654L417 705L361 705L357 666C355 649 348 641 337 641C304 641 283 705 232 705C192 705 167 686 160 635Z"/>
<glyph unicode="&#xf6;" horiz-adv-x="484" d="M214 -8C357 -8 416 68 440 249C443 276 445 303 445 326C445 457 392 512 269 512C125 512 68 436 44 255C40 228 38 201 38 176C38 47 91 -8 214 -8ZM217 58C148 58 118 88 118 176C118 197 120 223 124 252C142 395 179 439 265 439C334 439 365 411 365 324C365 303 363 279 360 252C341 106 303 58 217 58ZM323 597L403 597L414 691L334 691ZM155 597L235 597L246 691L167 691Z"/>
<glyph unicode="&#xf7;" horiz-adv-x="560" d="M275 473L341 473L354 580L288 580ZM57 257L505 257L513 323L65 323ZM217 0L283 0L296 107L230 107Z"/>
<glyph unicode="&#xf8;" horiz-adv-x="494" d="M8 0L70 57C97 14 146 -8 219 -8C363 -8 421 67 445 248C449 275 451 300 451 325C451 352 448 377 443 400L478 433L487 504L424 446C397 490 347 512 274 512C131 512 70 437 49 256C46 228 44 200 44 177C44 148 46 123 51 104L16 71ZM223 58C172 58 144 73 131 113L371 334L371 324C371 303 369 279 365 252C346 106 309 58 223 58ZM124 176C124 199 126 223 129 252C146 395 184 439 270 439C318 439 347 425 362 389L124 170Z"/>
<glyph unicode="&#xf9;" horiz-adv-x="496" d="M95 504L53 170C39 57 89 -8 197 -8C258 -8 302 15 327 60L320 0L397 0L459 504L379 504L339 186C327 91 287 58 219 58C147 58 125 97 136 186L175 504ZM256 568L318 568L258 724L173 724Z"/>
<glyph unicode="&#xfa;" horiz-adv-x="496" d="M95 504L53 170C39 57 89 -8 197 -8C258 -8 302 15 327 60L320 0L397 0L459 504L379 504L339 186C327 91 287 58 219 58C147 58 125 97 136 186L175 504ZM236 568L304 568L427 724L336 724Z"/>
<glyph unicode="&#xfb;" horiz-adv-x="496" d="M95 504L53 170C39 57 89 -8 197 -8C258 -8 302 15 327 60L320 0L397 0L459 504L379 504L339 186C327 91 287 58 219 58C147 58 125 97 136 186L175 504ZM141 568L214 568L298 678L354 568L421 568L336 724L265 724Z"/>
<glyph unicode="&#xfc;" horiz-adv-x="496" d="M95 504L53 170C39 57 89 -8 197 -8C258 -8 302 15 327 60L320 0L397 0L459 504L379 504L339 186C327 91 287 58 219 58C147 58 125 97 136 186L175 504ZM328 597L408 597L419 691L339 691ZM160 597L240 597L251 691L172 691Z"/>
<glyph unicode="&#xfd;" horiz-adv-x="440" d="M-9 -142L-17 -208L28 -208C123 -208 155 -158 197 -67L460 504L382 504L207 116L127 504L46 504L154 0L126 -62C99 -122 72 -142 29 -142ZM222 568L290 568L413 724L322 724Z"/>
<glyph unicode="&#xfe;" horiz-adv-x="509" d="M12 -208L91 -208L124 63C143 14 186 -8 247 -8C381 -8 440 67 464 248C468 275 470 300 470 324C470 453 415 512 304 512C243 512 199 489 170 444L204 712L124 712ZM242 58C171 58 143 88 143 176C143 199 145 223 148 252C165 395 203 439 289 439C358 439 390 411 390 324C390 303 388 279 385 252C366 106 328 58 242 58Z"/>
<glyph unicode="&#xff;" horiz-adv-x="440" d="M-9 -142L-17 -208L28 -208C123 -208 155 -158 197 -67L460 504L382 504L207 116L127 504L46 504L154 0L126 -62C99 -122 72 -142 29 -142ZM314 597L394 597L405 691L325 691ZM146 597L226 597L237 691L158 691Z"/>
<glyph unicode="&#x100;" horiz-adv-x="562" d="M-17 0L61 0L134 172L404 172L436 0L518 0L382 712L292 712ZM324 614L392 242L164 242ZM215 825L477 825L484 883L222 883Z"/>
<glyph unicode="&#x101;" horiz-adv-x="454" d="M161 -8C226 -8 267 23 290 60L283 0L360 0L401 344C413 443 375 512 252 512C121 512 78 453 62 345L135 345C146 418 173 442 244 442C317 442 328 405 320 334L316 302L240 290C123 271 22 240 22 116C22 39 73 -8 161 -8ZM179 57C128 57 103 81 103 128C103 206 178 221 239 229L309 239L300 166C291 98 246 57 179 57ZM137 617L399 617L406 675L144 675Z"/>
<glyph unicode="&#x102;" horiz-adv-x="562" d="M-17 0L61 0L134 172L404 172L436 0L518 0L382 712L292 712ZM324 614L392 242L164 242ZM343 769C424 769 470 814 485 914L436 914C425 847 397 821 346 821C295 821 272 847 279 914L230 914C221 815 267 769 343 769Z"/>
<glyph unicode="&#x103;" horiz-adv-x="454" d="M161 -8C226 -8 267 23 290 60L283 0L360 0L401 344C413 443 375 512 252 512C121 512 78 453 62 345L135 345C146 418 173 442 244 442C317 442 328 405 320 334L316 302L240 290C123 271 22 240 22 116C22 39 73 -8 161 -8ZM179 57C128 57 103 81 103 128C103 206 178 221 239 229L309 239L300 166C291 98 246 57 179 57ZM265 561C346 561 392 606 407 706L358 706C347 639 319 613 268 613C217 613 194 639 201 706L152 706C143 607 189 561 265 561Z"/>
<glyph unicode="&#x104;" horiz-adv-x="562" d="M512 -216L518 -165L480 -165C447 -165 431 -151 431 -122C431 -79 473 -41 518 0L382 712L292 712L-17 0L61 0L134 172L404 172L436 0L476 0C431 -40 372 -78 372 -139C372 -187 407 -216 475 -216ZM324 614L392 242L164 242Z"/>
<glyph unicode="&#x105;" horiz-adv-x="454" d="M161 -8C226 -8 267 23 290 60L283 0L317 0C271 -41 214 -77 214 -139C214 -187 248 -216 316 -216L354 -216L360 -165L322 -165C289 -165 272 -151 272 -122C272 -78 313 -41 360 0L401 344C413 443 375 512 252 512C121 512 78 453 62 345L135 345C146 418 173 442 244 442C317 442 328 405 320 334L316 302L240 290C123 271 22 240 22 116C22 39 73 -8 161 -8ZM300 166C292 98 246 57 179 57C128 57 103 81 103 128C103 204 178 221 239 229L309 239Z"/>
<glyph unicode="&#x106;" horiz-adv-x="590" d="M288 -12C448 -12 518 64 550 259L471 259C442 110 406 54 287 54C178 54 137 91 137 219C137 258 141 304 148 361C175 584 221 648 360 648C479 648 502 599 494 451L572 451C585 636 544 724 360 724C162 724 95 625 63 361C57 313 54 270 54 233C54 54 117 -12 288 -12ZM326 776L394 776L517 932L426 932Z"/>
<glyph unicode="&#x107;" horiz-adv-x="459" d="M215 -8C326 -8 387 47 414 191L338 191C319 91 284 58 213 58C147 58 117 85 117 174C117 196 119 222 123 253C141 396 177 439 260 439C331 439 354 411 353 317L429 317C436 445 388 512 264 512C125 512 66 434 43 253C40 225 38 198 38 175C38 44 94 -8 215 -8ZM232 568L300 568L423 724L332 724Z"/>
<glyph unicode="&#x108;" horiz-adv-x="590" d="M288 -12C448 -12 518 64 550 259L471 259C442 110 406 54 287 54C178 54 137 91 137 219C137 258 141 304 148 361C175 584 221 648 360 648C479 648 502 599 494 451L572 451C585 636 544 724 360 724C162 724 95 625 63 361C57 313 54 270 54 233C54 54 117 -12 288 -12ZM231 776L304 776L388 886L444 776L511 776L426 932L355 932Z"/>
<glyph unicode="&#x109;" horiz-adv-x="459" d="M215 -8C326 -8 387 47 414 191L338 191C319 91 284 58 213 58C147 58 117 85 117 174C117 196 119 222 123 253C141 396 177 439 260 439C331 439 354 411 353 317L429 317C436 445 388 512 264 512C125 512 66 434 43 253C40 225 38 198 38 175C38 44 94 -8 215 -8ZM137 568L210 568L294 678L350 568L417 568L332 724L261 724Z"/>
<glyph unicode="&#x10a;" horiz-adv-x="590" d="M288 -12C448 -12 518 64 550 259L471 259C442 110 406 54 287 54C178 54 137 91 137 219C137 258 141 304 148 361C175 584 221 648 360 648C479 648 502 599 494 451L572 451C585 636 544 724 360 724C162 724 95 625 63 361C57 313 54 270 54 233C54 54 117 -12 288 -12ZM334 805L414 805L425 899L345 899Z"/>
<glyph unicode="&#x10b;" horiz-adv-x="459" d="M215 -8C326 -8 387 47 414 191L338 191C319 91 284 58 213 58C147 58 117 85 117 174C117 196 119 222 123 253C141 396 177 439 260 439C331 439 354 411 353 317L429 317C436 445 388 512 264 512C125 512 66 434 43 253C40 225 38 198 38 175C38 44 94 -8 215 -8ZM240 597L320 597L331 691L251 691Z"/>
<glyph unicode="&#x10c;" horiz-adv-x="590" d="M288 -12C448 -12 518 64 550 259L471 259C442 110 406 54 287 54C178 54 137 91 137 219C137 258 141 304 148 361C175 584 221 648 360 648C479 648 502 599 494 451L572 451C585 636 544 724 360 724C162 724 95 625 63 361C57 313 54 270 54 233C54 54 117 -12 288 -12ZM336 776L407 776L532 932L458 932L374 822L318 932L251 932Z"/>
<glyph unicode="&#x10d;" horiz-adv-x="459" d="M215 -8C326 -8 387 47 414 191L338 191C319 91 284 58 213 58C147 58 117 85 117 174C117 196 119 222 123 253C141 396 177 439 260 439C331 439 354 411 353 317L429 317C436 445 388 512 264 512C125 512 66 434 43 253C40 225 38 198 38 175C38 44 94 -8 215 -8ZM242 568L313 568L438 724L364 724L280 614L224 724L157 724Z"/>
<glyph unicode="&#x10e;" horiz-adv-x="615" d="M51 0L283 0C483 0 547 96 579 358C584 401 586 437 586 472C586 644 516 712 351 712L138 712ZM351 636C463 636 503 597 503 478C503 446 500 407 494 361C465 129 421 66 281 66L142 66L211 636ZM323 776L394 776L519 932L445 932L361 822L305 932L238 932Z"/>
<glyph unicode="&#x10f;" horiz-adv-x="512" d="M204 -8C265 -8 310 16 339 65L332 0L409 0L496 712L416 712L383 443C363 491 322 512 263 512C130 512 65 437 44 256C40 227 38 200 38 176C38 49 91 -8 204 -8ZM217 58C148 58 118 88 118 176C118 197 120 223 124 252C142 395 179 439 265 439C334 439 365 411 365 324C365 303 363 279 360 252C341 106 303 58 217 58ZM537 712L518 560L553 560L610 660L617 712Z"/>
<glyph unicode="&#x110;" horiz-adv-x="633" d="M41 334L101 334L60 0L300 0C500 0 564 96 596 358C601 401 604 436 604 471C604 643 534 712 368 712L147 712L108 397L49 397ZM368 636C480 636 520 597 520 478C520 446 517 407 511 361C482 129 438 66 298 66L151 66L184 334L330 334L338 397L191 397L220 636Z"/>
<glyph unicode="&#x111;" horiz-adv-x="508" d="M279 581L400 581L383 443C363 491 322 512 263 512C130 512 65 437 44 256C40 227 38 200 38 176C38 49 91 -8 204 -8C265 -8 310 16 339 65L332 0L409 0L480 581L541 581L548 639L487 639L496 712L416 712L407 639L286 639ZM217 58C148 58 118 88 118 176C118 197 120 223 124 252C142 395 179 439 265 439C334 439 365 411 365 324C365 303 363 279 360 252C341 106 303 58 217 58Z"/>
<glyph unicode="&#x112;" horiz-adv-x="510" d="M51 0L432 0L440 66L142 66L174 331L448 331L457 401L183 401L211 636L510 636L519 712L138 712ZM216 825L478 825L485 883L223 883Z"/>
<glyph unicode="&#x113;" horiz-adv-x="467" d="M213 -8C332 -8 386 49 409 149L337 149C320 82 288 58 219 58C151 58 118 81 118 174C118 194 119 217 123 245L424 245L426 264C446 429 403 512 266 512C129 512 66 435 44 253C40 225 38 201 38 177C38 47 94 -8 213 -8ZM262 439C334 439 363 409 356 307L132 307C153 410 193 439 262 439ZM147 617L409 617L416 675L154 675Z"/>
<glyph unicode="&#x114;" horiz-adv-x="510" d="M51 0L432 0L440 66L142 66L174 331L448 331L457 401L183 401L211 636L510 636L519 712L138 712ZM344 769C425 769 471 814 486 914L437 914C426 847 398 821 347 821C296 821 273 847 280 914L231 914C222 815 268 769 344 769Z"/>
<glyph unicode="&#x115;" horiz-adv-x="467" d="M213 -8C332 -8 386 49 409 149L337 149C320 82 288 58 219 58C151 58 118 81 118 174C118 194 119 217 123 245L424 245L426 264C446 429 403 512 266 512C129 512 66 435 44 253C40 225 38 201 38 177C38 47 94 -8 213 -8ZM262 439C334 439 363 409 356 307L132 307C153 410 193 439 262 439ZM275 561C356 561 402 606 417 706L368 706C357 639 329 613 278 613C227 613 204 639 211 706L162 706C153 607 199 561 275 561Z"/>
<glyph unicode="&#x116;" horiz-adv-x="510" d="M51 0L432 0L440 66L142 66L174 331L448 331L457 401L183 401L211 636L510 636L519 712L138 712ZM304 805L384 805L395 899L315 899Z"/>
<glyph unicode="&#x117;" horiz-adv-x="467" d="M213 -8C332 -8 386 49 409 149L337 149C320 82 288 58 219 58C151 58 118 81 118 174C118 194 119 217 123 245L424 245L426 264C446 429 403 512 266 512C129 512 66 435 44 253C40 225 38 201 38 177C38 47 94 -8 213 -8ZM262 439C334 439 363 409 356 307L132 307C153 410 193 439 262 439ZM235 597L315 597L326 691L246 691Z"/>
<glyph unicode="&#x118;" horiz-adv-x="510" d="M51 0L369 0C323 -41 266 -77 266 -139C266 -187 300 -216 368 -216L405 -216L411 -165L374 -165C341 -165 324 -151 324 -122C324 -78 366 -41 411 0L432 0L440 66L142 66L174 331L448 331L457 401L183 401L211 636L510 636L519 712L138 712Z"/>
<glyph unicode="&#x119;" horiz-adv-x="467" d="M271 -216L308 -216L314 -165L276 -165C244 -165 226 -151 226 -122C230 -74 268 -42 313 0L355 40C382 65 398 103 409 149L337 149C320 82 288 58 219 58C151 58 118 81 118 174C118 194 119 217 123 245L424 245L426 264C446 429 403 512 266 512C129 512 66 435 44 253C40 225 38 201 38 177C38 47 94 -8 213 -8C232 -8 250 -6 266 -3C221 -42 168 -80 168 -139C168 -187 203 -216 271 -216ZM262 439C334 439 363 409 356 307L132 307C153 410 193 439 262 439Z"/>
<glyph unicode="&#x11a;" horiz-adv-x="510" d="M51 0L432 0L440 66L142 66L174 331L448 331L457 401L183 401L211 636L510 636L519 712L138 712ZM306 776L377 776L502 932L428 932L344 822L288 932L221 932Z"/>
<glyph unicode="&#x11b;" horiz-adv-x="467" d="M213 -8C332 -8 386 49 409 149L337 149C320 82 288 58 219 58C151 58 118 81 118 174C118 194 119 217 123 245L424 245L426 264C446 429 403 512 266 512C129 512 66 435 44 253C40 225 38 201 38 177C38 47 94 -8 213 -8ZM262 439C334 439 363 409 356 307L132 307C153 410 193 439 262 439ZM237 568L308 568L433 724L359 724L275 614L219 724L152 724Z"/>
<glyph unicode="&#x11c;" horiz-adv-x="598" d="M317 300L479 300L475 268C456 115 408 54 287 54C178 54 137 91 137 219C137 258 141 304 148 361C175 584 221 648 360 648C467 648 502 601 498 488L577 488C582 644 530 724 360 724C161 724 95 625 63 361C57 313 54 270 54 233C54 54 124 -12 289 -12C453 -12 531 77 554 268L566 370L326 370ZM231 776L304 776L388 886L444 776L511 776L426 932L355 932Z"/>
<glyph unicode="&#x11d;" horiz-adv-x="508" d="M204 -8C263 -8 307 15 336 60L324 -39C313 -124 275 -150 199 -150C120 -150 97 -122 102 -50L26 -50C21 -152 60 -216 200 -216C329 -216 389 -158 404 -39L471 504L394 504L385 437C366 489 324 512 263 512C130 512 65 434 44 253C40 224 38 197 38 174C38 47 91 -8 204 -8ZM217 58C148 58 118 88 118 176C118 197 120 223 124 252C142 395 179 439 265 439C334 439 365 411 365 324C365 303 363 279 360 252C341 106 303 58 217 58ZM136 568L209 568L293 678L349 568L416 568L331 724L260 724Z"/>
<glyph unicode="&#x11e;" horiz-adv-x="598" d="M317 300L479 300L475 268C456 115 408 54 287 54C178 54 137 91 137 219C137 258 141 304 148 361C175 584 221 648 360 648C467 648 502 601 498 488L577 488C582 644 530 724 360 724C161 724 95 625 63 361C57 313 54 270 54 233C54 54 124 -12 289 -12C453 -12 531 77 554 268L566 370L326 370ZM374 769C455 769 501 814 516 914L467 914C456 847 428 821 377 821C326 821 303 847 310 914L261 914C252 815 298 769 374 769Z"/>
<glyph unicode="&#x11f;" horiz-adv-x="508" d="M204 -8C263 -8 307 15 336 60L324 -39C313 -124 275 -150 199 -150C120 -150 97 -122 102 -50L26 -50C21 -152 60 -216 200 -216C329 -216 389 -158 404 -39L471 504L394 504L385 437C366 489 324 512 263 512C130 512 65 434 44 253C40 224 38 197 38 174C38 47 91 -8 204 -8ZM217 58C148 58 118 88 118 176C118 197 120 223 124 252C142 395 179 439 265 439C334 439 365 411 365 324C365 303 363 279 360 252C341 106 303 58 217 58ZM279 561C360 561 406 606 421 706L372 706C361 639 333 613 282 613C231 613 208 639 215 706L166 706C157 607 203 561 279 561Z"/>
<glyph unicode="&#x120;" horiz-adv-x="598" d="M317 300L479 300L475 268C456 115 408 54 287 54C178 54 137 91 137 219C137 258 141 304 148 361C175 584 221 648 360 648C467 648 502 601 498 488L577 488C582 644 530 724 360 724C161 724 95 625 63 361C57 313 54 270 54 233C54 54 124 -12 289 -12C453 -12 531 77 554 268L566 370L326 370ZM334 805L414 805L425 899L345 899Z"/>
<glyph unicode="&#x121;" horiz-adv-x="508" d="M204 -8C263 -8 307 15 336 60L324 -39C313 -124 275 -150 199 -150C120 -150 97 -122 102 -50L26 -50C21 -152 60 -216 200 -216C329 -216 389 -158 404 -39L471 504L394 504L385 437C366 489 324 512 263 512C130 512 65 434 44 253C40 224 38 197 38 174C38 47 91 -8 204 -8ZM217 58C148 58 118 88 118 176C118 197 120 223 124 252C142 395 179 439 265 439C334 439 365 411 365 324C365 303 363 279 360 252C341 106 303 58 217 58ZM239 597L319 597L330 691L250 691Z"/>
<glyph unicode="&#x122;" horiz-adv-x="598" d="M317 300L479 300L475 268C456 115 408 54 287 54C178 54 137 91 137 219C137 258 141 304 148 361C175 584 221 648 360 648C467 648 502 601 498 488L577 488C582 644 530 724 360 724C161 724 95 625 63 361C57 313 54 270 54 233C54 54 124 -12 289 -12C453 -12 531 77 554 268L566 370L326 370ZM233 -56L214 -208L249 -208L306 -108L313 -56Z"/>
<glyph unicode="&#x123;" horiz-adv-x="508" d="M204 -8C263 -8 307 15 336 60L324 -39C313 -124 275 -150 199 -150C120 -150 97 -122 102 -50L26 -50C21 -152 60 -216 200 -216C329 -216 389 -158 404 -39L471 504L394 504L385 437C366 489 324 512 263 512C130 512 65 434 44 253C40 224 38 197 38 174C38 47 91 -8 204 -8ZM217 58C148 58 118 88 118 176C118 197 120 223 124 252C142 395 179 439 265 439C334 439 365 411 365 324C365 303 363 279 360 252C341 106 303 58 217 58ZM238 560L317 560L336 712L300 712L244 612Z"/>
<glyph unicode="&#x124;" horiz-adv-x="638" d="M51 0L134 0L174 330L483 330L443 0L526 0L613 712L530 712L492 401L183 401L221 712L138 712ZM243 776L316 776L400 886L456 776L523 776L438 932L367 932Z"/>
<glyph unicode="&#x125;" horiz-adv-x="496" d="M37 0L117 0L155 317C166 409 204 439 276 439C347 439 371 406 360 317L321 0L401 0L442 334C456 447 406 512 298 512C239 512 197 491 172 449L204 712L124 712ZM32 776L105 776L189 886L245 776L312 776L227 932L156 932Z"/>
<glyph unicode="&#x126;" horiz-adv-x="639" d="M63 525L115 525L51 0L134 0L174 330L483 330L443 0L526 0L590 525L641 525L649 588L597 588L613 712L530 712L514 588L205 588L221 712L138 712L122 588L72 588ZM198 525L507 525L492 401L183 401Z"/>
<glyph unicode="&#x127;" horiz-adv-x="496" d="M47 581L108 581L37 0L117 0L155 317C166 409 204 439 276 439C347 439 371 406 360 317L321 0L401 0L442 334C456 447 406 512 298 512C239 512 197 491 172 449L188 581L309 581L316 639L195 639L204 712L124 712L115 639L54 639Z"/>
<glyph unicode="&#x128;" horiz-adv-x="246" d="M51 0L134 0L221 712L138 712ZM61 792L116 792L121 830C123 847 130 855 142 855C171 855 195 792 246 792C285 792 310 811 317 862L324 913L268 913L264 874C262 857 255 849 244 849C211 849 190 913 139 913C99 913 74 894 67 843Z"/>
<glyph unicode="&#x129;" horiz-adv-x="216" d="M37 0L117 0L179 504L99 504ZM26 584L81 584L86 622C88 639 95 647 107 647C136 647 160 584 211 584C250 584 275 603 282 654L289 705L233 705L229 666C227 649 220 641 209 641C176 641 155 705 104 705C64 705 39 686 32 635Z"/>
<glyph unicode="&#x12a;" horiz-adv-x="246" d="M51 0L134 0L221 712L138 712ZM58 825L320 825L327 883L65 883Z"/>
<glyph unicode="&#x12b;" horiz-adv-x="216" d="M37 0L117 0L179 504L99 504ZM23 617L285 617L292 675L30 675Z"/>
<glyph unicode="&#x12c;" horiz-adv-x="246" d="M51 0L134 0L221 712L138 712ZM186 769C267 769 313 814 328 914L279 914C268 847 240 821 189 821C138 821 115 847 122 914L73 914C64 815 110 769 186 769Z"/>
<glyph unicode="&#x12d;" horiz-adv-x="216" d="M37 0L117 0L179 504L99 504ZM151 561C232 561 278 606 293 706L244 706C233 639 205 613 154 613C103 613 80 639 87 706L38 706C29 607 75 561 151 561Z"/>
<glyph unicode="&#x12e;" horiz-adv-x="246" d="M51 0L91 0C45 -41 -12 -77 -12 -139C-12 -187 23 -216 91 -216L128 -216L134 -165L96 -165C63 -165 46 -151 46 -122C46 -79 89 -41 134 0L221 712L138 712Z"/>
<glyph unicode="&#x12f;" horiz-adv-x="216" d="M37 0L75 0C27 -40 -29 -78 -29 -139C-29 -187 6 -216 74 -216L111 -216L117 -165L79 -165C46 -165 30 -151 30 -122C30 -78 72 -41 117 0L179 504L99 504ZM113 618L192 618L204 712L124 712Z"/>
<glyph unicode="&#x130;" horiz-adv-x="246" d="M51 0L134 0L221 712L138 712ZM146 805L226 805L237 899L157 899Z"/>
<glyph unicode="&#x131;" horiz-adv-x="216" d="M37 0L117 0L179 504L99 504Z"/>
<glyph unicode="&#x132;" horiz-adv-x="616" d="M51 0L134 0L221 712L138 712ZM226 66L219 0L307 0C455 0 516 61 532 192L596 712L513 712L449 190C438 103 396 66 305 66Z"/>
<glyph unicode="&#x133;" horiz-adv-x="418" d="M113 618L192 618L204 712L124 712ZM37 0L117 0L179 504L99 504ZM315 618L394 618L406 712L326 712ZM229 -77C223 -125 202 -142 158 -142L133 -142L124 -208L167 -208C256 -208 299 -160 310 -72L381 504L301 504Z"/>
<glyph unicode="&#x134;" horiz-adv-x="385" d="M-5 66L-12 0L76 0C224 0 285 61 301 192L365 712L282 712L218 190C207 103 165 66 74 66ZM191 776L264 776L348 886L404 776L471 776L386 932L315 932Z"/>
<glyph unicode="&#x135;" horiz-adv-x="216" d="M27 -77C20 -125 1 -142 -43 -142L-69 -142L-78 -208L-36 -208C53 -208 97 -160 108 -72L179 504L99 504ZM8 568L81 568L165 678L221 568L288 568L203 724L132 724Z"/>
<glyph unicode="&#x136;" horiz-adv-x="567" d="M51 0L134 0L160 212L275 340L439 0L528 0L335 401L617 712L522 712L174 327L221 712L138 712ZM231 -56L212 -208L247 -208L304 -108L311 -56Z"/>
<glyph unicode="&#x137;" horiz-adv-x="454" d="M37 0L117 0L136 155L215 235L327 0L413 0L272 291L475 504L381 504L148 259L204 712L124 712ZM173 -56L154 -208L189 -208L246 -108L253 -56Z"/>
<glyph unicode="&#x139;" horiz-adv-x="477" d="M51 0L432 0L440 66L142 66L221 712L138 712ZM143 776L211 776L334 932L243 932Z"/>
<glyph unicode="&#x13a;" horiz-adv-x="216" d="M37 0L117 0L204 712L124 712ZM124 776L192 776L315 932L224 932Z"/>
<glyph unicode="&#x13b;" horiz-adv-x="477" d="M51 0L432 0L440 66L142 66L221 712L138 712ZM193 -56L174 -208L209 -208L266 -108L273 -56Z"/>
<glyph unicode="&#x13c;" horiz-adv-x="216" d="M37 0L117 0L204 712L124 712ZM32 -56L13 -208L48 -208L105 -108L112 -56Z"/>
<glyph unicode="&#x13d;" horiz-adv-x="478" d="M51 0L432 0L440 66L142 66L221 712L138 712ZM369 712L350 560L385 560L442 660L449 712Z"/>
<glyph unicode="&#x13e;" horiz-adv-x="220" d="M37 0L117 0L204 712L124 712ZM247 712L228 560L263 560L320 660L327 712Z"/>
<glyph unicode="&#x13f;" horiz-adv-x="480" d="M51 0L432 0L440 66L142 66L221 712L138 712ZM340 327L420 327L431 421L351 421Z"/>
<glyph unicode="&#x140;" horiz-adv-x="251" d="M37 0L117 0L204 712L124 712ZM202 327L282 327L293 421L213 421Z"/>
<glyph unicode="&#x141;" horiz-adv-x="487" d="M12 198L92 254L61 0L442 0L449 66L151 66L182 318L382 460L392 535L191 393L230 712L148 712L101 329L22 273Z"/>
<glyph unicode="&#x142;" horiz-adv-x="269" d="M23 256L103 312L65 0L145 0L191 374L272 432L281 498L199 440L232 712L152 712L111 379L30 322Z"/>
<glyph unicode="&#x143;" horiz-adv-x="638" d="M51 0L134 0L201 549L453 0L526 0L613 712L530 712L462 162L211 712L138 712ZM343 776L411 776L534 932L443 932Z"/>
<glyph unicode="&#x144;" horiz-adv-x="496" d="M37 0L117 0L155 317C166 408 204 439 276 439C347 439 371 406 360 317L321 0L401 0L442 334C456 447 406 512 298 512C236 512 193 489 168 443L176 504L99 504ZM237 568L305 568L428 724L337 724Z"/>
<glyph unicode="&#x145;" horiz-adv-x="638" d="M51 0L134 0L201 549L453 0L526 0L613 712L530 712L462 162L211 712L138 712ZM250 -56L231 -208L266 -208L323 -108L330 -56Z"/>
<glyph unicode="&#x146;" horiz-adv-x="496" d="M37 0L117 0L155 317C166 408 204 439 276 439C347 439 371 406 360 317L321 0L401 0L442 334C456 447 406 512 298 512C236 512 193 489 168 443L176 504L99 504ZM172 -56L153 -208L188 -208L245 -108L252 -56Z"/>
<glyph unicode="&#x147;" horiz-adv-x="638" d="M51 0L134 0L201 549L453 0L526 0L613 712L530 712L462 162L211 712L138 712ZM353 776L424 776L549 932L475 932L391 822L335 932L268 932Z"/>
<glyph unicode="&#x148;" horiz-adv-x="496" d="M37 0L117 0L155 317C166 408 204 439 276 439C347 439 371 406 360 317L321 0L401 0L442 334C456 447 406 512 298 512C236 512 193 489 168 443L176 504L99 504ZM247 568L318 568L443 724L369 724L285 614L229 724L162 724Z"/>
<glyph unicode="&#x149;" horiz-adv-x="496" d="M37 0L117 0L155 317C166 408 204 439 276 439C347 439 371 406 360 317L321 0L401 0L442 334C456 447 406 512 298 512C236 512 193 489 168 443L176 504L99 504ZM111 560L146 560L203 660L210 712L130 712Z"/>
<glyph unicode="&#x14a;" horiz-adv-x="638" d="M51 0L134 0L201 549L444 18L440 -20C429 -108 394 -142 310 -142L260 -142L251 -208L302 -208C445 -208 507 -148 523 -17L613 712L530 712L462 162L211 712L138 712Z"/>
<glyph unicode="&#x14b;" horiz-adv-x="496" d="M214 -142L205 -208L247 -208C338 -208 381 -160 392 -72L442 334C456 447 406 512 298 512C236 512 193 489 168 443L176 504L99 504L37 0L117 0L155 317C166 408 208 439 276 439C347 439 371 406 360 317L311 -77C305 -125 283 -142 239 -142Z"/>
<glyph unicode="&#x14c;" horiz-adv-x="623" d="M288 -12C489 -12 554 84 587 358C592 403 595 443 595 479C595 654 525 724 360 724C162 724 95 628 63 364C57 316 54 273 54 236C54 57 124 -12 288 -12ZM287 54C178 54 137 91 137 219C137 258 141 304 148 361C175 584 221 648 360 648C470 648 511 609 511 486C511 451 507 410 501 361C469 116 428 54 287 54ZM252 825L514 825L521 883L259 883Z"/>
<glyph unicode="&#x14d;" horiz-adv-x="484" d="M214 -8C357 -8 416 68 440 249C443 276 445 303 445 326C445 457 392 512 269 512C125 512 68 436 44 255C40 228 38 201 38 176C38 47 91 -8 214 -8ZM217 58C148 58 118 88 118 176C118 197 120 223 124 252C142 395 179 439 265 439C334 439 365 411 365 324C365 303 363 279 360 252C341 106 303 58 217 58ZM151 617L413 617L420 675L158 675Z"/>
<glyph unicode="&#x14e;" horiz-adv-x="623" d="M288 -12C489 -12 554 84 587 358C592 403 595 443 595 479C595 654 525 724 360 724C162 724 95 628 63 364C57 316 54 273 54 236C54 57 124 -12 288 -12ZM287 54C178 54 137 91 137 219C137 258 141 304 148 361C175 584 221 648 360 648C470 648 511 609 511 486C511 451 507 410 501 361C469 116 428 54 287 54ZM380 769C461 769 507 814 522 914L473 914C462 847 434 821 383 821C332 821 309 847 316 914L267 914C258 815 304 769 380 769Z"/>
<glyph unicode="&#x14f;" horiz-adv-x="484" d="M214 -8C357 -8 416 68 440 249C443 276 445 303 445 326C445 457 392 512 269 512C125 512 68 436 44 255C40 228 38 201 38 176C38 47 91 -8 214 -8ZM217 58C148 58 118 88 118 176C118 197 120 223 124 252C142 395 179 439 265 439C334 439 365 411 365 324C365 303 363 279 360 252C341 106 303 58 217 58ZM279 561C360 561 406 606 421 706L372 706C361 639 333 613 282 613C231 613 208 639 215 706L166 706C157 607 203 561 279 561Z"/>
<glyph unicode="&#x150;" horiz-adv-x="623" d="M288 -12C489 -12 554 84 587 358C592 403 595 443 595 479C595 654 525 724 360 724C162 724 95 628 63 364C57 316 54 273 54 236C54 57 124 -12 288 -12ZM287 54C178 54 137 91 137 219C137 258 141 304 148 361C175 584 221 648 360 648C470 648 511 609 511 486C511 451 507 410 501 361C469 116 428 54 287 54ZM405 776L473 776L596 932L505 932ZM255 776L323 776L446 932L355 932Z"/>
<glyph unicode="&#x151;" horiz-adv-x="484" d="M214 -8C357 -8 416 68 440 249C443 276 445 303 445 326C445 457 392 512 269 512C125 512 68 436 44 255C40 228 38 201 38 176C38 47 91 -8 214 -8ZM217 58C148 58 118 88 118 176C118 197 120 223 124 252C142 395 179 439 265 439C334 439 365 411 365 324C365 303 363 279 360 252C341 106 303 58 217 58ZM304 568L372 568L495 724L404 724ZM154 568L222 568L345 724L254 724Z"/>
<glyph unicode="&#x152;" horiz-adv-x="887" d="M809 0L817 66L519 66L551 331L825 331L834 401L560 401L588 636L887 636L896 712L358 712C160 712 95 614 63 358C57 314 54 274 54 239C54 66 124 0 290 0ZM138 228C138 264 142 308 149 361C175 572 218 636 359 636L505 636L436 66L288 66C179 66 138 103 138 228Z"/>
<glyph unicode="&#x153;" horiz-adv-x="783" d="M528 -8C647 -8 700 49 723 149L650 149C633 82 602 58 533 58C465 58 435 81 435 174C435 194 436 217 439 245L738 245L740 261C761 426 717 512 579 512C505 512 451 485 417 426C393 484 343 512 266 512C123 512 66 437 44 256C40 228 38 203 38 179C38 51 95 -8 216 -8C294 -8 346 18 381 77C404 18 453 -8 528 -8ZM217 58C148 58 118 89 118 176C118 198 120 223 124 252C141 395 178 439 265 439C334 439 365 411 365 324C365 303 363 279 360 252C342 106 303 58 217 58ZM575 439C648 439 677 409 669 307L448 307C469 410 506 439 575 439Z"/>
<glyph unicode="&#x154;" horiz-adv-x="558" d="M51 0L134 0L168 283L289 283L410 0L499 0L371 293C469 304 522 351 538 491C540 510 541 527 541 543C541 665 479 712 352 712L138 712ZM352 636C426 636 459 615 459 542C459 528 457 513 455 494C442 380 405 352 316 352L177 352L211 636ZM304 776L372 776L495 932L404 932Z"/>
<glyph unicode="&#x155;" horiz-adv-x="310" d="M33 0L113 0L156 360C162 409 190 434 240 434L316 434L325 504L239 504C139 504 87 450 76 354ZM188 568L256 568L379 724L288 724Z"/>
<glyph unicode="&#x156;" horiz-adv-x="558" d="M51 0L134 0L168 283L289 283L410 0L499 0L371 293C469 304 522 351 538 491C540 510 541 527 541 543C541 665 479 712 352 712L138 712ZM352 636C426 636 459 615 459 542C459 528 457 513 455 494C442 380 405 352 316 352L177 352L211 636ZM225 -56L206 -208L241 -208L298 -108L305 -56Z"/>
<glyph unicode="&#x157;" horiz-adv-x="310" d="M33 0L113 0L156 360C162 409 190 434 240 434L316 434L325 504L239 504C139 504 87 450 76 354ZM27 -56L8 -208L43 -208L100 -108L107 -56Z"/>
<glyph unicode="&#x158;" horiz-adv-x="558" d="M51 0L134 0L168 283L289 283L410 0L499 0L371 293C469 304 522 351 538 491C540 510 541 527 541 543C541 665 479 712 352 712L138 712ZM352 636C426 636 459 615 459 542C459 528 457 513 455 494C442 380 405 352 316 352L177 352L211 636ZM314 776L385 776L510 932L436 932L352 822L296 932L229 932Z"/>
<glyph unicode="&#x159;" horiz-adv-x="310" d="M33 0L113 0L156 360C162 409 190 434 240 434L316 434L325 504L239 504C139 504 87 450 76 354ZM198 568L269 568L394 724L320 724L236 614L180 724L113 724Z"/>
<glyph unicode="&#x15a;" horiz-adv-x="543" d="M36 216C24 60 89 -12 249 -12C404 -12 492 69 492 212C492 311 434 356 333 385L278 400C211 419 166 441 166 508C166 603 229 648 314 648C411 648 450 608 445 488L524 488C532 637 486 724 317 724C169 724 82 636 82 498C82 393 149 353 241 327L295 312C366 292 409 268 409 203C409 97 342 54 251 54C146 54 107 100 115 216ZM288 776L356 776L479 932L388 932Z"/>
<glyph unicode="&#x15b;" horiz-adv-x="428" d="M26 143C23 55 59 -8 187 -8C308 -8 374 44 374 153C374 217 340 257 260 277L208 290C153 305 135 322 135 357C135 421 172 442 236 442C300 442 326 425 321 354L394 354C407 472 346 512 238 512C119 512 58 456 58 348C58 277 96 242 161 226L212 213C276 197 296 185 296 146C296 78 255 56 190 56C126 56 96 76 99 143ZM206 568L274 568L397 724L306 724Z"/>
<glyph unicode="&#x15c;" horiz-adv-x="543" d="M36 216C24 60 89 -12 249 -12C404 -12 492 69 492 212C492 311 434 356 333 385L278 400C211 419 166 441 166 508C166 603 229 648 314 648C411 648 450 608 445 488L524 488C532 637 486 724 317 724C169 724 82 636 82 498C82 393 149 353 241 327L295 312C366 292 409 268 409 203C409 97 342 54 251 54C146 54 107 100 115 216ZM193 776L266 776L350 886L406 776L473 776L388 932L317 932Z"/>
<glyph unicode="&#x15d;" horiz-adv-x="428" d="M26 143C23 55 59 -8 187 -8C308 -8 374 44 374 153C374 217 340 257 260 277L208 290C153 305 135 322 135 357C135 421 172 442 236 442C300 442 326 425 321 354L394 354C407 472 346 512 238 512C119 512 58 456 58 348C58 277 96 242 161 226L212 213C276 197 296 185 296 146C296 78 255 56 190 56C126 56 96 76 99 143ZM111 568L184 568L268 678L324 568L391 568L306 724L235 724Z"/>
<glyph unicode="&#x15e;" horiz-adv-x="543" d="M192 -78L220 -78C261 -78 281 -91 281 -116C281 -160 245 -170 208 -170L151 -170L145 -216L221 -216C290 -216 347 -185 347 -117C347 -73 318 -41 249 -37L252 -12C405 -11 492 70 492 212C492 311 434 356 333 385L278 400C211 419 166 441 166 508C166 603 229 648 314 648C411 648 450 608 445 488L524 488C532 637 486 724 317 724C169 724 82 636 82 498C82 393 149 353 241 327L295 312C366 292 409 268 409 203C409 97 342 54 251 54C146 54 107 100 115 216L36 216C25 70 81 -2 219 -11Z"/>
<glyph unicode="&#x15f;" horiz-adv-x="428" d="M134 -78L162 -78C203 -78 223 -91 223 -116C223 -160 187 -170 150 -170L93 -170L87 -216L163 -216C232 -216 289 -185 289 -117C289 -73 260 -41 191 -37L195 -8C311 -5 374 46 374 153C374 217 340 257 260 277L208 290C153 305 135 322 135 357C135 421 172 442 236 442C300 442 326 425 321 354L394 354C407 472 346 512 238 512C119 512 58 456 58 348C58 277 96 242 161 226L212 213C276 197 296 185 296 146C296 78 255 56 190 56C126 56 96 76 99 143L26 143C23 60 54 0 163 -7Z"/>
<glyph unicode="&#x160;" horiz-adv-x="543" d="M36 216C24 60 89 -12 249 -12C404 -12 492 69 492 212C492 311 434 356 333 385L278 400C211 419 166 441 166 508C166 603 229 648 314 648C411 648 450 608 445 488L524 488C532 637 486 724 317 724C169 724 82 636 82 498C82 393 149 353 241 327L295 312C366 292 409 268 409 203C409 97 342 54 251 54C146 54 107 100 115 216ZM298 776L369 776L494 932L420 932L336 822L280 932L213 932Z"/>
<glyph unicode="&#x161;" horiz-adv-x="428" d="M26 143C23 55 59 -8 187 -8C308 -8 374 44 374 153C374 217 340 257 260 277L208 290C153 305 135 322 135 357C135 421 172 442 236 442C300 442 326 425 321 354L394 354C407 472 346 512 238 512C119 512 58 456 58 348C58 277 96 242 161 226L212 213C276 197 296 185 296 146C296 78 255 56 190 56C126 56 96 76 99 143ZM216 568L287 568L412 724L338 724L254 614L198 724L131 724Z"/>
<glyph unicode="&#x162;" horiz-adv-x="522" d="M183 -78L211 -78C252 -78 272 -91 272 -116C272 -160 236 -170 199 -170L142 -170L136 -216L212 -216C281 -216 338 -185 338 -117C338 -73 309 -41 240 -37L245 0L271 0L348 636L551 636L560 712L73 712L64 636L266 636L189 0L215 0Z"/>
<glyph unicode="&#x163;" horiz-adv-x="330" d="M123 -78L151 -78C192 -78 212 -91 212 -116C212 -160 176 -170 139 -170L82 -170L76 -216L152 -216C221 -216 278 -185 278 -117C278 -73 249 -41 180 -37L184 1C192 0 200 0 211 0L281 0L288 66L226 66C162 66 143 90 152 158L186 434L333 434L343 504L194 504L209 624L132 624L117 504L51 504L42 434L106 434L72 155C62 74 90 26 153 7Z"/>
<glyph unicode="&#x164;" horiz-adv-x="522" d="M64 636L266 636L189 0L271 0L348 636L551 636L560 712L73 712ZM293 776L364 776L489 932L415 932L331 822L275 932L208 932Z"/>
<glyph unicode="&#x165;" horiz-adv-x="330" d="M42 434L106 434L72 155C59 52 110 0 211 0L281 0L288 66L226 66C162 66 143 90 152 158L186 434L333 434L343 504L194 504L209 624L132 624L117 504L51 504ZM280 712L261 560L296 560L353 660L360 712Z"/>
<glyph unicode="&#x166;" horiz-adv-x="549" d="M77 636L279 636L250 397L96 397L88 334L243 334L202 0L284 0L325 334L479 334L487 397L332 397L361 636L564 636L574 712L87 712Z"/>
<glyph unicode="&#x167;" horiz-adv-x="338" d="M47 434L110 434L93 292L29 292L22 234L86 234L77 155C64 52 115 0 216 0L285 0L293 66L230 66C167 66 148 90 157 158L166 234L314 234L320 292L173 292L191 434L338 434L347 504L199 504L214 624L137 624L122 504L56 504Z"/>
<glyph unicode="&#x168;" horiz-adv-x="624" d="M73 235C53 67 115 -12 287 -12C458 -12 525 68 546 235L605 712L522 712L464 235C448 102 397 54 288 54C179 54 140 102 156 235L215 712L132 712ZM257 792L312 792L317 830C319 847 326 855 338 855C367 855 391 792 442 792C481 792 506 811 513 862L520 913L464 913L460 874C458 857 451 849 440 849C407 849 386 913 335 913C295 913 270 894 263 843Z"/>
<glyph unicode="&#x169;" horiz-adv-x="496" d="M95 504L53 170C39 57 89 -8 197 -8C258 -8 302 15 327 60L320 0L397 0L459 504L379 504L339 186C327 91 287 58 219 58C147 58 125 97 136 186L175 504ZM159 584L214 584L219 622C221 639 228 647 240 647C269 647 293 584 344 584C383 584 408 603 415 654L422 705L366 705L362 666C360 649 353 641 342 641C309 641 288 705 237 705C197 705 172 686 165 635Z"/>
<glyph unicode="&#x16a;" horiz-adv-x="624" d="M73 235C53 67 115 -12 287 -12C458 -12 525 68 546 235L605 712L522 712L464 235C448 102 397 54 288 54C179 54 140 102 156 235L215 712L132 712ZM254 825L516 825L523 883L261 883Z"/>
<glyph unicode="&#x16b;" horiz-adv-x="496" d="M95 504L53 170C39 57 89 -8 197 -8C258 -8 302 15 327 60L320 0L397 0L459 504L379 504L339 186C327 91 287 58 219 58C147 58 125 97 136 186L175 504ZM156 617L418 617L425 675L163 675Z"/>
<glyph unicode="&#x16c;" horiz-adv-x="624" d="M73 235C53 67 115 -12 287 -12C458 -12 525 68 546 235L605 712L522 712L464 235C448 102 397 54 288 54C179 54 140 102 156 235L215 712L132 712ZM382 769C463 769 509 814 524 914L475 914C464 847 436 821 385 821C334 821 311 847 318 914L269 914C260 815 306 769 382 769Z"/>
<glyph unicode="&#x16d;" horiz-adv-x="496" d="M95 504L53 170C39 57 89 -8 197 -8C258 -8 302 15 327 60L320 0L397 0L459 504L379 504L339 186C327 91 287 58 219 58C147 58 125 97 136 186L175 504ZM284 561C365 561 411 606 426 706L377 706C366 639 338 613 287 613C236 613 213 639 220 706L171 706C162 607 208 561 284 561Z"/>
<glyph unicode="&#x16e;" horiz-adv-x="624" d="M73 235C53 67 115 -12 287 -12C458 -12 525 68 546 235L605 712L522 712L464 235C448 102 397 54 288 54C179 54 140 102 156 235L215 712L132 712ZM383 808C348 808 338 824 338 848C338 891 353 920 397 920C432 920 442 903 442 879C442 836 427 808 383 808ZM382 769C453 769 486 820 486 879C486 930 457 958 398 958C327 958 294 907 294 848C294 797 323 769 382 769Z"/>
<glyph unicode="&#x16f;" horiz-adv-x="496" d="M95 504L53 170C39 57 89 -8 197 -8C258 -8 302 15 327 60L320 0L397 0L459 504L379 504L339 186C327 91 287 58 219 58C147 58 125 97 136 186L175 504ZM285 600C250 600 240 616 240 640C240 683 255 712 299 712C334 712 344 695 344 671C344 628 329 600 285 600ZM284 561C355 561 388 612 388 671C388 722 359 750 300 750C229 750 196 699 196 640C196 589 225 561 284 561Z"/>
<glyph unicode="&#x170;" horiz-adv-x="624" d="M73 235C53 67 115 -12 287 -12C458 -12 525 68 546 235L605 712L522 712L464 235C448 102 397 54 288 54C179 54 140 102 156 235L215 712L132 712ZM407 776L475 776L598 932L507 932ZM257 776L325 776L448 932L357 932Z"/>
<glyph unicode="&#x171;" horiz-adv-x="496" d="M95 504L53 170C39 57 89 -8 197 -8C258 -8 302 15 327 60L320 0L397 0L459 504L379 504L339 186C327 91 287 58 219 58C147 58 125 97 136 186L175 504ZM309 568L377 568L500 724L409 724ZM159 568L227 568L350 724L259 724Z"/>
<glyph unicode="&#x172;" horiz-adv-x="624" d="M369 -216L375 -165L337 -165C304 -165 287 -151 287 -122C287 -79 327 -43 370 -4C481 20 529 98 546 235L605 712L522 712L464 235C448 102 397 54 288 54C179 54 140 102 156 235L215 712L132 712L73 235C52 67 115 -12 287 -12C298 -12 308 -11 319 -11C275 -48 229 -83 229 -139C229 -187 264 -216 332 -216Z"/>
<glyph unicode="&#x173;" horiz-adv-x="496" d="M391 -216L397 -165L359 -165C326 -165 309 -151 309 -122C309 -78 350 -41 397 0L459 504L379 504L339 186C327 91 287 58 219 58C147 58 125 97 136 186L175 504L95 504L53 170C39 57 89 -8 197 -8C258 -8 302 15 327 60L320 0L354 0C308 -41 251 -77 251 -139C251 -187 286 -216 354 -216Z"/>
<glyph unicode="&#x174;" horiz-adv-x="886" d="M168 0L259 0L484 555L568 0L656 0L927 712L848 712L624 110L533 712L472 712L229 107L154 712L72 712ZM367 776L440 776L524 886L580 776L647 776L562 932L491 932Z"/>
<glyph unicode="&#x175;" horiz-adv-x="694" d="M134 0L208 0L360 358L425 0L498 0L712 504L634 504L477 117L408 504L351 504L188 117L126 504L44 504ZM244 568L317 568L401 678L457 568L524 568L439 724L368 724Z"/>
<glyph unicode="&#x176;" horiz-adv-x="543" d="M199 0L282 0L316 294L588 712L502 712L288 378L157 712L68 712L235 298ZM200 776L273 776L357 886L413 776L480 776L395 932L324 932Z"/>
<glyph unicode="&#x177;" horiz-adv-x="440" d="M-9 -142L-17 -208L28 -208C123 -208 155 -158 197 -67L460 504L382 504L207 116L127 504L46 504L154 0L126 -62C99 -122 72 -142 29 -142ZM127 568L200 568L284 678L340 568L407 568L322 724L251 724Z"/>
<glyph unicode="&#x178;" horiz-adv-x="543" d="M199 0L282 0L316 294L588 712L502 712L288 378L157 712L68 712L235 298ZM387 805L467 805L478 899L398 899ZM219 805L299 805L310 899L231 899Z"/>
<glyph unicode="&#x179;" horiz-adv-x="488" d="M76 636L404 636L12 50L7 0L421 0L429 66L111 66L511 662L516 712L85 712ZM265 776L333 776L456 932L365 932Z"/>
<glyph unicode="&#x17a;" horiz-adv-x="399" d="M55 434L287 434L12 46L7 0L331 0L338 66L112 66L392 458L398 504L64 504ZM197 568L265 568L388 724L297 724Z"/>
<glyph unicode="&#x17b;" horiz-adv-x="488" d="M76 636L404 636L12 50L7 0L421 0L429 66L111 66L511 662L516 712L85 712ZM273 805L353 805L364 899L284 899Z"/>
<glyph unicode="&#x17c;" horiz-adv-x="399" d="M55 434L287 434L12 46L7 0L331 0L338 66L112 66L392 458L398 504L64 504ZM205 597L285 597L296 691L216 691Z"/>
<glyph unicode="&#x17d;" horiz-adv-x="488" d="M76 636L404 636L12 50L7 0L421 0L429 66L111 66L511 662L516 712L85 712ZM275 776L346 776L471 932L397 932L313 822L257 932L190 932Z"/>
<glyph unicode="&#x17e;" horiz-adv-x="399" d="M55 434L287 434L12 46L7 0L331 0L338 66L112 66L392 458L398 504L64 504ZM207 568L278 568L403 724L329 724L245 614L189 724L122 724Z"/>
<glyph unicode="&#x17f;" horiz-adv-x="254" d="M45 434L108 434L56 0L136 0L203 556C210 613 237 639 294 639L354 639L363 712L293 712C188 712 136 655 123 554L117 504L54 504Z"/>
<glyph unicode="&#x18f;" horiz-adv-x="607" d="M47 222C47 50 115 -12 271 -12C468 -12 537 76 570 351C575 396 578 437 578 474C578 649 510 724 345 724C176 724 108 645 76 483L156 483C183 606 233 648 342 648C451 648 494 607 494 479C494 448 492 414 487 371L59 371L55 338C50 295 47 257 47 222ZM273 54C173 54 129 87 129 211C129 236 131 267 135 302L477 302C445 102 401 54 273 54Z"/>
<glyph unicode="&#x192;" horiz-adv-x="560" d="M89 331L233 331L190 -21C179 -110 147 -142 70 -142L-3 -142L-12 -208L79 -208C198 -208 257 -147 272 -24L315 331L485 331L494 401L324 401L339 525C350 613 382 639 459 639L533 639L542 712L451 712C331 712 272 651 257 528L241 401L98 401Z"/>
<glyph unicode="&#x1fc;" horiz-adv-x="815" d="M-21 0L63 0L147 172L379 172L358 0L736 0L745 72L450 72L481 326L754 326L762 396L489 396L518 633L814 633L823 712L331 712ZM374 633L435 633L387 242L182 242ZM450 776L518 776L641 932L550 932Z"/>
<glyph unicode="&#x1fd;" horiz-adv-x="734" d="M159 -8C239 -8 296 29 319 82C343 20 395 -8 481 -8C599 -8 654 49 676 149L604 149C587 82 555 58 486 58C418 58 385 81 385 174C385 194 386 217 390 245L691 245L693 264C713 429 670 512 533 512C466 512 417 494 381 454C361 490 320 512 252 512C121 512 78 453 62 345L135 345C146 418 173 442 244 442C317 442 329 406 320 334L316 299L240 287C129 269 22 236 22 113C22 40 73 -8 159 -8ZM178 57C128 57 103 82 103 126C103 203 184 218 238 226L308 236L300 171C290 92 241 57 178 57ZM529 439C601 439 630 409 623 307L399 307C420 410 460 439 529 439ZM350 568L418 568L541 724L450 724Z"/>
<glyph unicode="&#x1fe;" horiz-adv-x="633" d="M11 0L89 78C124 14 189 -12 293 -12C493 -12 559 84 591 358C596 403 599 443 599 479C599 518 596 549 589 578L638 627L648 712L569 633C534 697 469 724 365 724C166 724 100 628 68 364C62 316 59 273 59 236C59 195 62 160 69 133L21 85ZM292 54C211 54 167 75 150 139L514 503C514 498 515 493 515 486C515 451 512 410 506 361C477 116 433 54 292 54ZM142 219C142 258 146 304 153 361C180 584 224 648 365 648C445 648 486 628 505 569L142 206ZM337 776L405 776L528 932L437 932Z"/>
<glyph unicode="&#x1ff;" horiz-adv-x="494" d="M8 0L70 57C97 14 146 -8 219 -8C363 -8 421 67 445 248C449 275 451 300 451 325C451 352 448 377 443 400L478 433L487 504L424 446C397 490 347 512 274 512C131 512 70 437 49 256C46 228 44 200 44 177C44 148 46 123 51 104L16 71ZM223 58C172 58 144 73 131 113L371 334L371 324C371 303 369 279 365 252C346 106 309 58 223 58ZM124 176C124 199 126 223 129 252C146 395 184 439 270 439C318 439 347 425 362 389L124 170ZM239 568L307 568L430 724L339 724Z"/>
<glyph unicode="&#x218;" horiz-adv-x="543" d="M36 216C24 60 89 -12 249 -12C404 -12 492 69 492 212C492 311 434 356 333 385L278 400C211 419 166 441 166 508C166 603 229 648 314 648C411 648 450 608 445 488L524 488C532 637 486 724 317 724C169 724 82 636 82 498C82 393 149 353 241 327L295 312C366 292 409 268 409 203C409 97 342 54 251 54C146 54 107 100 115 216ZM192 -56L173 -208L208 -208L265 -108L272 -56Z"/>
<glyph unicode="&#x219;" horiz-adv-x="428" d="M26 143C23 55 59 -8 187 -8C308 -8 374 44 374 153C374 217 340 257 260 277L208 290C153 305 135 322 135 357C135 421 172 442 236 442C300 442 326 425 321 354L394 354C407 472 346 512 238 512C119 512 58 456 58 348C58 277 96 242 161 226L212 213C276 197 296 185 296 146C296 78 255 56 190 56C126 56 96 76 99 143ZM134 -56L115 -208L150 -208L207 -108L214 -56Z"/>
<glyph unicode="&#x21a;" horiz-adv-x="522" d="M64 636L266 636L189 0L271 0L348 636L551 636L560 712L73 712ZM185 -56L166 -208L201 -208L258 -108L265 -56Z"/>
<glyph unicode="&#x21b;" horiz-adv-x="330" d="M42 434L106 434L72 155C59 52 110 0 211 0L281 0L288 66L226 66C162 66 143 90 152 158L186 434L333 434L343 504L194 504L209 624L132 624L117 504L51 504ZM123 -56L104 -208L139 -208L196 -108L203 -56Z"/>
<glyph unicode="&#x237;" horiz-adv-x="216" d="M27 -77C20 -125 1 -142 -43 -142L-69 -142L-78 -208L-36 -208C53 -208 97 -160 108 -72L179 504L99 504Z"/>
<glyph unicode="&#x259;" horiz-adv-x="467" d="M200 -8C337 -8 404 68 423 251C426 277 427 300 427 321C427 457 374 512 252 512C136 512 84 453 61 349L134 349C150 413 181 439 247 439C315 439 349 416 349 326C349 307 347 283 345 259L43 259L41 240C38 214 36 190 36 168C36 52 85 -8 200 -8ZM206 58C141 58 111 83 111 164C111 174 111 185 112 197L335 197C313 86 276 58 206 58Z"/>
<glyph unicode="&#x2c6;" horiz-adv-x="468" d="M130 568L203 568L287 678L343 568L410 568L325 724L254 724Z"/>
<glyph unicode="&#x2c7;" horiz-adv-x="468" d="M235 568L306 568L431 724L357 724L273 614L217 724L150 724Z"/>
<glyph unicode="&#x2c9;" horiz-adv-x="468" d="M145 617L407 617L414 675L152 675Z"/>
<glyph unicode="&#x2d8;" horiz-adv-x="468" d="M273 561C354 561 400 606 415 706L366 706C355 639 327 613 276 613C225 613 202 639 209 706L160 706C151 607 197 561 273 561Z"/>
<glyph unicode="&#x2d9;" horiz-adv-x="468" d="M233 597L313 597L324 691L244 691Z"/>
<glyph unicode="&#x2da;" horiz-adv-x="468" d="M274 600C239 600 229 616 229 640C229 683 244 712 288 712C323 712 333 695 333 671C333 628 318 600 274 600ZM273 561C344 561 377 612 377 671C377 722 348 750 289 750C218 750 185 699 185 640C185 589 214 561 273 561Z"/>
<glyph unicode="&#x2db;" horiz-adv-x="468" d="M233 -216L239 -165L201 -165C168 -165 151 -151 151 -122C151 -74 191 -41 239 0L196 0C148 -41 93 -77 93 -139C93 -187 127 -216 195 -216Z"/>
<glyph unicode="&#x2dc;" horiz-adv-x="468" d="M148 584L203 584L208 622C210 639 217 647 229 647C258 647 282 584 333 584C372 584 397 603 404 654L411 705L355 705L351 666C349 649 342 641 331 641C298 641 277 705 226 705C186 705 161 686 154 635Z"/>
<glyph unicode="&#x2dd;" horiz-adv-x="468" d="M298 568L366 568L489 724L398 724ZM148 568L216 568L339 724L248 724Z"/>
<glyph unicode="&#x326;" horiz-adv-x="0" d="M-316 -56L-335 -208L-300 -208L-243 -108L-236 -56Z"/>
<glyph unicode="&#x37e;" horiz-adv-x="207" d="M77 370L160 370L173 472L89 472ZM43 102L15 -128L55 -128L118 27L127 102Z"/>
<glyph unicode="&#x385;" horiz-adv-x="473" d="M215 568L274 568L348 724L267 724ZM344 597L419 597L430 691L356 691ZM127 597L201 597L213 691L138 691Z"/>
<glyph unicode="&#x387;" horiz-adv-x="192" d="M66 370L149 370L162 472L78 472Z"/>
<glyph unicode="&#x394;" horiz-adv-x="563" d="M-16 0L519 0L383 712L292 712ZM325 615L425 66L90 66Z"/>
<glyph unicode="&#x3a9;" horiz-adv-x="632" d="M29 0L247 0L265 146C193 159 147 191 147 310C147 335 149 364 153 397C174 580 225 648 364 648C477 648 521 605 521 489C521 462 518 432 514 397C490 205 432 162 341 146L323 0L542 0L549 66L400 66L405 99C513 128 576 200 600 395C604 427 606 457 606 484C606 641 539 724 371 724C173 724 95 612 68 400C64 369 63 341 63 316C63 183 114 125 190 99L185 66L36 66Z"/>
<glyph unicode="&#x3bc;" horiz-adv-x="513" d="M114 29C131 5 161 -8 209 -8C265 -8 311 14 339 61C348 20 381 0 440 0L470 0L477 66L463 66C418 66 410 83 416 131L462 504L382 504L343 186C331 91 292 58 223 58C151 58 129 94 140 185L178 504L98 504L11 -208L85 -208Z"/>
<glyph unicode="&#x3c0;" horiz-adv-x="543" d="M43 434L138 434L47 0L126 0L214 434L363 434L324 113C315 40 339 0 430 0L463 0L469 66L452 66C407 66 401 84 407 131L444 434L536 434L546 504L53 504Z"/>
<glyph unicode="&#x400;" horiz-adv-x="510" d="M51 0L432 0L440 66L142 66L174 331L448 331L457 401L183 401L211 636L510 636L519 712L138 712ZM316 776L378 776L318 932L233 932Z"/>
<glyph unicode="&#x401;" horiz-adv-x="510" d="M51 0L432 0L440 66L142 66L174 331L448 331L457 401L183 401L211 636L510 636L519 712L138 712ZM388 805L468 805L479 899L399 899ZM220 805L300 805L311 899L232 899Z"/>
<glyph unicode="&#x402;" horiz-adv-x="657" d="M65 636L226 636L149 0L232 0L272 327C317 334 362 337 405 337C489 337 536 323 536 239C536 228 535 216 533 201C520 93 485 66 401 66L359 66L352 0L399 0C531 0 598 41 617 200C619 217 619 229 619 244C619 377 538 408 418 408C371 408 327 404 280 397L309 636L554 636L563 712L74 712Z"/>
<glyph unicode="&#x403;" horiz-adv-x="470" d="M50 0L133 0L211 636L498 636L508 712L138 712ZM283 776L351 776L474 932L383 932Z"/>
<glyph unicode="&#x404;" horiz-adv-x="578" d="M53 224C53 51 118 -12 282 -12C434 -12 502 55 534 212L456 212C430 104 393 54 285 54C178 54 137 90 137 214C137 246 140 285 145 330L384 330L394 401L154 401C181 590 225 648 357 648C465 648 493 605 490 492L569 492C574 647 529 724 360 724C161 724 97 622 63 358C56 307 53 263 53 224Z"/>
<glyph unicode="&#x405;" horiz-adv-x="543" d="M36 216C24 60 89 -12 249 -12C404 -12 492 69 492 212C492 311 434 356 333 385L278 400C211 419 166 441 166 508C166 603 229 648 314 648C411 648 450 608 445 488L524 488C532 637 486 724 317 724C169 724 82 636 82 498C82 393 149 353 241 327L295 312C366 292 409 268 409 203C409 97 342 54 251 54C146 54 107 100 115 216Z"/>
<glyph unicode="&#x406;" horiz-adv-x="246" d="M51 0L134 0L221 712L138 712Z"/>
<glyph unicode="&#x407;" horiz-adv-x="246" d="M51 0L134 0L221 712L138 712ZM208 805L277 805L288 899L220 899ZM93 805L162 805L173 899L105 899Z"/>
<glyph unicode="&#x408;" horiz-adv-x="385" d="M-5 66L-12 0L76 0C224 0 285 61 301 192L365 712L282 712L218 190C207 103 165 66 74 66Z"/>
<glyph unicode="&#x409;" horiz-adv-x="930" d="M-19 -6L32 -6C144 -6 172 51 188 159L260 636L507 636L430 0L673 0C799 0 871 44 890 194C892 212 893 229 893 244C893 356 837 401 717 401L561 401L600 712L193 712L112 176C99 92 87 66 17 66L-9 66ZM708 330C779 330 810 308 810 239C810 227 809 213 807 196C794 95 759 66 676 66L520 66L552 330Z"/>
<glyph unicode="&#x40a;" horiz-adv-x="932" d="M51 0L134 0L174 330L473 330L432 0L675 0C801 0 873 44 892 194C894 212 895 229 895 244C895 356 839 401 719 401L563 401L602 712L520 712L481 401L183 401L221 712L138 712ZM710 330C781 330 812 308 812 239C812 227 811 213 809 196C796 95 761 66 678 66L522 66L554 330Z"/>
<glyph unicode="&#x40b;" horiz-adv-x="655" d="M65 636L227 636L149 0L232 0L273 336C316 343 357 347 398 347C481 347 521 331 521 254C521 243 520 230 518 216L492 0L575 0L602 227C604 242 605 256 605 269C605 387 528 418 424 418C368 418 326 414 282 407L310 636L554 636L564 712L75 712Z"/>
<glyph unicode="&#x40c;" horiz-adv-x="560" d="M50 0L133 0L174 330L242 330L432 0L522 0L312 366L611 712L518 712L248 401L182 401L221 712L138 712ZM323 776L391 776L514 932L423 932Z"/>
<glyph unicode="&#x40d;" horiz-adv-x="641" d="M50 0L128 0L517 566L448 0L528 0L616 712L538 712L148 144L218 712L138 712ZM358 776L420 776L360 932L275 932Z"/>
<glyph unicode="&#x40e;" horiz-adv-x="541" d="M55 -7L95 -7C195 -7 236 46 281 131L591 712L510 712L282 277L145 712L64 712L231 188L214 153C181 85 141 66 94 66L61 66ZM344 777C428 777 484 810 496 905L497 913L432 913L431 905C423 847 387 831 344 831C300 831 267 846 274 905L275 913L211 913L210 905C199 812 259 777 344 777Z"/>
<glyph unicode="&#x40f;" horiz-adv-x="636" d="M51 0L251 0L231 -160L307 -160L327 0L523 0L610 712L527 712L448 66L142 66L221 712L138 712Z"/>
<glyph unicode="&#x410;" horiz-adv-x="562" d="M-17 0L61 0L134 172L404 172L436 0L518 0L382 712L292 712ZM324 614L392 242L164 242Z"/>
<glyph unicode="&#x411;" horiz-adv-x="552" d="M51 0L292 0C418 0 490 45 509 197C511 215 512 232 512 248C512 360 457 404 336 404L182 404L211 636L524 636L534 712L138 712ZM328 334C397 334 430 311 430 242C430 231 429 217 427 200C414 93 379 66 295 66L141 66L174 334Z"/>
<glyph unicode="&#x412;" horiz-adv-x="577" d="M51 0L317 0C446 0 512 63 526 196C527 207 528 216 528 226C528 292 502 344 447 372C495 389 534 436 543 521C544 530 545 542 545 552C545 653 484 712 366 712L138 712ZM343 330C408 330 446 304 446 231C446 222 445 207 444 199C432 102 383 66 308 66L142 66L174 330ZM363 636C435 636 462 609 462 552C462 543 461 532 460 521C450 442 422 401 337 401L183 401L211 636Z"/>
<glyph unicode="&#x413;" horiz-adv-x="470" d="M50 0L133 0L211 636L498 636L508 712L138 712Z"/>
<glyph unicode="&#x414;" horiz-adv-x="631" d="M61 0L501 0L482 -156L557 -156L586 66L507 66L585 712L179 712L96 179C88 124 70 85 50 66L-7 66L-35 -156L41 -156ZM140 66C159 91 167 128 175 179L247 636L495 636L424 66Z"/>
<glyph unicode="&#x415;" horiz-adv-x="510" d="M51 0L432 0L440 66L142 66L174 331L448 331L457 401L183 401L211 636L510 636L519 712L138 712Z"/>
<glyph unicode="&#x416;" horiz-adv-x="836" d="M-23 0L71 0L327 330L387 330L346 0L426 0L467 330L534 330L708 0L796 0L601 368L886 712L796 712L538 401L475 401L514 712L434 712L395 401L327 401L149 712L62 712L262 366Z"/>
<glyph unicode="&#x417;" horiz-adv-x="548" d="M33 212C22 63 78 -12 244 -12C401 -12 479 63 494 187C496 201 497 214 497 225C497 304 462 347 402 368C477 396 513 457 521 520C522 528 523 542 523 553C523 660 462 724 321 724C158 724 98 641 71 500L150 500C172 616 227 648 318 648C401 648 441 620 441 551C441 543 440 535 439 524C428 444 384 401 287 401L229 401L219 328L281 328C380 328 413 290 413 222C413 213 412 202 411 191C400 96 347 54 246 54C135 54 104 102 112 212Z"/>
<glyph unicode="&#x418;" horiz-adv-x="641" d="M50 0L128 0L517 566L448 0L528 0L616 712L538 712L148 144L218 712L138 712Z"/>
<glyph unicode="&#x419;" horiz-adv-x="641" d="M50 0L128 0L517 566L448 0L528 0L616 712L538 712L148 144L218 712L138 712ZM388 777C472 777 528 810 540 905L541 913L476 913L475 905C467 847 431 831 388 831C344 831 311 846 318 905L319 913L255 913L254 905C243 812 303 777 388 777Z"/>
<glyph unicode="&#x41a;" horiz-adv-x="560" d="M50 0L133 0L174 330L242 330L432 0L522 0L312 366L611 712L518 712L248 401L182 401L221 712L138 712Z"/>
<glyph unicode="&#x41b;" horiz-adv-x="625" d="M-19 -6L32 -6C145 -6 171 51 187 158L260 636L507 636L430 0L512 0L600 712L193 712L111 176C98 92 86 66 17 66L-9 66Z"/>
<glyph unicode="&#x41c;" horiz-adv-x="778" d="M117 0L202 535L332 0L386 0L642 526L600 0L680 0L737 712L652 712L375 136L237 712L152 712L37 0Z"/>
<glyph unicode="&#x41d;" horiz-adv-x="638" d="M51 0L134 0L174 330L483 330L443 0L526 0L613 712L530 712L492 401L183 401L221 712L138 712Z"/>
<glyph unicode="&#x41e;" horiz-adv-x="623" d="M288 -12C489 -12 554 84 587 358C592 403 595 443 595 479C595 654 525 724 360 724C162 724 95 628 63 364C57 316 54 273 54 236C54 57 124 -12 288 -12ZM287 54C178 54 137 91 137 219C137 258 141 304 148 361C175 584 221 648 360 648C470 648 511 609 511 486C511 451 507 410 501 361C469 116 428 54 287 54Z"/>
<glyph unicode="&#x41f;" horiz-adv-x="635" d="M51 0L134 0L211 636L517 636L440 0L523 0L610 712L138 712Z"/>
<glyph unicode="&#x420;" horiz-adv-x="542" d="M51 0L134 0L168 283L317 283C448 283 520 329 538 491C540 509 541 527 541 542C541 664 480 712 352 712L138 712ZM352 636C426 636 459 615 459 542C459 528 458 513 456 494C442 380 405 352 316 352L177 352L211 636Z"/>
<glyph unicode="&#x421;" horiz-adv-x="590" d="M288 -12C448 -12 518 64 550 259L471 259C442 110 406 54 287 54C178 54 137 91 137 219C137 258 141 304 148 361C175 584 221 648 360 648C479 648 502 599 494 451L572 451C585 636 544 724 360 724C162 724 95 625 63 361C57 313 54 270 54 233C54 54 117 -12 288 -12Z"/>
<glyph unicode="&#x422;" horiz-adv-x="522" d="M64 636L266 636L189 0L271 0L348 636L551 636L560 712L73 712Z"/>
<glyph unicode="&#x423;" horiz-adv-x="541" d="M55 -7L95 -7C195 -7 236 46 281 131L591 712L510 712L282 277L145 712L64 712L231 188L214 153C181 85 141 66 94 66L61 66Z"/>
<glyph unicode="&#x424;" horiz-adv-x="725" d="M44 293C44 138 131 73 299 68L288 -24L369 -24L380 68C577 71 676 142 700 346C703 371 705 393 705 416C705 579 616 644 451 649L462 736L381 736L370 650C177 645 75 574 48 355C45 332 44 312 44 293ZM127 291C127 310 128 329 131 352C152 532 226 570 361 573L307 134C192 137 127 166 127 291ZM622 416C622 397 620 376 617 352C596 172 519 137 388 134L442 573C558 570 622 541 622 416Z"/>
<glyph unicode="&#x425;" horiz-adv-x="518" d="M-21 0L66 0L264 297L392 0L479 0L320 362L558 712L470 712L282 430L160 712L73 712L224 366Z"/>
<glyph unicode="&#x426;" horiz-adv-x="655" d="M51 0L522 0L503 -156L579 -156L607 66L531 66L610 712L527 712L448 66L142 66L221 712L138 712Z"/>
<glyph unicode="&#x427;" horiz-adv-x="557" d="M255 287C311 287 354 291 399 298L362 0L444 0L532 712L450 712L407 368C364 361 322 358 281 358C198 358 158 374 158 451C158 462 159 475 161 489L188 712L106 712L77 478C75 463 74 448 74 435C74 316 151 287 255 287Z"/>
<glyph unicode="&#x428;" horiz-adv-x="899" d="M51 0L786 0L873 712L790 712L711 66L468 66L547 712L464 712L385 66L141 66L220 712L138 712Z"/>
<glyph unicode="&#x429;" horiz-adv-x="918" d="M767 -156L843 -156L871 66L794 66L873 712L790 712L711 66L468 66L547 712L464 712L385 66L141 66L220 712L138 712L51 0L786 0Z"/>
<glyph unicode="&#x42a;" horiz-adv-x="642" d="M64 636L226 636L148 0L375 0C506 0 583 41 602 205C604 225 605 243 605 259C605 380 548 429 420 429L283 429L318 712L73 712ZM417 355C490 355 522 332 522 257C522 244 521 229 519 211C506 96 466 66 378 66L239 66L274 355Z"/>
</font>
</defs>
</svg>
