<?xml version="1.0" encoding="UTF-8" standalone="no"?>
<svg xmlns="http://www.w3.org/2000/svg">
<metadata>
This is a SVG font generated by Alphabet Type GmbH.
</metadata>
<defs>
<font id="PorscheNextWLaBoldItalic" horiz-adv-x="494" >
<font-face units-per-em="1000" ascent="1152" descent="-440" />
<missing-glyph horiz-adv-x="494" />
<glyph unicode="&#x20;" horiz-adv-x="183" />
<glyph unicode="&#x21;" horiz-adv-x="239" d="M77 233L157 233L243 712L109 712ZM28 0L150 0L165 135L44 135Z"/>
<glyph unicode="&#x22;" horiz-adv-x="350" d="M261 475L315 475L361 624L372 712L262 712L251 624ZM88 475L142 475L187 624L198 712L89 712L78 624Z"/>
<glyph unicode="&#x23;" horiz-adv-x="670" d="M127 459L209 459L128 253L24 253L12 153L89 153L29 0L131 0L191 153L346 153L286 0L388 0L448 153L556 153L568 253L487 253L568 459L671 459L683 559L607 559L667 712L565 712L505 559L350 559L410 712L308 712L248 559L139 559ZM311 459L466 459L385 253L230 253Z"/>
<glyph unicode="&#x24;" horiz-adv-x="560" d="M30 219C19 75 63 8 188 -8L188 -12L177 -104L294 -104L305 -9C446 4 519 79 519 226C519 323 465 377 360 404L306 418C242 434 213 449 213 496C213 572 251 600 319 600C396 600 419 581 414 488L547 488C558 627 526 700 397 719L409 816L292 816L281 724L280 721C137 706 73 620 73 476C73 369 130 325 235 298L289 284C353 268 378 249 378 206C378 126 335 98 264 98C179 98 160 127 165 219Z"/>
<glyph unicode="&#x25;" horiz-adv-x="731" d="M186 348C297 348 334 402 350 535C353 556 354 576 354 593C354 681 318 720 221 720C103 720 74 665 58 537C55 514 54 495 54 478C54 386 91 348 186 348ZM190 423C163 423 152 431 152 466C152 481 154 505 158 536C169 624 177 637 216 637C243 637 255 630 255 595C255 580 253 563 250 536C238 440 230 423 190 423ZM62 0L155 0L697 712L604 712ZM535 -8C646 -8 683 46 699 179C702 200 703 220 703 237C703 325 667 364 570 364C452 364 423 309 407 181C404 158 403 139 403 122C403 30 440 -8 535 -8ZM539 67C512 67 501 75 501 110C501 125 503 149 507 180C518 268 526 281 565 281C592 281 604 274 604 239C604 224 602 207 599 180C587 84 579 67 539 67Z"/>
<glyph unicode="&#x26;" horiz-adv-x="636" d="M24 188C23 177 22 165 22 154C22 58 82 -12 250 -12C329 -12 385 8 428 39L457 0L613 0L512 137C530 174 542 218 548 269L561 371L445 371L430 249L302 423C270 467 247 497 247 532C247 585 279 605 330 605C397 605 410 579 402 488L525 488C544 647 502 724 335 724C191 724 110 659 110 522C110 471 131 435 167 384C74 323 35 275 24 188ZM260 95C188 95 157 120 157 173C157 180 158 187 159 195C165 242 180 264 229 302L366 120C341 103 305 95 260 95Z"/>
<glyph unicode="&#x27;" horiz-adv-x="176" d="M88 475L142 475L187 624L198 712L89 712L78 624Z"/>
<glyph unicode="&#x28;" horiz-adv-x="324" d="M336 772C180 772 115 724 66 318C54 216 48 137 48 74C48 -115 104 -148 223 -148L249 -148L262 -50L246 -50C188 -50 161 -36 161 71C161 125 168 201 181 312C222 644 247 674 335 674L350 674L362 772Z"/>
<glyph unicode="&#x29;" horiz-adv-x="324" d="M3 -148C159 -148 223 -100 272 306C285 408 291 487 291 550C291 739 234 772 116 772L89 772L76 674L92 674C150 674 177 660 177 553C177 499 170 423 157 312C116 -20 91 -50 3 -50L-12 -50L-24 -148Z"/>
<glyph unicode="&#x2a;" horiz-adv-x="397" d="M58 553L112 534L179 524L125 477L84 429L148 377L188 426L226 487L249 425L278 377L355 428L326 476L283 524L351 534L411 552L394 635L334 617L271 586L291 653L298 712L210 712L204 653L207 586L151 618L96 636Z"/>
<glyph unicode="&#x2b;" horiz-adv-x="560" d="M55 240L229 240L207 60L307 60L329 240L503 240L515 340L341 340L363 520L263 520L241 340L67 340Z"/>
<glyph unicode="&#x2c;" horiz-adv-x="216" d="M34 135L3 -128L68 -128L144 39L155 135Z"/>
<glyph unicode="&#x2d;" horiz-adv-x="386" d="M46 241L338 241L350 341L58 341Z"/>
<glyph unicode="&#x2e;" horiz-adv-x="216" d="M18 0L138 0L154 135L33 135Z"/>
<glyph unicode="&#x2f;" horiz-adv-x="490" d="M11 0L116 0L508 712L402 712Z"/>
<glyph unicode="&#x30;" horiz-adv-x="560" d="M257 -12C445 -12 503 71 540 355C547 406 550 452 550 491C550 658 488 724 330 724C135 724 81 630 47 363C40 311 37 265 37 226C37 46 105 -12 257 -12ZM261 98C200 98 176 116 176 199C176 238 181 288 189 359C213 563 240 600 323 600C383 600 409 580 409 496C409 461 405 419 398 359C371 137 351 98 261 98Z"/>
<glyph unicode="&#x31;" horiz-adv-x="560" d="M248 0L384 0L471 712L366 712L140 630L125 506L318 573Z"/>
<glyph unicode="&#x32;" horiz-adv-x="560" d="M24 0L475 0L488 110L172 110L173 113C185 158 222 184 294 227L382 278C490 341 549 424 549 541C549 652 486 724 331 724C150 724 96 638 72 488L205 488C221 577 247 600 321 600C381 600 411 581 411 526C411 439 351 398 288 361L200 309C97 249 43 179 32 79Z"/>
<glyph unicode="&#x33;" horiz-adv-x="560" d="M28 219C15 51 81 -12 252 -12C437 -12 517 67 517 226C517 299 489 341 434 364C515 398 546 466 546 546C546 654 482 724 326 724C150 724 90 637 66 488L198 488C214 577 242 600 316 600C377 600 408 581 408 526C408 448 371 413 292 413L233 413L218 295L279 295C351 295 380 273 380 218C380 134 346 98 260 98C175 98 156 127 161 219Z"/>
<glyph unicode="&#x34;" horiz-adv-x="560" d="M12 142L307 142L290 0L420 0L437 142L518 142L531 254L451 254L507 712L319 712L24 246ZM152 254L362 595L321 254Z"/>
<glyph unicode="&#x35;" horiz-adv-x="560" d="M56 277L180 277C196 326 222 347 289 347C357 347 384 326 384 263C384 252 383 239 381 225C368 126 342 98 258 98C189 98 162 121 166 192L33 192C25 65 91 -12 258 -12C424 -12 496 58 517 224C519 242 520 259 520 274C520 406 447 463 315 463C265 463 225 449 195 420L228 588L528 588L543 712L138 712L61 318Z"/>
<glyph unicode="&#x36;" horiz-adv-x="560" d="M36 225C34 207 34 195 34 180C34 40 119 -12 262 -12C422 -12 501 45 522 222C524 240 525 256 525 271C525 407 444 463 316 463C305 463 292 461 279 458L474 712L322 712L142 470C78 385 48 331 36 225ZM173 225C186 317 213 347 294 347C362 347 388 326 388 263C388 252 388 241 386 225C374 125 347 98 263 98C195 98 169 117 169 178C169 191 170 206 173 225Z"/>
<glyph unicode="&#x37;" horiz-adv-x="560" d="M85 588L407 588L69 0L219 0L556 602L570 712L100 712Z"/>
<glyph unicode="&#x38;" horiz-adv-x="560" d="M27 162C27 43 98 -12 254 -12C441 -12 518 71 518 235C518 300 493 339 445 362C522 404 545 479 545 552C545 651 487 724 329 724C159 724 78 638 78 490C78 430 100 389 137 365C51 333 27 244 27 162ZM284 296C356 296 380 275 380 226C380 140 347 98 259 98C187 98 163 121 163 172C163 258 196 296 284 296ZM298 410C231 410 211 431 211 478C211 558 237 600 321 600C386 600 409 579 409 531C409 452 380 410 298 410Z"/>
<glyph unicode="&#x39;" horiz-adv-x="560" d="M267 242C280 242 291 243 301 246L119 0L265 0L442 244C505 331 532 380 547 487C550 506 551 524 551 540C551 678 468 724 328 724C171 724 86 669 65 491C63 473 62 456 62 439C62 303 138 242 267 242ZM289 354C224 354 197 377 197 438C197 449 198 463 200 478C211 570 238 600 320 600C388 600 413 580 413 521C413 509 411 494 409 478C395 386 369 354 289 354Z"/>
<glyph unicode="&#x3a;" horiz-adv-x="216" d="M58 337L179 337L196 472L75 472ZM17 0L138 0L154 135L33 135Z"/>
<glyph unicode="&#x3b;" horiz-adv-x="216" d="M58 337L179 337L196 472L75 472ZM33 135L2 -128L67 -128L143 39L154 135Z"/>
<glyph unicode="&#x3c;" horiz-adv-x="560" d="M44 240L471 65L484 168L174 287L513 406L526 515L56 340Z"/>
<glyph unicode="&#x3d;" horiz-adv-x="560" d="M68 351L516 351L529 452L81 452ZM41 128L489 128L502 229L54 229Z"/>
<glyph unicode="&#x3e;" horiz-adv-x="560" d="M85 412L394 293L56 174L43 65L512 240L524 340L98 515Z"/>
<glyph unicode="&#x3f;" horiz-adv-x="408" d="M109 233L225 233L229 258C244 353 421 367 421 550C421 646 355 712 203 712L80 712L65 590L192 590C256 590 286 575 286 527C286 420 130 393 114 270ZM79 0L200 0L216 135L95 135Z"/>
<glyph unicode="&#x40;" horiz-adv-x="870" d="M238 287C234 259 233 234 233 213C233 90 288 48 387 48C442 48 484 66 508 127C525 70 578 48 649 48C741 48 814 86 841 310C846 350 849 386 849 421C849 649 733 724 482 724C194 724 82 636 39 296C33 249 31 212 31 175C31 -54 139 -146 423 -146L464 -146L476 -46L423 -46C226 -46 147 0 147 175C147 208 150 247 156 290C191 565 270 611 480 611C657 611 733 579 733 416C733 387 731 355 726 316C707 153 685 138 649 138C618 138 616 167 620 203L658 512L542 512L535 456C519 499 483 520 426 520C310 520 261 468 238 287ZM362 284C375 397 396 417 450 417C493 417 511 404 511 347C511 330 510 309 507 284C491 161 469 138 416 138C375 138 355 151 355 210C355 229 358 253 362 284Z"/>
<glyph unicode="&#x41;" horiz-adv-x="587" d="M-27 0L105 0L159 135L397 135L418 0L553 0L434 712L265 712ZM331 567L380 249L204 249Z"/>
<glyph unicode="&#x42;" horiz-adv-x="581" d="M31 0L331 0C470 0 535 60 547 202C548 210 549 217 549 224C549 286 524 340 467 366C517 383 553 423 563 516C564 526 565 536 565 546C565 652 501 712 368 712L118 712ZM338 301C383 301 408 287 408 234C408 227 407 217 406 206C397 133 366 110 315 110L181 110L205 301ZM354 588C406 588 424 569 424 527C424 520 424 511 423 502C415 439 395 415 334 415L219 415L240 588Z"/>
<glyph unicode="&#x43;" horiz-adv-x="586" d="M290 -12C477 -12 528 67 560 259L428 259C407 134 383 98 291 98C211 98 178 112 178 206C178 242 183 292 192 360C219 566 238 600 353 600C444 600 458 567 450 444L583 444C599 638 562 724 355 724C144 724 86 654 49 362C42 311 39 268 39 229C39 50 105 -12 290 -12Z"/>
<glyph unicode="&#x44;" horiz-adv-x="620" d="M31 0L291 0C512 0 566 88 598 356C603 400 605 438 605 473C605 657 530 712 352 712L118 712ZM351 588C435 588 465 568 465 479C465 448 462 411 455 360C426 136 404 110 292 110L181 110L240 588Z"/>
<glyph unicode="&#x45;" horiz-adv-x="519" d="M31 0L453 0L466 110L181 110L204 299L465 299L480 415L218 415L240 588L525 588L540 712L118 712Z"/>
<glyph unicode="&#x46;" horiz-adv-x="503" d="M31 0L168 0L204 299L458 299L472 415L218 415L240 588L518 588L533 712L118 712Z"/>
<glyph unicode="&#x47;" horiz-adv-x="602" d="M313 276L438 276L436 259C420 126 390 98 291 98C211 98 178 112 178 206C178 242 183 292 192 360C219 566 238 600 353 600C433 600 466 578 461 488L593 488C601 644 555 724 357 724C146 724 86 651 49 360C42 309 39 266 39 227C39 50 110 -12 290 -12C491 -12 549 75 573 273L587 392L328 392Z"/>
<glyph unicode="&#x48;" horiz-adv-x="631" d="M31 0L168 0L204 299L437 299L401 0L538 0L625 712L488 712L451 415L218 415L255 712L118 712Z"/>
<glyph unicode="&#x49;" horiz-adv-x="261" d="M31 0L168 0L255 712L118 712Z"/>
<glyph unicode="&#x4a;" horiz-adv-x="402" d="M-2 110L-15 0L97 0C265 0 323 78 340 217L401 712L264 712L202 203C194 135 156 110 89 110Z"/>
<glyph unicode="&#x4b;" horiz-adv-x="590" d="M31 0L168 0L192 200L282 306L415 0L562 0L382 407L646 712L490 712L215 386L255 712L118 712Z"/>
<glyph unicode="&#x4c;" horiz-adv-x="483" d="M31 0L442 0L455 110L181 110L255 712L118 712Z"/>
<glyph unicode="&#x4d;" horiz-adv-x="778" d="M141 0L218 468L310 0L404 0L607 468L572 0L702 0L753 712L589 712L387 240L295 712L135 712L16 0Z"/>
<glyph unicode="&#x4e;" horiz-adv-x="631" d="M31 0L159 0L216 473L397 0L538 0L625 712L497 712L439 239L259 712L118 712Z"/>
<glyph unicode="&#x4f;" horiz-adv-x="620" d="M290 -12C511 -12 563 73 598 354C604 403 607 446 607 484C607 669 532 724 357 724C146 724 86 654 49 362C42 311 39 268 39 229C39 50 110 -12 290 -12ZM291 98C211 98 178 112 178 206C178 242 183 292 191 360C217 566 238 600 353 600C437 600 467 581 467 490C467 458 463 416 456 360C427 125 406 98 291 98Z"/>
<glyph unicode="&#x50;" horiz-adv-x="560" d="M31 0L168 0L198 247L333 247C483 247 545 296 564 479C566 498 566 514 566 529C566 661 503 712 368 712L118 712ZM344 588C403 588 425 574 425 519C425 508 424 494 422 478C409 379 391 363 317 363L212 363L239 588Z"/>
<glyph unicode="&#x51;" horiz-adv-x="620" d="M290 -12C369 -12 413 4 454 35L482 0L619 0L530 113C565 170 583 243 598 354C604 403 607 446 607 484C607 669 532 724 357 724C146 724 86 654 49 362C42 311 39 268 39 229C39 50 110 -12 290 -12ZM313 213L387 120C364 101 335 98 291 98C211 98 178 112 178 206C178 242 183 292 192 360C219 566 238 600 353 600C437 600 467 581 467 491C467 458 463 416 456 360C449 308 443 267 436 232L332 366Z"/>
<glyph unicode="&#x52;" horiz-adv-x="574" d="M31 0L168 0L198 247L288 247L381 0L526 0L419 268C506 284 551 340 564 479C566 497 567 514 567 530C567 666 497 712 363 712L118 712ZM338 588C399 588 425 578 425 519C425 508 424 494 422 478C409 373 384 363 314 363L212 363L239 588Z"/>
<glyph unicode="&#x53;" horiz-adv-x="546" d="M25 219C12 51 75 -12 251 -12C426 -12 512 64 512 227C512 326 458 377 351 404L297 418C233 434 204 448 204 497C204 570 241 600 310 600C387 600 410 581 405 488L538 488C551 651 501 724 316 724C140 724 64 633 64 476C64 369 121 325 226 298L280 284C344 268 371 251 371 204C371 125 327 98 259 98C174 98 154 127 159 219Z"/>
<glyph unicode="&#x54;" horiz-adv-x="527" d="M55 588L235 588L163 0L302 0L374 588L554 588L569 712L70 712Z"/>
<glyph unicode="&#x55;" horiz-adv-x="626" d="M55 229C35 70 104 -12 291 -12C479 -12 547 70 566 229L625 712L489 712L429 226C417 129 378 98 294 98C210 98 179 129 191 226L251 712L114 712Z"/>
<glyph unicode="&#x56;" horiz-adv-x="589" d="M179 0L348 0L641 712L509 712L282 145L195 712L60 712Z"/>
<glyph unicode="&#x57;" horiz-adv-x="897" d="M146 0L308 0L477 447L534 0L690 0L948 712L818 712L628 163L563 712L457 712L254 161L198 712L62 712Z"/>
<glyph unicode="&#x58;" horiz-adv-x="547" d="M-31 0L112 0L273 250L374 0L518 0L366 359L600 712L456 712L301 471L205 712L60 712L207 362Z"/>
<glyph unicode="&#x59;" horiz-adv-x="559" d="M181 0L318 0L349 267L611 712L477 712L302 414L202 712L61 712L213 272Z"/>
<glyph unicode="&#x5a;" horiz-adv-x="498" d="M62 588L347 588L7 83L-3 0L442 0L455 110L176 110L525 629L535 712L77 712Z"/>
<glyph unicode="&#x5b;" horiz-adv-x="319" d="M14 -148L243 -148L255 -50L138 -50L226 674L344 674L356 772L127 772Z"/>
<glyph unicode="&#x5c;" horiz-adv-x="488" d="M197 712L97 712L318 0L419 0Z"/>
<glyph unicode="&#x5d;" horiz-adv-x="319" d="M319 772L90 772L77 674L195 674L107 -50L-10 -50L-22 -148L206 -148Z"/>
<glyph unicode="&#x5e;" horiz-adv-x="560" d="M122 449L227 449L327 610L388 449L489 449L386 712L288 712Z"/>
<glyph unicode="&#x5f;" horiz-adv-x="622" d="M4 -12L-8 -112L541 -112L553 -12Z"/>
<glyph unicode="&#x60;" horiz-adv-x="489" d="M248 568L329 568L276 724L155 724Z"/>
<glyph unicode="&#x61;" horiz-adv-x="465" d="M147 -8C211 -8 247 16 267 51L261 0L388 0L428 333C439 426 415 512 255 512C114 512 63 449 47 337L164 337C172 394 193 405 242 405C293 405 304 386 295 326L292 306L228 294C103 271 9 243 9 116C9 35 59 -8 147 -8ZM192 87C156 87 141 105 141 138C141 194 192 203 240 211L281 217L275 169C268 110 241 87 192 87Z"/>
<glyph unicode="&#x62;" horiz-adv-x="515" d="M20 0L144 0L152 72C168 8 217 -8 273 -8C400 -8 462 50 483 248C486 279 488 304 488 328C488 465 432 512 323 512C275 512 236 498 208 459L239 712L107 712ZM246 93C197 93 177 107 177 169C177 189 179 217 183 252C199 379 219 399 283 399C332 399 354 386 354 325C354 307 352 283 348 252C332 117 310 93 246 93Z"/>
<glyph unicode="&#x63;" horiz-adv-x="464" d="M219 -8C352 -8 408 54 431 198L309 198C295 117 277 93 221 93C176 93 157 105 157 162C157 183 160 210 164 247C180 379 197 399 259 399C314 399 324 379 321 301L444 301C456 443 413 512 266 512C110 512 54 448 30 254C27 226 25 199 25 175C25 44 82 -8 219 -8Z"/>
<glyph unicode="&#x64;" horiz-adv-x="513" d="M190 -8C241 -8 285 8 312 59L305 0L432 0L519 712L386 712L354 452C334 500 292 512 244 512C117 512 55 451 31 254C27 222 25 194 25 169C25 36 81 -8 190 -8ZM228 93C179 93 159 107 159 169C159 189 161 217 165 252C181 379 201 399 265 399C314 399 336 386 336 325C336 307 334 283 330 252C314 117 292 93 228 93Z"/>
<glyph unicode="&#x65;" horiz-adv-x="473" d="M224 -8C354 -8 409 55 429 155L311 155C299 104 277 90 226 90C177 90 156 102 156 167C156 183 157 202 159 225L441 225L445 251C467 428 426 512 266 512C112 512 53 438 30 250C27 223 25 199 25 177C25 43 86 -8 224 -8ZM263 403C314 403 332 386 327 311L172 311C189 390 215 403 263 403Z"/>
<glyph unicode="&#x66;" horiz-adv-x="337" d="M36 395L94 395L46 0L178 0L226 395L341 395L355 504L239 504L244 539C251 586 272 599 309 599L372 599L386 712L303 712C190 712 126 660 113 547L108 504L50 504Z"/>
<glyph unicode="&#x67;" horiz-adv-x="515" d="M194 1C241 1 279 16 307 56L297 -25C288 -97 264 -115 207 -115C146 -115 138 -95 141 -39L15 -39C10 -151 49 -216 206 -216C351 -216 414 -157 431 -17L495 504L371 504L361 430C346 494 300 512 245 512C118 512 56 451 32 259C29 230 27 203 27 180C27 48 84 1 194 1ZM230 102C181 102 161 116 161 178C161 197 163 223 167 257C183 380 201 399 266 399C315 399 337 386 337 326C337 307 335 285 332 257C316 126 294 102 230 102Z"/>
<glyph unicode="&#x68;" horiz-adv-x="502" d="M20 0L152 0L189 298C199 375 216 397 272 397C325 397 337 375 328 298L292 0L425 0L464 324C479 449 437 512 321 512C266 512 232 494 209 462L239 712L107 712Z"/>
<glyph unicode="&#x69;" horiz-adv-x="233" d="M91 592L224 592L238 712L106 712ZM19 0L151 0L213 504L81 504Z"/>
<glyph unicode="&#x6a;" horiz-adv-x="233" d="M91 592L224 592L238 712L106 712ZM14 -42C8 -87 -14 -107 -59 -107L-92 -107L-104 -208L-51 -208C74 -208 133 -149 148 -25L213 504L81 504Z"/>
<glyph unicode="&#x6b;" horiz-adv-x="484" d="M20 0L152 0L168 131L229 199L314 0L457 0L327 297L519 504L375 504L188 299L239 712L107 712Z"/>
<glyph unicode="&#x6c;" horiz-adv-x="233" d="M20 0L152 0L239 712L107 712Z"/>
<glyph unicode="&#x6d;" horiz-adv-x="774" d="M19 0L151 0L187 298C196 375 214 397 271 397C324 397 336 375 327 298L291 0L424 0L460 298C469 375 487 397 543 397C596 397 609 375 600 298L564 0L697 0L736 324C751 449 709 512 593 512C522 512 478 483 457 434C438 486 393 512 320 512C257 512 220 489 200 449L207 504L81 504Z"/>
<glyph unicode="&#x6e;" horiz-adv-x="501" d="M19 0L151 0L188 298C198 375 215 397 271 397C324 397 336 375 327 298L291 0L424 0L463 324C478 449 436 512 320 512C257 512 220 489 200 449L207 504L81 504Z"/>
<glyph unicode="&#x6f;" horiz-adv-x="497" d="M224 -8C387 -8 444 53 465 248C468 275 471 303 471 326C471 462 410 512 273 512C110 512 53 455 31 256C28 229 25 201 25 178C25 42 85 -8 224 -8ZM228 93C179 93 158 106 158 167C158 188 161 217 165 252C180 379 200 399 265 399C314 399 336 387 336 326C336 306 333 279 329 243C313 115 293 93 228 93Z"/>
<glyph unicode="&#x70;" horiz-adv-x="514" d="M-6 -208L125 -208L157 50C178 3 221 -8 269 -8C396 -8 461 52 482 248C485 279 487 306 487 331C487 466 431 512 322 512C269 512 227 497 200 446L207 504L81 504ZM245 93C196 93 176 107 176 169C176 189 178 217 182 252C198 379 218 399 282 399C331 399 353 386 353 325C353 307 351 283 347 252C331 117 309 93 245 93Z"/>
<glyph unicode="&#x71;" horiz-adv-x="514" d="M190 -8C237 -8 277 5 304 46L273 -208L406 -208L494 504L367 504L358 440C341 497 296 512 244 512C117 512 55 451 31 254C27 223 25 195 25 170C25 37 81 -8 190 -8ZM228 93C179 93 159 107 159 169C159 189 161 217 165 252C181 379 201 399 265 399C314 399 336 386 336 325C336 307 334 283 330 252C314 117 292 93 228 93Z"/>
<glyph unicode="&#x72;" horiz-adv-x="319" d="M17 0L149 0L190 335C195 378 214 395 257 395L323 395L337 504L245 504C120 504 72 453 57 330Z"/>
<glyph unicode="&#x73;" horiz-adv-x="440" d="M16 153C11 62 36 -8 192 -8C323 -8 402 36 402 164C402 233 365 275 291 291L231 303C184 312 169 323 169 350C169 399 196 407 241 407C292 407 305 396 300 341L416 341C431 461 380 512 243 512C116 512 41 458 41 334C41 255 87 217 155 202L214 190C258 181 273 174 273 146C273 97 246 86 199 86C148 86 130 100 134 153Z"/>
<glyph unicode="&#x74;" horiz-adv-x="339" d="M30 395L88 395L61 175C45 47 97 0 221 0L291 0L303 101L250 101C201 101 185 113 192 168L220 395L342 395L355 504L233 504L248 624L120 624L105 504L44 504Z"/>
<glyph unicode="&#x75;" horiz-adv-x="504" d="M79 504L38 180C22 55 61 -8 177 -8C241 -8 281 16 302 57L296 0L422 0L484 504L351 504L312 194C302 113 283 93 229 93C177 93 163 114 173 194L211 504Z"/>
<glyph unicode="&#x76;" horiz-adv-x="470" d="M142 0L266 0L498 504L374 504L228 166L166 504L34 504Z"/>
<glyph unicode="&#x77;" horiz-adv-x="722" d="M118 0L246 0L366 285L416 0L541 0L749 504L626 504L502 176L448 504L346 504L210 176L168 504L35 504Z"/>
<glyph unicode="&#x78;" horiz-adv-x="456" d="M-26 0L107 0L213 155L283 0L420 0L301 252L482 504L349 504L241 348L172 504L35 504L154 250Z"/>
<glyph unicode="&#x79;" horiz-adv-x="470" d="M-1 -107L-13 -208L45 -208C158 -208 197 -153 245 -48L498 504L375 504L230 169L167 504L34 504L146 -10L134 -39C111 -95 85 -107 40 -107Z"/>
<glyph unicode="&#x7a;" horiz-adv-x="416" d="M44 395L241 395L7 72L-1 0L357 0L369 101L172 101L413 432L423 504L58 504Z"/>
<glyph unicode="&#x7b;" horiz-adv-x="356" d="M127 435C119 371 93 359 57 359L28 359L17 265L46 265C82 265 104 253 96 189L73 0C60 -108 115 -148 207 -148L281 -148L293 -50L247 -50C195 -50 181 -34 188 22L207 184C217 268 204 300 144 312C207 324 228 356 238 440L258 602C265 658 283 674 335 674L382 674L394 772L320 772C228 772 163 732 150 624Z"/>
<glyph unicode="&#x7c;" horiz-adv-x="336" d="M64 -208L159 -208L280 784L184 784Z"/>
<glyph unicode="&#x7d;" horiz-adv-x="356" d="M298 624C311 732 256 772 164 772L90 772L77 674L124 674C176 674 190 658 183 602L163 440C153 356 172 324 230 312C169 300 142 268 132 184L113 22C106 -34 88 -50 36 -50L-10 -50L-22 -148L51 -148C143 -148 208 -108 221 0L244 189C252 253 278 265 314 265L342 265L354 359L325 359C289 359 267 371 275 435Z"/>
<glyph unicode="&#x7e;" horiz-adv-x="560" d="M55 240C74 258 113 296 178 296C268 296 293 216 386 216C450 216 487 253 507 272L519 372C500 354 461 316 396 316C313 316 288 396 188 396C124 396 87 359 67 340Z"/>
<glyph unicode="&#xa0;" horiz-adv-x="183" />
<glyph unicode="&#xa1;" horiz-adv-x="238" d="M98 577L219 577L236 712L114 712ZM21 0L155 0L187 479L107 479Z"/>
<glyph unicode="&#xa2;" horiz-adv-x="560" d="M202 0L319 0L331 99C432 112 480 175 500 302L378 302C364 221 342 197 284 197C233 197 212 210 212 271C212 291 215 316 219 351C235 483 255 503 321 503C378 503 394 482 390 405L515 405C524 524 494 591 395 610L408 712L291 712L279 613C155 600 109 527 85 356C81 329 79 304 79 282C79 170 119 117 214 101Z"/>
<glyph unicode="&#xa3;" horiz-adv-x="560" d="M24 276L87 276L53 0L502 0L515 110L203 110L224 276L382 276L397 392L238 392L252 505C260 576 291 600 352 600C415 600 434 577 429 488L562 488C573 637 530 724 357 724C198 724 131 641 115 505L101 392L39 392Z"/>
<glyph unicode="&#xa4;" horiz-adv-x="560" d="M130 167L189 219C214 203 244 195 277 195C312 195 343 204 370 221L414 171L472 222L427 273C450 306 464 346 464 387C464 410 459 431 450 451L509 504L458 561L399 508C374 525 344 533 311 533C276 533 245 523 218 507L174 557L117 506L161 455C136 422 124 385 124 343C124 318 129 296 138 276L80 224ZM284 277C237 277 208 309 208 353C208 408 250 450 305 450C349 450 380 420 380 376C380 323 337 277 284 277Z"/>
<glyph unicode="&#xa5;" horiz-adv-x="560" d="M49 256L210 256L204 204L43 204L30 106L192 106L179 0L316 0L328 106L494 106L507 204L340 204L346 256L513 256L525 354L400 354L610 712L475 712L301 409L202 712L61 712L182 354L61 354Z"/>
<glyph unicode="&#xa6;" horiz-adv-x="336" d="M138 404L234 404L280 784L184 784ZM111 187L64 -208L159 -208L207 187Z"/>
<glyph unicode="&#xa7;" horiz-adv-x="540" d="M324 303C364 288 384 272 384 245C384 226 375 208 364 195L464 150C499 187 519 231 519 280C519 347 478 382 406 410L308 447C272 460 225 477 225 526C225 586 269 605 317 605C385 605 412 578 407 493L532 493C543 642 497 724 319 724C174 724 86 651 86 508C86 423 132 377 199 351ZM11 6C3 -134 45 -216 222 -216C362 -216 456 -148 456 -9C456 76 410 117 342 144L218 193C178 208 159 223 159 250C159 269 167 287 178 300L78 346C43 307 23 265 23 216C23 151 64 113 136 86L234 48C271 34 317 21 317 -29C317 -89 274 -109 223 -109C155 -109 129 -81 136 6Z"/>
<glyph unicode="&#xa8;" horiz-adv-x="489" d="M320 587L426 587L440 701L335 701ZM136 587L242 587L256 701L151 701Z"/>
<glyph unicode="&#xa9;" horiz-adv-x="695" d="M352 -12C589 -12 664 88 664 356C664 624 589 724 352 724C115 724 40 624 40 356C40 88 115 -12 352 -12ZM352 43C154 43 96 126 96 356C96 586 154 665 352 665C549 665 607 586 607 356C607 126 549 43 352 43ZM356 152C474 152 496 210 501 316L409 316C407 249 399 233 356 233C299 233 293 243 293 364C293 468 299 483 356 483C399 483 407 465 409 402L501 402C496 517 482 572 356 572C228 572 191 534 191 364C191 211 218 152 356 152Z"/>
<glyph unicode="&#xaa;" horiz-adv-x="379" d="M46 227L328 227L336 296L54 296ZM162 348C209 348 234 367 249 395L244 356L339 356L367 588C375 652 360 720 242 720C140 720 105 670 92 591L180 591C185 630 200 640 233 640C256 640 268 627 268 602C268 594 267 585 266 574L221 565C137 549 66 531 66 434C66 378 102 348 162 348ZM258 508L253 473C248 434 229 419 198 419C175 419 164 430 164 453C164 493 199 499 231 504Z"/>
<glyph unicode="&#xab;" horiz-adv-x="448" d="M286 64L391 64L331 256L439 448L334 448L214 256ZM97 64L202 64L142 256L250 448L145 448L25 256Z"/>
<glyph unicode="&#xac;" horiz-adv-x="560" d="M48 240L395 240L373 60L474 60L508 340L60 340Z"/>
<glyph unicode="&#xad;" horiz-adv-x="386" d="M46 241L338 241L350 341L58 341Z"/>
<glyph unicode="&#xae;" horiz-adv-x="425" d="M252 364C395 364 440 424 440 585C440 745 395 805 252 805C110 805 65 745 65 585C65 424 110 364 252 364ZM252 399C135 399 100 447 100 585C100 722 135 768 252 768C371 768 405 722 405 585C405 447 371 399 252 399ZM162 465L227 465L227 541L244 541L283 465L355 465L305 557C331 567 343 590 343 630C343 688 313 712 261 712L162 712ZM248 657C270 657 278 651 278 628C278 605 271 597 250 597L227 597L227 657Z"/>
<glyph unicode="&#xaf;" horiz-adv-x="489" d="M143 605L422 605L432 687L153 687Z"/>
<glyph unicode="&#xb0;" horiz-adv-x="325" d="M195 476C272 476 328 534 328 606C328 670 283 718 215 718C136 718 81 659 81 588C81 524 126 476 195 476ZM200 544C172 544 153 564 153 591C153 624 178 650 210 650C237 650 256 629 256 602C256 569 231 544 200 544Z"/>
<glyph unicode="&#xb1;" horiz-adv-x="560" d="M68 356L242 356L222 192L322 192L342 356L516 356L529 456L355 456L375 620L275 620L255 456L81 456ZM25 0L473 0L485 101L37 101Z"/>
<glyph unicode="&#xb2;" horiz-adv-x="325" d="M59 516L327 516L336 591L173 591C182 603 196 611 223 624L270 647C329 676 366 709 366 774C366 838 329 880 236 880C134 880 100 835 84 748L177 748C188 791 198 797 230 797C253 797 265 787 265 766C265 735 243 726 211 710L173 691C121 665 73 632 65 563Z"/>
<glyph unicode="&#xb3;" horiz-adv-x="325" d="M64 637C59 539 94 508 194 508C286 508 349 542 349 630C349 663 338 685 315 698C347 721 364 743 364 782C364 839 326 880 233 880C133 880 93 835 80 748L174 748C181 788 197 797 226 797C253 797 266 788 266 770C266 739 246 729 218 729L189 729L180 653L206 653C239 653 248 645 248 626C248 591 231 583 200 583C165 583 153 592 156 637Z"/>
<glyph unicode="&#xb4;" horiz-adv-x="489" d="M220 568L309 568L442 724L313 724Z"/>
<glyph unicode="&#xb5;" horiz-adv-x="525" d="M141 7C154 -3 172 -8 196 -8C249 -8 292 16 317 57C332 17 370 0 434 0L482 0L495 101L483 101C446 101 438 113 443 152L487 504L354 504L315 194C305 113 286 93 232 93C180 93 166 115 176 193L214 504L81 504L-6 -208L116 -208Z"/>
<glyph unicode="&#xb6;" horiz-adv-x="604" d="M262 228L234 0L371 0L458 712L293 712C150 712 72 657 53 488C49 458 47 431 47 407C47 278 103 228 238 228ZM439 0L507 0L594 712L526 712Z"/>
<glyph unicode="&#xb7;" horiz-adv-x="216" d="M44 221L165 221L181 355L60 355Z"/>
<glyph unicode="&#xb8;" horiz-adv-x="489" d="M151 -87L187 -87C219 -87 232 -96 232 -117C232 -152 209 -159 178 -159L120 -159L113 -216L191 -216C267 -216 318 -185 318 -113C318 -73 296 -37 224 -34L229 0L188 0Z"/>
<glyph unicode="&#xb9;" horiz-adv-x="325" d="M171 516L271 516L314 872L241 872L127 837L117 753L203 776Z"/>
<glyph unicode="&#xba;" horiz-adv-x="398" d="M51 227L342 227L350 296L59 296ZM217 348C335 348 372 395 390 535C393 555 394 573 394 589C394 686 351 720 250 720C134 720 94 678 78 535C76 514 75 495 75 479C75 383 116 348 217 348ZM220 423C188 423 174 432 174 475C174 489 176 509 180 535C191 621 204 635 246 635C279 635 293 628 293 585C293 572 292 556 289 535C276 439 265 423 220 423Z"/>
<glyph unicode="&#xbb;" horiz-adv-x="449" d="M199 64L304 64L424 256L352 448L247 448L307 256ZM10 64L115 64L235 256L163 448L58 448L118 256Z"/>
<glyph unicode="&#xbc;" horiz-adv-x="716" d="M133 356L233 356L276 712L203 712L89 677L79 593L165 616ZM47 0L140 0L682 712L589 712ZM364 63L517 63L509 0L605 0L613 63L653 63L662 139L622 139L648 356L524 356L371 127ZM461 139L541 258L526 139Z"/>
<glyph unicode="&#xbd;" horiz-adv-x="716" d="M134 356L234 356L277 712L204 712L90 677L80 593L166 616ZM24 0L117 0L659 712L566 712ZM369 0L637 0L646 75L483 75C492 87 506 95 533 108L580 131C639 160 676 193 676 258C676 322 639 364 546 364C444 364 410 319 394 232L487 232C498 275 508 281 540 281C563 281 575 271 575 250C575 219 553 210 521 194L483 175C431 149 383 116 375 47Z"/>
<glyph unicode="&#xbe;" horiz-adv-x="716" d="M47 477C42 379 77 348 177 348C269 348 332 382 332 470C332 503 321 525 298 538C330 561 347 583 347 622C347 679 309 720 216 720C116 720 76 675 63 588L157 588C164 628 180 637 209 637C236 637 249 628 249 610C249 579 229 569 201 569L172 569L163 493L189 493C222 493 231 485 231 466C231 431 214 423 183 423C148 423 136 432 139 477ZM80 0L173 0L715 712L622 712ZM385 63L538 63L530 0L626 0L634 63L674 63L683 139L643 139L669 356L545 356L392 127ZM482 139L562 258L547 139Z"/>
<glyph unicode="&#xbf;" horiz-adv-x="407" d="M217 577L338 577L355 712L233 712ZM13 162C13 67 78 0 230 0L354 0L367 110L239 110C178 110 148 135 148 184C148 291 304 318 320 442L325 479L209 479L205 454C189 361 13 345 13 162Z"/>
<glyph unicode="&#xc0;" horiz-adv-x="587" d="M-27 0L105 0L159 135L397 135L418 0L553 0L434 712L265 712ZM331 567L380 249L204 249ZM323 776L404 776L351 932L230 932Z"/>
<glyph unicode="&#xc1;" horiz-adv-x="587" d="M-27 0L105 0L159 135L397 135L418 0L553 0L434 712L265 712ZM331 567L380 249L204 249ZM295 776L384 776L517 932L388 932Z"/>
<glyph unicode="&#xc2;" horiz-adv-x="587" d="M-27 0L105 0L159 135L397 135L418 0L553 0L434 712L265 712ZM331 567L380 249L204 249ZM193 776L293 776L370 872L422 776L513 776L421 932L325 932Z"/>
<glyph unicode="&#xc3;" horiz-adv-x="587" d="M-27 0L105 0L159 135L397 135L418 0L553 0L434 712L265 712ZM331 567L380 249L204 249ZM221 792L290 792L294 823C296 838 301 845 310 845C342 845 365 790 417 790C458 790 487 812 494 864L501 920L433 920L429 889C427 874 422 867 413 867C379 867 357 922 306 922C265 922 235 900 228 848Z"/>
<glyph unicode="&#xc4;" horiz-adv-x="587" d="M-27 0L105 0L159 135L397 135L418 0L553 0L434 712L265 712ZM331 567L380 249L204 249ZM395 795L501 795L515 909L410 909ZM211 795L317 795L331 909L226 909Z"/>
<glyph unicode="&#xc5;" horiz-adv-x="587" d="M-27 0L105 0L159 135L397 135L418 0L553 0L434 712L265 712ZM331 567L380 249L204 249ZM359 819C326 819 317 831 317 854C317 895 327 922 371 922C404 922 413 910 413 887C413 846 403 819 359 819ZM356 768C440 768 470 821 470 888C470 945 438 973 374 973C290 973 260 920 260 853C260 796 292 768 356 768Z"/>
<glyph unicode="&#xc6;" horiz-adv-x="841" d="M-28 0L110 0L171 140L373 140L356 0L777 0L791 113L506 113L529 302L783 302L797 415L543 415L564 589L849 589L864 712L294 712ZM369 589L428 589L387 254L221 254Z"/>
<glyph unicode="&#xc7;" horiz-adv-x="586" d="M221 -87L257 -87C289 -87 302 -96 302 -117C302 -152 279 -159 248 -159L190 -159L183 -216L261 -216C337 -216 388 -185 388 -113C388 -73 366 -37 294 -34L297 -12C478 -10 528 69 560 259L428 259C407 134 383 98 291 98C211 98 178 112 178 206C178 242 183 292 192 360C219 566 238 600 353 600C444 600 458 567 450 444L583 444C599 638 562 724 355 724C144 724 86 654 49 362C42 311 39 268 39 229C39 62 96 -3 253 -11Z"/>
<glyph unicode="&#xc8;" horiz-adv-x="519" d="M31 0L453 0L466 110L181 110L204 299L465 299L480 415L218 415L240 588L525 588L540 712L118 712ZM306 776L387 776L334 932L213 932Z"/>
<glyph unicode="&#xc9;" horiz-adv-x="519" d="M31 0L453 0L466 110L181 110L204 299L465 299L480 415L218 415L240 588L525 588L540 712L118 712ZM278 776L367 776L500 932L371 932Z"/>
<glyph unicode="&#xca;" horiz-adv-x="519" d="M31 0L453 0L466 110L181 110L204 299L465 299L480 415L218 415L240 588L525 588L540 712L118 712ZM176 776L276 776L353 872L405 776L496 776L404 932L308 932Z"/>
<glyph unicode="&#xcb;" horiz-adv-x="519" d="M31 0L453 0L466 110L181 110L204 299L465 299L480 415L218 415L240 588L525 588L540 712L118 712ZM378 795L484 795L498 909L393 909ZM194 795L300 795L314 909L209 909Z"/>
<glyph unicode="&#xcc;" horiz-adv-x="261" d="M31 0L168 0L255 712L118 712ZM161 776L242 776L189 932L68 932Z"/>
<glyph unicode="&#xcd;" horiz-adv-x="261" d="M31 0L168 0L255 712L118 712ZM133 776L222 776L355 932L226 932Z"/>
<glyph unicode="&#xce;" horiz-adv-x="261" d="M31 0L168 0L255 712L118 712ZM31 776L131 776L208 872L260 776L351 776L259 932L163 932Z"/>
<glyph unicode="&#xcf;" horiz-adv-x="261" d="M31 0L168 0L255 712L118 712ZM233 795L339 795L353 909L248 909ZM49 795L155 795L169 909L64 909Z"/>
<glyph unicode="&#xd0;" horiz-adv-x="635" d="M30 305L80 305L43 0L302 0C523 0 581 85 613 354C618 398 621 438 621 473C621 656 546 712 370 712L130 712L93 409L42 409ZM367 588C451 588 481 568 481 479C481 448 478 411 471 360C442 136 421 110 308 110L193 110L217 305L331 305L344 409L230 409L252 588Z"/>
<glyph unicode="&#xd1;" horiz-adv-x="631" d="M31 0L159 0L216 473L397 0L538 0L625 712L497 712L439 239L259 712L118 712ZM250 792L319 792L323 823C325 838 330 845 339 845C371 845 394 790 446 790C487 790 516 812 523 864L530 920L462 920L458 889C456 874 451 867 442 867C408 867 386 922 335 922C294 922 264 900 257 848Z"/>
<glyph unicode="&#xd2;" horiz-adv-x="620" d="M290 -12C511 -12 563 73 598 354C604 403 607 446 607 484C607 669 532 724 357 724C146 724 86 654 49 362C42 311 39 268 39 229C39 50 110 -12 290 -12ZM291 98C211 98 178 112 178 206C178 242 183 292 191 360C217 566 238 600 353 600C437 600 467 581 467 490C467 458 463 416 456 360C427 125 406 98 291 98ZM339 776L420 776L367 932L246 932Z"/>
<glyph unicode="&#xd3;" horiz-adv-x="620" d="M290 -12C511 -12 563 73 598 354C604 403 607 446 607 484C607 669 532 724 357 724C146 724 86 654 49 362C42 311 39 268 39 229C39 50 110 -12 290 -12ZM291 98C211 98 178 112 178 206C178 242 183 292 191 360C217 566 238 600 353 600C437 600 467 581 467 490C467 458 463 416 456 360C427 125 406 98 291 98ZM311 776L400 776L533 932L404 932Z"/>
<glyph unicode="&#xd4;" horiz-adv-x="620" d="M290 -12C511 -12 563 73 598 354C604 403 607 446 607 484C607 669 532 724 357 724C146 724 86 654 49 362C42 311 39 268 39 229C39 50 110 -12 290 -12ZM291 98C211 98 178 112 178 206C178 242 183 292 191 360C217 566 238 600 353 600C437 600 467 581 467 490C467 458 463 416 456 360C427 125 406 98 291 98ZM209 776L309 776L386 872L438 776L529 776L437 932L341 932Z"/>
<glyph unicode="&#xd5;" horiz-adv-x="620" d="M290 -12C511 -12 563 73 598 354C604 403 607 446 607 484C607 669 532 724 357 724C146 724 86 654 49 362C42 311 39 268 39 229C39 50 110 -12 290 -12ZM291 98C211 98 178 112 178 206C178 242 183 292 191 360C217 566 238 600 353 600C437 600 467 581 467 490C467 458 463 416 456 360C427 125 406 98 291 98ZM237 792L306 792L310 823C312 838 317 845 326 845C358 845 381 790 433 790C474 790 503 812 510 864L517 920L449 920L445 889C443 874 438 867 429 867C395 867 373 922 322 922C281 922 251 900 244 848Z"/>
<glyph unicode="&#xd6;" horiz-adv-x="620" d="M290 -12C511 -12 563 73 598 354C604 403 607 446 607 484C607 669 532 724 357 724C146 724 86 654 49 362C42 311 39 268 39 229C39 50 110 -12 290 -12ZM291 98C211 98 178 112 178 206C178 242 183 292 191 360C217 566 238 600 353 600C437 600 467 581 467 490C467 458 463 416 456 360C427 125 406 98 291 98ZM411 795L517 795L531 909L426 909ZM227 795L333 795L347 909L242 909Z"/>
<glyph unicode="&#xd7;" horiz-adv-x="560" d="M137 94L279 220L387 96L466 164L356 289L496 413L431 488L291 363L184 486L107 418L214 295L71 168Z"/>
<glyph unicode="&#xd8;" horiz-adv-x="622" d="M-1 0L74 71C111 11 178 -12 291 -12C512 -12 567 73 599 354C604 403 608 445 608 484C608 516 605 544 601 569L637 603L650 712L575 641C536 702 467 724 358 724C148 724 84 654 49 362C43 312 40 268 40 229C40 195 42 166 47 143L11 109ZM292 98C222 98 188 108 180 172L465 440L457 360C433 123 406 98 292 98ZM192 360C216 566 239 600 354 600C422 600 452 587 463 535L182 271Z"/>
<glyph unicode="&#xd9;" horiz-adv-x="626" d="M55 229C35 70 104 -12 291 -12C479 -12 547 70 566 229L625 712L489 712L429 226C417 129 378 98 294 98C210 98 179 129 191 226L251 712L114 712ZM347 776L428 776L375 932L254 932Z"/>
<glyph unicode="&#xda;" horiz-adv-x="626" d="M55 229C35 70 104 -12 291 -12C479 -12 547 70 566 229L625 712L489 712L429 226C417 129 378 98 294 98C210 98 179 129 191 226L251 712L114 712ZM319 776L408 776L541 932L412 932Z"/>
<glyph unicode="&#xdb;" horiz-adv-x="626" d="M55 229C35 70 104 -12 291 -12C479 -12 547 70 566 229L625 712L489 712L429 226C417 129 378 98 294 98C210 98 179 129 191 226L251 712L114 712ZM217 776L317 776L394 872L446 776L537 776L445 932L349 932Z"/>
<glyph unicode="&#xdc;" horiz-adv-x="626" d="M55 229C35 70 104 -12 291 -12C479 -12 547 70 566 229L625 712L489 712L429 226C417 129 378 98 294 98C210 98 179 129 191 226L251 712L114 712ZM419 795L525 795L539 909L434 909ZM235 795L341 795L355 909L250 909Z"/>
<glyph unicode="&#xdd;" horiz-adv-x="559" d="M181 0L318 0L349 267L611 712L477 712L302 414L202 712L61 712L213 272ZM291 776L380 776L513 932L384 932Z"/>
<glyph unicode="&#xde;" horiz-adv-x="559" d="M31 0L168 0L184 134L322 134C466 134 527 183 549 361C551 380 553 396 553 411C553 540 486 590 357 590L240 590L255 712L118 712ZM333 466C388 466 410 454 410 399C410 388 409 375 407 361C396 266 375 250 307 250L198 250L225 466Z"/>
<glyph unicode="&#xdf;" horiz-adv-x="557" d="M242 0L292 0C447 0 509 61 522 203C523 218 524 230 524 242C524 312 498 358 446 379C507 404 528 452 537 524C539 540 540 555 540 569C540 674 483 724 338 724C168 724 126 658 110 530L107 504L50 504L36 395L93 395L46 0L178 0L243 533C250 592 269 611 334 611C386 611 406 597 406 552C406 543 406 536 404 519C396 447 376 425 315 425L294 425L280 316L313 316C369 316 392 301 392 245C392 234 391 222 389 209C380 125 351 101 287 101L254 101Z"/>
<glyph unicode="&#xe0;" horiz-adv-x="465" d="M147 -8C211 -8 247 16 267 51L261 0L388 0L428 333C439 426 415 512 255 512C114 512 63 449 47 337L164 337C172 394 193 405 242 405C293 405 304 386 295 326L292 306L228 294C103 271 9 243 9 116C9 35 59 -8 147 -8ZM192 87C156 87 141 105 141 138C141 194 192 203 240 211L281 217L275 169C268 110 241 87 192 87ZM237 568L318 568L265 724L144 724Z"/>
<glyph unicode="&#xe1;" horiz-adv-x="465" d="M147 -8C211 -8 247 16 267 51L261 0L388 0L428 333C439 426 415 512 255 512C114 512 63 449 47 337L164 337C172 394 193 405 242 405C293 405 304 386 295 326L292 306L228 294C103 271 9 243 9 116C9 35 59 -8 147 -8ZM192 87C156 87 141 105 141 138C141 194 192 203 240 211L281 217L275 169C268 110 241 87 192 87ZM209 568L298 568L431 724L302 724Z"/>
<glyph unicode="&#xe2;" horiz-adv-x="465" d="M147 -8C211 -8 247 16 267 51L261 0L388 0L428 333C439 426 415 512 255 512C114 512 63 449 47 337L164 337C172 394 193 405 242 405C293 405 304 386 295 326L292 306L228 294C103 271 9 243 9 116C9 35 59 -8 147 -8ZM192 87C156 87 141 105 141 138C141 194 192 203 240 211L281 217L275 169C268 110 241 87 192 87ZM107 568L207 568L284 664L336 568L427 568L335 724L239 724Z"/>
<glyph unicode="&#xe3;" horiz-adv-x="465" d="M147 -8C211 -8 247 16 267 51L261 0L388 0L428 333C439 426 415 512 255 512C114 512 63 449 47 337L164 337C172 394 193 405 242 405C293 405 304 386 295 326L292 306L228 294C103 271 9 243 9 116C9 35 59 -8 147 -8ZM192 87C156 87 141 105 141 138C141 194 192 203 240 211L281 217L275 169C268 110 241 87 192 87ZM135 584L204 584L208 615C210 630 215 637 224 637C256 637 279 582 331 582C372 582 401 604 408 656L415 712L347 712L343 681C341 666 336 659 327 659C293 659 271 714 220 714C179 714 149 692 142 640Z"/>
<glyph unicode="&#xe4;" horiz-adv-x="465" d="M147 -8C211 -8 247 16 267 51L261 0L388 0L428 333C439 426 415 512 255 512C114 512 63 449 47 337L164 337C172 394 193 405 242 405C293 405 304 386 295 326L292 306L228 294C103 271 9 243 9 116C9 35 59 -8 147 -8ZM192 87C156 87 141 105 141 138C141 194 192 203 240 211L281 217L275 169C268 110 241 87 192 87ZM309 587L415 587L429 701L324 701ZM125 587L231 587L245 701L140 701Z"/>
<glyph unicode="&#xe5;" horiz-adv-x="465" d="M147 -8C211 -8 247 16 267 51L261 0L388 0L428 333C439 426 415 512 255 512C114 512 63 449 47 337L164 337C172 394 193 405 242 405C293 405 304 386 295 326L292 306L228 294C103 271 9 243 9 116C9 35 59 -8 147 -8ZM192 87C156 87 141 105 141 138C141 194 192 203 240 211L281 217L275 169C268 110 241 87 192 87ZM273 611C240 611 231 623 231 646C231 687 241 714 285 714C318 714 327 702 327 679C327 638 317 611 273 611ZM270 560C354 560 384 613 384 680C384 737 352 765 288 765C204 765 174 712 174 645C174 588 206 560 270 560Z"/>
<glyph unicode="&#xe6;" horiz-adv-x="728" d="M150 -8C226 -8 276 19 300 68C329 14 387 -8 478 -8C608 -8 663 55 683 155L565 155C553 104 531 90 481 90C432 90 410 102 410 167C410 183 411 202 413 225L696 225L699 251C721 428 680 512 521 512C460 512 414 498 380 469C356 495 316 512 254 512C112 512 63 449 46 337L163 337C171 394 192 405 241 405C292 405 301 385 293 326L290 306L227 294C108 272 8 243 8 119C8 38 62 -8 150 -8ZM274 169C267 111 240 87 191 87C155 87 140 107 140 138C140 195 194 204 239 211L280 217ZM517 403C568 403 587 386 582 311L426 311C443 390 470 403 517 403Z"/>
<glyph unicode="&#xe7;" horiz-adv-x="464" d="M154 -87L190 -87C222 -87 235 -96 235 -117C235 -152 212 -159 181 -159L123 -159L116 -216L194 -216C270 -216 321 -185 321 -113C321 -73 299 -37 227 -34L231 -8C355 -4 408 58 431 198L309 198C295 117 277 93 221 93C176 93 157 105 157 162C157 183 160 210 164 247C180 379 197 399 259 399C314 399 324 379 321 301L444 301C456 443 413 512 266 512C110 512 54 448 30 254C27 226 25 199 25 175C25 54 73 0 188 -7Z"/>
<glyph unicode="&#xe8;" horiz-adv-x="473" d="M224 -8C354 -8 409 55 429 155L311 155C299 104 277 90 226 90C177 90 156 102 156 167C156 183 157 202 159 225L441 225L445 251C467 428 426 512 266 512C112 512 53 438 30 250C27 223 25 199 25 177C25 43 86 -8 224 -8ZM263 403C314 403 332 386 327 311L172 311C189 390 215 403 263 403ZM245 568L326 568L273 724L152 724Z"/>
<glyph unicode="&#xe9;" horiz-adv-x="473" d="M224 -8C354 -8 409 55 429 155L311 155C299 104 277 90 226 90C177 90 156 102 156 167C156 183 157 202 159 225L441 225L445 251C467 428 426 512 266 512C112 512 53 438 30 250C27 223 25 199 25 177C25 43 86 -8 224 -8ZM263 403C314 403 332 386 327 311L172 311C189 390 215 403 263 403ZM217 568L306 568L439 724L310 724Z"/>
<glyph unicode="&#xea;" horiz-adv-x="473" d="M224 -8C354 -8 409 55 429 155L311 155C299 104 277 90 226 90C177 90 156 102 156 167C156 183 157 202 159 225L441 225L445 251C467 428 426 512 266 512C112 512 53 438 30 250C27 223 25 199 25 177C25 43 86 -8 224 -8ZM263 403C314 403 332 386 327 311L172 311C189 390 215 403 263 403ZM115 568L215 568L292 664L344 568L435 568L343 724L247 724Z"/>
<glyph unicode="&#xeb;" horiz-adv-x="473" d="M224 -8C354 -8 409 55 429 155L311 155C299 104 277 90 226 90C177 90 156 102 156 167C156 183 157 202 159 225L441 225L445 251C467 428 426 512 266 512C112 512 53 438 30 250C27 223 25 199 25 177C25 43 86 -8 224 -8ZM263 403C314 403 332 386 327 311L172 311C189 390 215 403 263 403ZM317 587L423 587L437 701L332 701ZM133 587L239 587L253 701L148 701Z"/>
<glyph unicode="&#xec;" horiz-adv-x="233" d="M19 0L151 0L213 504L81 504ZM126 568L207 568L154 724L33 724Z"/>
<glyph unicode="&#xed;" horiz-adv-x="233" d="M19 0L151 0L213 504L81 504ZM98 568L187 568L320 724L191 724Z"/>
<glyph unicode="&#xee;" horiz-adv-x="233" d="M19 0L151 0L213 504L81 504ZM-4 568L96 568L173 664L225 568L316 568L224 724L128 724Z"/>
<glyph unicode="&#xef;" horiz-adv-x="233" d="M19 0L151 0L213 504L81 504ZM198 587L304 587L318 701L213 701ZM14 587L120 587L134 701L29 701Z"/>
<glyph unicode="&#xf0;" horiz-adv-x="502" d="M123 500L289 559C306 524 319 492 329 463C306 478 281 482 253 482C123 482 48 421 27 237C24 216 23 196 23 177C23 37 97 -10 226 -10C378 -10 445 59 468 238C472 266 474 294 474 321C474 420 452 513 409 602L510 638L519 712L377 661L350 712L211 712L259 619L132 574ZM161 229C174 345 195 369 262 369C315 369 337 353 337 290C337 273 335 254 332 229C319 117 297 93 228 93C177 93 156 108 156 168C156 184 158 205 161 229Z"/>
<glyph unicode="&#xf1;" horiz-adv-x="501" d="M19 0L151 0L188 298C198 375 215 397 271 397C324 397 336 375 327 298L291 0L424 0L463 324C478 449 436 512 320 512C257 512 220 489 200 449L207 504L81 504ZM155 584L224 584L228 615C230 630 235 637 244 637C276 637 299 582 351 582C392 582 421 604 428 656L435 712L367 712L363 681C361 666 356 659 347 659C313 659 291 714 240 714C199 714 169 692 162 640Z"/>
<glyph unicode="&#xf2;" horiz-adv-x="497" d="M224 -8C387 -8 444 53 465 248C468 275 471 303 471 326C471 462 410 512 273 512C110 512 53 455 31 256C28 229 25 201 25 178C25 42 85 -8 224 -8ZM228 93C179 93 158 106 158 167C158 188 161 217 165 252C180 379 200 399 265 399C314 399 336 387 336 326C336 306 333 279 329 243C313 115 293 93 228 93ZM253 568L334 568L281 724L160 724Z"/>
<glyph unicode="&#xf3;" horiz-adv-x="497" d="M224 -8C387 -8 444 53 465 248C468 275 471 303 471 326C471 462 410 512 273 512C110 512 53 455 31 256C28 229 25 201 25 178C25 42 85 -8 224 -8ZM228 93C179 93 158 106 158 167C158 188 161 217 165 252C180 379 200 399 265 399C314 399 336 387 336 326C336 306 333 279 329 243C313 115 293 93 228 93ZM225 568L314 568L447 724L318 724Z"/>
<glyph unicode="&#xf4;" horiz-adv-x="497" d="M224 -8C387 -8 444 53 465 248C468 275 471 303 471 326C471 462 410 512 273 512C110 512 53 455 31 256C28 229 25 201 25 178C25 42 85 -8 224 -8ZM228 93C179 93 158 106 158 167C158 188 161 217 165 252C180 379 200 399 265 399C314 399 336 387 336 326C336 306 333 279 329 243C313 115 293 93 228 93ZM123 568L223 568L300 664L352 568L443 568L351 724L255 724Z"/>
<glyph unicode="&#xf5;" horiz-adv-x="497" d="M224 -8C387 -8 444 53 465 248C468 275 471 303 471 326C471 462 410 512 273 512C110 512 53 455 31 256C28 229 25 201 25 178C25 42 85 -8 224 -8ZM228 93C179 93 158 106 158 167C158 188 161 217 165 252C180 379 200 399 265 399C314 399 336 387 336 326C336 306 333 279 329 243C313 115 293 93 228 93ZM151 584L220 584L224 615C226 630 231 637 240 637C272 637 295 582 347 582C388 582 417 604 424 656L431 712L363 712L359 681C357 666 352 659 343 659C309 659 287 714 236 714C195 714 165 692 158 640Z"/>
<glyph unicode="&#xf6;" horiz-adv-x="497" d="M224 -8C387 -8 444 53 465 248C468 275 471 303 471 326C471 462 410 512 273 512C110 512 53 455 31 256C28 229 25 201 25 178C25 42 85 -8 224 -8ZM228 93C179 93 158 106 158 167C158 188 161 217 165 252C180 379 200 399 265 399C314 399 336 387 336 326C336 306 333 279 329 243C313 115 293 93 228 93ZM325 587L431 587L445 701L340 701ZM141 587L247 587L261 701L156 701Z"/>
<glyph unicode="&#xf7;" horiz-adv-x="560" d="M255 450L356 450L371 580L271 580ZM55 240L503 240L515 340L67 340ZM200 0L300 0L316 130L215 130Z"/>
<glyph unicode="&#xf8;" horiz-adv-x="501" d="M-3 0L60 52C91 9 143 -8 227 -8C390 -8 445 53 469 248C473 276 475 302 475 326C475 352 473 374 468 393L497 417L508 504L444 451C413 494 360 512 277 512C117 512 59 455 35 256C32 227 30 200 30 176C30 151 32 130 36 111L7 87ZM232 93C191 93 172 101 165 140L338 284L335 252C322 115 297 93 232 93ZM170 252C187 378 204 399 270 399C307 399 328 392 337 361L166 219C167 230 168 240 170 252Z"/>
<glyph unicode="&#xf9;" horiz-adv-x="504" d="M79 504L38 180C22 55 61 -8 177 -8C241 -8 281 16 302 57L296 0L422 0L484 504L351 504L312 194C302 113 283 93 229 93C177 93 163 114 173 194L211 504ZM255 568L336 568L283 724L162 724Z"/>
<glyph unicode="&#xfa;" horiz-adv-x="504" d="M79 504L38 180C22 55 61 -8 177 -8C241 -8 281 16 302 57L296 0L422 0L484 504L351 504L312 194C302 113 283 93 229 93C177 93 163 114 173 194L211 504ZM227 568L316 568L449 724L320 724Z"/>
<glyph unicode="&#xfb;" horiz-adv-x="504" d="M79 504L38 180C22 55 61 -8 177 -8C241 -8 281 16 302 57L296 0L422 0L484 504L351 504L312 194C302 113 283 93 229 93C177 93 163 114 173 194L211 504ZM125 568L225 568L302 664L354 568L445 568L353 724L257 724Z"/>
<glyph unicode="&#xfc;" horiz-adv-x="504" d="M79 504L38 180C22 55 61 -8 177 -8C241 -8 281 16 302 57L296 0L422 0L484 504L351 504L312 194C302 113 283 93 229 93C177 93 163 114 173 194L211 504ZM327 587L433 587L447 701L342 701ZM143 587L249 587L263 701L158 701Z"/>
<glyph unicode="&#xfd;" horiz-adv-x="470" d="M1 -107L-11 -208L47 -208C160 -208 199 -153 247 -48L500 504L377 504L232 169L169 504L36 504L148 -10L136 -39C113 -95 87 -107 42 -107ZM219 568L308 568L441 724L312 724Z"/>
<glyph unicode="&#xfe;" horiz-adv-x="515" d="M-5 -208L126 -208L158 52C179 4 222 -8 273 -8C400 -8 462 52 483 248C486 279 488 306 488 331C488 466 432 512 323 512C275 512 235 498 208 458L239 712L107 712ZM246 93C197 93 177 107 177 169C177 189 179 217 183 252C199 379 219 399 283 399C332 399 354 386 354 325C354 307 352 283 348 252C332 117 310 93 246 93Z"/>
<glyph unicode="&#xff;" horiz-adv-x="470" d="M1 -107L-11 -208L47 -208C160 -208 199 -153 247 -48L500 504L377 504L232 169L169 504L36 504L148 -10L136 -39C113 -95 87 -107 42 -107ZM319 587L425 587L439 701L334 701ZM135 587L241 587L255 701L150 701Z"/>
<glyph unicode="&#x100;" horiz-adv-x="587" d="M-27 0L105 0L159 135L397 135L418 0L553 0L434 712L265 712ZM331 567L380 249L204 249ZM218 813L497 813L507 895L228 895Z"/>
<glyph unicode="&#x101;" horiz-adv-x="465" d="M147 -8C211 -8 247 16 267 51L261 0L388 0L428 333C439 426 415 512 255 512C114 512 63 449 47 337L164 337C172 394 193 405 242 405C293 405 304 386 295 326L292 306L228 294C103 271 9 243 9 116C9 35 59 -8 147 -8ZM192 87C156 87 141 105 141 138C141 194 192 203 240 211L281 217L275 169C268 110 241 87 192 87ZM132 605L411 605L421 687L142 687Z"/>
<glyph unicode="&#x102;" horiz-adv-x="587" d="M-27 0L105 0L159 135L397 135L418 0L553 0L434 712L265 712ZM331 567L380 249L204 249ZM359 768C447 768 494 805 513 922L441 922C429 859 410 839 361 839C313 839 298 859 303 922L231 922C220 805 274 768 359 768Z"/>
<glyph unicode="&#x103;" horiz-adv-x="465" d="M147 -8C211 -8 247 16 267 51L261 0L388 0L428 333C439 426 415 512 255 512C114 512 63 449 47 337L164 337C172 394 193 405 242 405C293 405 304 386 295 326L292 306L228 294C103 271 9 243 9 116C9 35 59 -8 147 -8ZM192 87C156 87 141 105 141 138C141 194 192 203 240 211L281 217L275 169C268 110 241 87 192 87ZM273 560C361 560 408 597 427 714L355 714C343 651 324 631 275 631C227 631 212 651 217 714L145 714C134 597 188 560 273 560Z"/>
<glyph unicode="&#x104;" horiz-adv-x="587" d="M-27 0L105 0L159 135L397 135L418 0L498 0C451 -39 393 -76 393 -138C393 -186 426 -216 497 -216L533 -216L541 -145L513 -145C484 -145 470 -133 470 -110C470 -71 502 -44 553 0L434 712L265 712ZM331 567L380 249L204 249Z"/>
<glyph unicode="&#x105;" horiz-adv-x="465" d="M146 -8C210 -8 247 17 267 52L261 0L332 0C287 -40 227 -76 227 -138C227 -186 262 -216 331 -216L367 -216L376 -145L347 -145C318 -145 304 -133 304 -110C304 -71 336 -44 387 0L428 333C439 426 415 512 255 512C113 512 65 449 46 337L164 337C172 394 193 405 242 405C293 405 302 385 294 326L292 306L227 294C103 271 9 243 9 116C9 35 58 -8 146 -8ZM275 169C266 110 240 87 192 87C157 87 140 104 140 138C140 194 191 204 239 211L282 217Z"/>
<glyph unicode="&#x106;" horiz-adv-x="586" d="M290 -12C477 -12 528 67 560 259L428 259C407 134 383 98 291 98C211 98 178 112 178 206C178 242 183 292 192 360C219 566 238 600 353 600C444 600 458 567 450 444L583 444C599 638 562 724 355 724C144 724 86 654 49 362C42 311 39 268 39 229C39 50 105 -12 290 -12ZM299 776L388 776L521 932L392 932Z"/>
<glyph unicode="&#x107;" horiz-adv-x="464" d="M219 -8C352 -8 408 54 431 198L309 198C295 117 277 93 221 93C176 93 157 105 157 162C157 183 160 210 164 247C180 379 197 399 259 399C314 399 324 379 321 301L444 301C456 443 413 512 266 512C110 512 54 448 30 254C27 226 25 199 25 175C25 44 82 -8 219 -8ZM220 568L309 568L442 724L313 724Z"/>
<glyph unicode="&#x108;" horiz-adv-x="586" d="M290 -12C477 -12 528 67 560 259L428 259C407 134 383 98 291 98C211 98 178 112 178 206C178 242 183 292 192 360C219 566 238 600 353 600C444 600 458 567 450 444L583 444C599 638 562 724 355 724C144 724 86 654 49 362C42 311 39 268 39 229C39 50 105 -12 290 -12ZM197 776L297 776L374 872L426 776L517 776L425 932L329 932Z"/>
<glyph unicode="&#x109;" horiz-adv-x="464" d="M219 -8C352 -8 408 54 431 198L309 198C295 117 277 93 221 93C176 93 157 105 157 162C157 183 160 210 164 247C180 379 197 399 259 399C314 399 324 379 321 301L444 301C456 443 413 512 266 512C110 512 54 448 30 254C27 226 25 199 25 175C25 44 82 -8 219 -8ZM118 568L218 568L295 664L347 568L438 568L346 724L250 724Z"/>
<glyph unicode="&#x10a;" horiz-adv-x="586" d="M290 -12C477 -12 528 67 560 259L428 259C407 134 383 98 291 98C211 98 178 112 178 206C178 242 183 292 192 360C219 566 238 600 353 600C444 600 458 567 450 444L583 444C599 638 562 724 355 724C144 724 86 654 49 362C42 311 39 268 39 229C39 50 105 -12 290 -12ZM307 795L413 795L427 909L322 909Z"/>
<glyph unicode="&#x10b;" horiz-adv-x="464" d="M219 -8C352 -8 408 54 431 198L309 198C295 117 277 93 221 93C176 93 157 105 157 162C157 183 160 210 164 247C180 379 197 399 259 399C314 399 324 379 321 301L444 301C456 443 413 512 266 512C110 512 54 448 30 254C27 226 25 199 25 175C25 44 82 -8 219 -8ZM228 587L334 587L348 701L243 701Z"/>
<glyph unicode="&#x10c;" horiz-adv-x="586" d="M290 -12C477 -12 528 67 560 259L428 259C407 134 383 98 291 98C211 98 178 112 178 206C178 242 183 292 192 360C219 566 238 600 353 600C444 600 458 567 450 444L583 444C599 638 562 724 355 724C144 724 86 654 49 362C42 311 39 268 39 229C39 50 105 -12 290 -12ZM310 776L406 776L538 932L441 932L364 835L312 932L218 932Z"/>
<glyph unicode="&#x10d;" horiz-adv-x="464" d="M219 -8C352 -8 408 54 431 198L309 198C295 117 277 93 221 93C176 93 157 105 157 162C157 183 160 210 164 247C180 379 197 399 259 399C314 399 324 379 321 301L444 301C456 443 413 512 266 512C110 512 54 448 30 254C27 226 25 199 25 175C25 44 82 -8 219 -8ZM231 568L327 568L459 724L362 724L285 627L233 724L139 724Z"/>
<glyph unicode="&#x10e;" horiz-adv-x="620" d="M31 0L291 0C512 0 566 88 598 356C603 400 605 438 605 473C605 657 530 712 352 712L118 712ZM351 588C435 588 465 568 465 479C465 448 462 411 455 360C426 136 404 110 292 110L181 110L240 588ZM314 776L410 776L542 932L445 932L368 835L316 932L222 932Z"/>
<glyph unicode="&#x10f;" horiz-adv-x="523" d="M190 -8C241 -8 285 8 312 59L305 0L432 0L519 712L386 712L354 452C334 500 292 512 244 512C117 512 55 451 31 254C27 222 25 194 25 169C25 36 81 -8 190 -8ZM228 93C179 93 159 107 159 169C159 189 161 217 165 252C181 379 201 399 265 399C314 399 336 386 336 325C336 307 334 283 330 252C314 117 292 93 228 93ZM560 712L541 560L600 560L656 654L663 712Z"/>
<glyph unicode="&#x110;" horiz-adv-x="635" d="M30 305L80 305L43 0L302 0C523 0 581 85 613 354C618 398 621 438 621 473C621 656 546 712 370 712L130 712L93 409L42 409ZM367 588C451 588 481 568 481 479C481 448 478 411 471 360C442 136 421 110 308 110L193 110L217 305L331 305L344 409L230 409L252 588Z"/>
<glyph unicode="&#x111;" horiz-adv-x="513" d="M259 567L368 567L354 452C334 500 292 512 244 512C117 512 55 451 31 254C27 222 25 194 25 169C25 36 81 -8 190 -8C241 -8 285 8 312 59L305 0L432 0L501 567L549 567L559 644L511 644L519 712L386 712L378 644L269 644ZM228 93C179 93 159 107 159 169C159 189 161 217 165 252C181 379 201 399 265 399C314 399 336 386 336 325C336 307 334 283 330 252C314 117 292 93 228 93Z"/>
<glyph unicode="&#x112;" horiz-adv-x="519" d="M31 0L453 0L466 110L181 110L204 299L465 299L480 415L218 415L240 588L525 588L540 712L118 712ZM201 813L480 813L490 895L211 895Z"/>
<glyph unicode="&#x113;" horiz-adv-x="473" d="M224 -8C354 -8 409 55 429 155L311 155C299 104 277 90 226 90C177 90 156 102 156 167C156 183 157 202 159 225L441 225L445 251C467 428 426 512 266 512C112 512 53 438 30 250C27 223 25 199 25 177C25 43 86 -8 224 -8ZM263 403C314 403 332 386 327 311L172 311C189 390 215 403 263 403ZM140 605L419 605L429 687L150 687Z"/>
<glyph unicode="&#x114;" horiz-adv-x="519" d="M31 0L453 0L466 110L181 110L204 299L465 299L480 415L218 415L240 588L525 588L540 712L118 712ZM342 768C430 768 477 805 496 922L424 922C412 859 393 839 344 839C296 839 281 859 286 922L214 922C203 805 257 768 342 768Z"/>
<glyph unicode="&#x115;" horiz-adv-x="473" d="M224 -8C354 -8 409 55 429 155L311 155C299 104 277 90 226 90C177 90 156 102 156 167C156 183 157 202 159 225L441 225L445 251C467 428 426 512 266 512C112 512 53 438 30 250C27 223 25 199 25 177C25 43 86 -8 224 -8ZM263 403C314 403 332 386 327 311L172 311C189 390 215 403 263 403ZM281 560C369 560 416 597 435 714L363 714C351 651 332 631 283 631C235 631 220 651 225 714L153 714C142 597 196 560 281 560Z"/>
<glyph unicode="&#x116;" horiz-adv-x="519" d="M31 0L453 0L466 110L181 110L204 299L465 299L480 415L218 415L240 588L525 588L540 712L118 712ZM286 795L392 795L406 909L301 909Z"/>
<glyph unicode="&#x117;" horiz-adv-x="473" d="M224 -8C354 -8 409 55 429 155L311 155C299 104 277 90 226 90C177 90 156 102 156 167C156 183 157 202 159 225L441 225L445 251C467 428 426 512 266 512C112 512 53 438 30 250C27 223 25 199 25 177C25 43 86 -8 224 -8ZM263 403C314 403 332 386 327 311L172 311C189 390 215 403 263 403ZM225 587L331 587L345 701L240 701Z"/>
<glyph unicode="&#x118;" horiz-adv-x="519" d="M31 0L391 0C346 -40 286 -76 286 -138C286 -186 321 -216 390 -216L426 -216L435 -145L406 -145C377 -145 363 -133 363 -110C363 -71 395 -44 446 0L453 0L466 110L181 110L204 299L465 299L480 415L218 415L240 588L525 588L540 712L118 712Z"/>
<glyph unicode="&#x119;" horiz-adv-x="473" d="M271 -216L307 -216L316 -145L288 -145C259 -145 244 -132 244 -110C244 -72 277 -44 327 0L364 33C399 65 419 105 429 155L311 155C299 104 277 90 226 90C177 90 156 102 156 167C156 183 157 202 159 225L441 225L445 251C467 428 426 512 266 512C112 512 53 438 30 250C27 223 25 199 25 177C25 43 86 -8 224 -8C238 -8 252 -7 265 -5C220 -42 168 -80 168 -138C168 -186 202 -216 271 -216ZM263 403C314 403 332 386 327 311L172 311C189 390 215 403 263 403Z"/>
<glyph unicode="&#x11a;" horiz-adv-x="519" d="M31 0L453 0L466 110L181 110L204 299L465 299L480 415L218 415L240 588L525 588L540 712L118 712ZM289 776L385 776L517 932L420 932L343 835L291 932L197 932Z"/>
<glyph unicode="&#x11b;" horiz-adv-x="473" d="M224 -8C354 -8 409 55 429 155L311 155C299 104 277 90 226 90C177 90 156 102 156 167C156 183 157 202 159 225L441 225L445 251C467 428 426 512 266 512C112 512 53 438 30 250C27 223 25 199 25 177C25 43 86 -8 224 -8ZM263 403C314 403 332 386 327 311L172 311C189 390 215 403 263 403ZM228 568L324 568L456 724L359 724L282 627L230 724L136 724Z"/>
<glyph unicode="&#x11c;" horiz-adv-x="602" d="M313 276L438 276L436 259C420 126 390 98 291 98C211 98 178 112 178 206C178 242 183 292 192 360C219 566 238 600 353 600C433 600 466 578 461 488L593 488C601 644 555 724 357 724C146 724 86 651 49 360C42 309 39 266 39 227C39 50 110 -12 290 -12C491 -12 549 75 573 273L587 392L328 392ZM205 776L305 776L382 872L434 776L525 776L433 932L337 932Z"/>
<glyph unicode="&#x11d;" horiz-adv-x="515" d="M194 1C241 1 279 16 307 56L297 -25C288 -97 264 -115 207 -115C146 -115 138 -95 141 -39L15 -39C10 -151 49 -216 206 -216C351 -216 414 -157 431 -17L495 504L371 504L361 430C346 494 300 512 245 512C118 512 56 451 32 259C29 230 27 203 27 180C27 48 84 1 194 1ZM230 102C181 102 161 116 161 178C161 197 163 223 167 257C183 380 201 399 266 399C315 399 337 386 337 326C337 307 335 285 332 257C316 126 294 102 230 102ZM118 568L218 568L295 664L347 568L438 568L346 724L250 724Z"/>
<glyph unicode="&#x11e;" horiz-adv-x="602" d="M313 276L438 276L436 259C420 126 390 98 291 98C211 98 178 112 178 206C178 242 183 292 192 360C219 566 238 600 353 600C433 600 466 578 461 488L593 488C601 644 555 724 357 724C146 724 86 651 49 360C42 309 39 266 39 227C39 50 110 -12 290 -12C491 -12 549 75 573 273L587 392L328 392ZM371 768C459 768 506 805 525 922L453 922C441 859 422 839 373 839C325 839 310 859 315 922L243 922C232 805 286 768 371 768Z"/>
<glyph unicode="&#x11f;" horiz-adv-x="515" d="M194 1C241 1 279 16 307 56L297 -25C288 -97 264 -115 207 -115C146 -115 138 -95 141 -39L15 -39C10 -151 49 -216 206 -216C351 -216 414 -157 431 -17L495 504L371 504L361 430C346 494 300 512 245 512C118 512 56 451 32 259C29 230 27 203 27 180C27 48 84 1 194 1ZM230 102C181 102 161 116 161 178C161 197 163 223 167 257C183 380 201 399 266 399C315 399 337 386 337 326C337 307 335 285 332 257C316 126 294 102 230 102ZM284 560C372 560 419 597 438 714L366 714C354 651 335 631 286 631C238 631 223 651 228 714L156 714C145 597 199 560 284 560Z"/>
<glyph unicode="&#x120;" horiz-adv-x="602" d="M313 276L438 276L436 259C420 126 390 98 291 98C211 98 178 112 178 206C178 242 183 292 192 360C219 566 238 600 353 600C433 600 466 578 461 488L593 488C601 644 555 724 357 724C146 724 86 651 49 360C42 309 39 266 39 227C39 50 110 -12 290 -12C491 -12 549 75 573 273L587 392L328 392ZM315 795L421 795L435 909L330 909Z"/>
<glyph unicode="&#x121;" horiz-adv-x="515" d="M194 1C241 1 279 16 307 56L297 -25C288 -97 264 -115 207 -115C146 -115 138 -95 141 -39L15 -39C10 -151 49 -216 206 -216C351 -216 414 -157 431 -17L495 504L371 504L361 430C346 494 300 512 245 512C118 512 56 451 32 259C29 230 27 203 27 180C27 48 84 1 194 1ZM230 102C181 102 161 116 161 178C161 197 163 223 167 257C183 380 201 399 266 399C315 399 337 386 337 326C337 307 335 285 332 257C316 126 294 102 230 102ZM228 587L334 587L348 701L243 701Z"/>
<glyph unicode="&#x122;" horiz-adv-x="602" d="M313 276L438 276L436 259C420 126 390 98 291 98C211 98 178 112 178 206C178 242 183 292 192 360C219 566 238 600 353 600C433 600 466 578 461 488L593 488C601 644 555 724 357 724C146 724 86 651 49 360C42 309 39 266 39 227C39 50 110 -12 290 -12C491 -12 549 75 573 273L587 392L328 392ZM220 -56L201 -208L260 -208L316 -114L323 -56Z"/>
<glyph unicode="&#x123;" horiz-adv-x="515" d="M194 1C241 1 279 16 307 56L297 -25C288 -97 264 -115 207 -115C146 -115 138 -95 141 -39L15 -39C10 -151 49 -216 206 -216C351 -216 414 -157 431 -17L495 504L371 504L361 430C346 494 300 512 245 512C118 512 56 451 32 259C29 230 27 203 27 180C27 48 84 1 194 1ZM230 102C181 102 161 116 161 178C161 197 163 223 167 257C183 380 201 399 266 399C315 399 337 386 337 326C337 307 335 285 332 257C316 126 294 102 230 102ZM228 560L332 560L351 712L291 712L236 618Z"/>
<glyph unicode="&#x124;" horiz-adv-x="631" d="M31 0L168 0L204 299L437 299L401 0L538 0L625 712L488 712L451 415L218 415L255 712L118 712ZM218 776L318 776L395 872L447 776L538 776L446 932L350 932Z"/>
<glyph unicode="&#x125;" horiz-adv-x="502" d="M20 0L152 0L189 298C199 375 216 397 272 397C325 397 337 375 328 298L292 0L425 0L464 324C479 449 437 512 321 512C266 512 232 494 209 462L239 712L107 712ZM21 776L121 776L198 872L250 776L341 776L249 932L153 932Z"/>
<glyph unicode="&#x126;" horiz-adv-x="634" d="M50 511L95 511L33 0L170 0L206 299L439 299L403 0L539 0L601 511L647 511L660 614L614 614L626 712L490 712L478 614L245 614L257 712L120 712L108 614L63 614ZM232 511L465 511L453 415L220 415Z"/>
<glyph unicode="&#x127;" horiz-adv-x="502" d="M40 567L89 567L20 0L152 0L189 298C199 375 216 397 272 397C325 397 337 375 328 298L292 0L425 0L464 324C479 449 437 512 321 512C266 512 232 494 209 462L221 567L330 567L341 644L231 644L239 712L107 712L99 644L50 644Z"/>
<glyph unicode="&#x128;" horiz-adv-x="261" d="M31 0L168 0L255 712L118 712ZM59 792L128 792L132 823C134 838 139 845 148 845C180 845 203 790 255 790C296 790 325 812 332 864L339 920L271 920L267 889C265 874 260 867 251 867C217 867 195 922 144 922C103 922 73 900 66 848Z"/>
<glyph unicode="&#x129;" horiz-adv-x="233" d="M19 0L151 0L213 504L81 504ZM24 584L93 584L97 615C99 630 104 637 113 637C145 637 168 582 220 582C261 582 290 604 297 656L304 712L236 712L232 681C230 666 225 659 216 659C182 659 160 714 109 714C68 714 38 692 31 640Z"/>
<glyph unicode="&#x12a;" horiz-adv-x="261" d="M31 0L168 0L255 712L118 712ZM56 813L335 813L345 895L66 895Z"/>
<glyph unicode="&#x12b;" horiz-adv-x="233" d="M19 0L151 0L213 504L81 504ZM21 605L300 605L310 687L31 687Z"/>
<glyph unicode="&#x12c;" horiz-adv-x="261" d="M31 0L168 0L255 712L118 712ZM197 768C285 768 332 805 351 922L279 922C267 859 248 839 199 839C151 839 136 859 141 922L69 922C58 805 112 768 197 768Z"/>
<glyph unicode="&#x12d;" horiz-adv-x="233" d="M19 0L151 0L213 504L81 504ZM162 560C250 560 297 597 316 714L244 714C232 651 213 631 164 631C116 631 101 651 106 714L34 714C23 597 77 560 162 560Z"/>
<glyph unicode="&#x12e;" horiz-adv-x="261" d="M31 0L113 0C66 -39 8 -76 8 -138C8 -186 41 -216 112 -216L148 -216L156 -145L128 -145C99 -145 85 -133 85 -110C85 -71 117 -44 168 0L255 712L118 712Z"/>
<glyph unicode="&#x12f;" horiz-adv-x="233" d="M19 0L97 0C50 -39 -8 -76 -8 -138C-8 -186 26 -216 95 -216L131 -216L140 -145L111 -145C82 -145 68 -133 68 -110C68 -71 100 -44 151 0L213 504L81 504ZM91 592L224 592L238 712L106 712Z"/>
<glyph unicode="&#x130;" horiz-adv-x="261" d="M31 0L168 0L255 712L118 712ZM141 795L247 795L261 909L156 909Z"/>
<glyph unicode="&#x131;" horiz-adv-x="233" d="M19 0L151 0L213 504L81 504Z"/>
<glyph unicode="&#x132;" horiz-adv-x="656" d="M31 0L168 0L255 712L118 712ZM252 110L239 0L351 0C519 0 577 78 594 217L655 712L518 712L456 203C448 135 410 110 343 110Z"/>
<glyph unicode="&#x133;" horiz-adv-x="459" d="M91 592L224 592L238 712L106 712ZM19 0L151 0L213 504L81 504ZM317 592L450 592L464 712L332 712ZM240 -42C234 -87 212 -107 167 -107L134 -107L122 -208L175 -208C300 -208 359 -149 374 -25L439 504L307 504Z"/>
<glyph unicode="&#x134;" horiz-adv-x="402" d="M-2 110L-15 0L97 0C265 0 323 78 340 217L401 712L264 712L202 203C194 135 156 110 89 110ZM179 776L279 776L356 872L408 776L499 776L407 932L311 932Z"/>
<glyph unicode="&#x135;" horiz-adv-x="233" d="M14 -42C7 -87 -14 -107 -59 -107L-92 -107L-104 -208L-51 -208C74 -208 133 -149 148 -25L213 504L81 504ZM-4 568L96 568L173 664L225 568L316 568L224 724L128 724Z"/>
<glyph unicode="&#x136;" horiz-adv-x="590" d="M31 0L168 0L192 200L282 306L415 0L562 0L382 407L646 712L490 712L215 386L255 712L118 712ZM222 -56L203 -208L262 -208L318 -114L325 -56Z"/>
<glyph unicode="&#x137;" horiz-adv-x="484" d="M20 0L152 0L168 131L229 199L314 0L457 0L327 297L519 504L375 504L188 299L239 712L107 712ZM175 -56L156 -208L215 -208L271 -114L278 -56Z"/>
<glyph unicode="&#x139;" horiz-adv-x="483" d="M31 0L442 0L455 110L181 110L255 712L118 712ZM137 776L226 776L359 932L230 932Z"/>
<glyph unicode="&#x13a;" horiz-adv-x="233" d="M20 0L152 0L239 712L107 712ZM121 776L210 776L343 932L214 932Z"/>
<glyph unicode="&#x13b;" horiz-adv-x="483" d="M31 0L442 0L455 110L181 110L255 712L118 712ZM181 -56L162 -208L221 -208L277 -114L284 -56Z"/>
<glyph unicode="&#x13c;" horiz-adv-x="233" d="M20 0L152 0L239 712L107 712ZM32 -56L13 -208L72 -208L128 -114L135 -56Z"/>
<glyph unicode="&#x13d;" horiz-adv-x="488" d="M31 0L442 0L455 110L181 110L255 712L118 712ZM397 712L378 560L437 560L493 654L500 712Z"/>
<glyph unicode="&#x13e;" horiz-adv-x="243" d="M20 0L152 0L239 712L107 712ZM279 712L260 560L319 560L375 654L382 712Z"/>
<glyph unicode="&#x13f;" horiz-adv-x="488" d="M31 0L442 0L455 110L181 110L255 712L118 712ZM342 303L448 303L462 417L357 417Z"/>
<glyph unicode="&#x140;" horiz-adv-x="317" d="M20 0L152 0L239 712L107 712ZM228 303L334 303L348 417L243 417Z"/>
<glyph unicode="&#x141;" horiz-adv-x="500" d="M9 189L77 234L49 0L459 0L472 110L198 110L225 332L399 447L413 560L239 445L272 712L136 712L91 348L22 302Z"/>
<glyph unicode="&#x142;" horiz-adv-x="280" d="M16 233L77 273L44 0L176 0L221 368L283 409L294 498L232 457L263 712L131 712L88 363L26 322Z"/>
<glyph unicode="&#x143;" horiz-adv-x="631" d="M31 0L159 0L216 473L397 0L538 0L625 712L497 712L439 239L259 712L118 712ZM324 776L413 776L546 932L417 932Z"/>
<glyph unicode="&#x144;" horiz-adv-x="501" d="M19 0L151 0L188 298C198 375 215 397 271 397C324 397 336 375 327 298L291 0L424 0L463 324C478 449 436 512 320 512C257 512 220 489 200 449L207 504L81 504ZM229 568L318 568L451 724L322 724Z"/>
<glyph unicode="&#x145;" horiz-adv-x="631" d="M31 0L159 0L216 473L397 0L538 0L625 712L497 712L439 239L259 712L118 712ZM239 -56L220 -208L279 -208L335 -114L342 -56Z"/>
<glyph unicode="&#x146;" horiz-adv-x="501" d="M19 0L151 0L188 298C198 375 215 397 271 397C324 397 336 375 327 298L291 0L424 0L463 324C478 449 436 512 320 512C257 512 220 489 200 449L207 504L81 504ZM164 -56L145 -208L204 -208L260 -114L267 -56Z"/>
<glyph unicode="&#x147;" horiz-adv-x="631" d="M31 0L159 0L216 473L397 0L538 0L625 712L497 712L439 239L259 712L118 712ZM335 776L431 776L563 932L466 932L389 835L337 932L243 932Z"/>
<glyph unicode="&#x148;" horiz-adv-x="501" d="M19 0L151 0L188 298C198 375 215 397 271 397C324 397 336 375 327 298L291 0L424 0L463 324C478 449 436 512 320 512C257 512 220 489 200 449L207 504L81 504ZM240 568L336 568L468 724L371 724L294 627L242 724L148 724Z"/>
<glyph unicode="&#x149;" horiz-adv-x="501" d="M19 0L151 0L188 298C198 375 215 397 271 397C324 397 336 375 327 298L291 0L424 0L463 324C478 449 436 512 320 512C257 512 220 489 200 449L207 504L81 504ZM90 560L149 560L205 654L212 712L109 712Z"/>
<glyph unicode="&#x14a;" horiz-adv-x="630" d="M31 0L159 0L218 489L411 16L409 -5C401 -73 371 -98 303 -98L248 -98L235 -208L301 -208C461 -208 521 -130 538 9L625 712L497 712L443 272L263 712L118 712Z"/>
<glyph unicode="&#x14b;" horiz-adv-x="501" d="M179 -107L167 -208L220 -208C348 -208 406 -149 421 -25L463 324C478 449 436 512 320 512C257 512 220 489 200 449L207 504L81 504L19 0L151 0L188 298C198 378 217 397 271 397C324 397 336 375 327 298L286 -42C281 -85 257 -107 213 -107Z"/>
<glyph unicode="&#x14c;" horiz-adv-x="620" d="M290 -12C511 -12 563 73 598 354C604 403 607 446 607 484C607 669 532 724 357 724C146 724 86 654 49 362C42 311 39 268 39 229C39 50 110 -12 290 -12ZM291 98C211 98 178 112 178 206C178 242 183 292 191 360C217 566 238 600 353 600C437 600 467 581 467 490C467 458 463 416 456 360C427 125 406 98 291 98ZM234 813L513 813L523 895L244 895Z"/>
<glyph unicode="&#x14d;" horiz-adv-x="497" d="M224 -8C387 -8 444 53 465 248C468 275 471 303 471 326C471 462 410 512 273 512C110 512 53 455 31 256C28 229 25 201 25 178C25 42 85 -8 224 -8ZM228 93C179 93 158 106 158 167C158 188 161 217 165 252C180 379 200 399 265 399C314 399 336 387 336 326C336 306 333 279 329 243C313 115 293 93 228 93ZM148 605L427 605L437 687L158 687Z"/>
<glyph unicode="&#x14e;" horiz-adv-x="620" d="M290 -12C511 -12 563 73 598 354C604 403 607 446 607 484C607 669 532 724 357 724C146 724 86 654 49 362C42 311 39 268 39 229C39 50 110 -12 290 -12ZM291 98C211 98 178 112 178 206C178 242 183 292 191 360C217 566 238 600 353 600C437 600 467 581 467 490C467 458 463 416 456 360C427 125 406 98 291 98ZM375 768C463 768 510 805 529 922L457 922C445 859 426 839 377 839C329 839 314 859 319 922L247 922C236 805 290 768 375 768Z"/>
<glyph unicode="&#x14f;" horiz-adv-x="497" d="M224 -8C387 -8 444 53 465 248C468 275 471 303 471 326C471 462 410 512 273 512C110 512 53 455 31 256C28 229 25 201 25 178C25 42 85 -8 224 -8ZM228 93C179 93 158 106 158 167C158 188 161 217 165 252C180 379 200 399 265 399C314 399 336 387 336 326C336 306 333 279 329 243C313 115 293 93 228 93ZM289 560C377 560 424 597 443 714L371 714C359 651 340 631 291 631C243 631 228 651 233 714L161 714C150 597 204 560 289 560Z"/>
<glyph unicode="&#x150;" horiz-adv-x="620" d="M290 -12C511 -12 563 73 598 354C604 403 607 446 607 484C607 669 532 724 357 724C146 724 86 654 49 362C42 311 39 268 39 229C39 50 110 -12 290 -12ZM291 98C211 98 178 112 178 206C178 242 183 292 191 360C217 566 238 600 353 600C437 600 467 581 467 490C467 458 463 416 456 360C427 125 406 98 291 98ZM393 776L482 776L615 932L487 932ZM219 776L308 776L442 932L313 932Z"/>
<glyph unicode="&#x151;" horiz-adv-x="497" d="M224 -8C387 -8 444 53 465 248C468 275 471 303 471 326C471 462 410 512 273 512C110 512 53 455 31 256C28 229 25 201 25 178C25 42 85 -8 224 -8ZM228 93C179 93 158 106 158 167C158 188 161 217 165 252C180 379 200 399 265 399C314 399 336 387 336 326C336 306 333 279 329 243C313 115 293 93 228 93ZM307 568L396 568L529 724L401 724ZM133 568L222 568L356 724L227 724Z"/>
<glyph unicode="&#x152;" horiz-adv-x="880" d="M816 0L829 110L543 110L567 303L821 303L836 417L581 417L602 590L888 590L903 712L354 712C143 712 83 637 48 358C42 313 39 273 39 238C39 62 112 0 296 0ZM179 218C179 251 183 299 191 360C215 554 239 588 351 588L466 588L407 110L292 110C209 110 179 124 179 218Z"/>
<glyph unicode="&#x153;" horiz-adv-x="772" d="M522 -8C652 -8 707 55 727 155L609 155C597 104 575 90 525 90C476 90 456 102 456 167C456 183 457 202 459 225L740 225L743 251C765 428 724 512 565 512C500 512 452 494 417 455C389 494 342 512 271 512C110 512 55 453 31 254C27 225 25 199 25 175C25 41 86 -8 224 -8C296 -8 345 9 378 47C407 8 456 -8 522 -8ZM228 93C179 93 158 105 158 167C158 188 161 216 165 252C179 379 200 399 265 399C315 399 336 386 336 326C336 307 334 283 330 252C314 115 293 93 228 93ZM561 403C612 403 631 386 626 311L472 311C489 390 514 403 561 403Z"/>
<glyph unicode="&#x154;" horiz-adv-x="574" d="M31 0L168 0L198 247L288 247L381 0L526 0L419 268C506 284 551 340 564 479C566 497 567 514 567 530C567 666 497 712 363 712L118 712ZM338 588C399 588 425 578 425 519C425 508 424 494 422 478C409 373 384 363 314 363L212 363L239 588ZM281 776L370 776L503 932L374 932Z"/>
<glyph unicode="&#x155;" horiz-adv-x="319" d="M17 0L149 0L190 335C195 378 214 395 257 395L323 395L337 504L245 504C120 504 72 453 57 330ZM174 570L263 570L396 726L267 726Z"/>
<glyph unicode="&#x156;" horiz-adv-x="574" d="M31 0L168 0L198 247L288 247L381 0L526 0L419 268C506 284 551 340 564 479C566 497 567 514 567 530C567 666 497 712 363 712L118 712ZM338 588C399 588 425 578 425 519C425 508 424 494 422 478C409 373 384 363 314 363L212 363L239 588ZM210 -56L191 -208L250 -208L306 -114L313 -56Z"/>
<glyph unicode="&#x157;" horiz-adv-x="319" d="M17 0L149 0L190 335C195 378 214 395 257 395L323 395L337 504L245 504C120 504 72 453 57 330ZM28 -56L9 -208L68 -208L124 -114L131 -56Z"/>
<glyph unicode="&#x158;" horiz-adv-x="574" d="M31 0L168 0L198 247L288 247L381 0L526 0L419 268C506 284 551 340 564 479C566 497 567 514 567 530C567 666 497 712 363 712L118 712ZM338 588C399 588 425 578 425 519C425 508 424 494 422 478C409 373 384 363 314 363L212 363L239 588ZM292 776L388 776L520 932L423 932L346 835L294 932L200 932Z"/>
<glyph unicode="&#x159;" horiz-adv-x="319" d="M17 0L149 0L190 335C195 378 214 395 257 395L323 395L337 504L245 504C120 504 72 453 57 330ZM185 570L281 570L413 726L316 726L239 629L187 726L93 726Z"/>
<glyph unicode="&#x15a;" horiz-adv-x="546" d="M25 219C12 51 75 -12 251 -12C426 -12 512 64 512 227C512 326 458 377 351 404L297 418C233 434 204 448 204 497C204 570 241 600 310 600C387 600 410 581 405 488L538 488C551 651 501 724 316 724C140 724 64 633 64 476C64 369 121 325 226 298L280 284C344 268 371 251 371 204C371 125 327 98 259 98C174 98 154 127 159 219ZM276 776L365 776L498 932L369 932Z"/>
<glyph unicode="&#x15b;" horiz-adv-x="440" d="M16 153C11 62 36 -8 192 -8C323 -8 402 36 402 164C402 233 365 275 291 291L231 303C184 312 169 323 169 350C169 399 196 407 241 407C292 407 305 396 300 341L416 341C431 461 380 512 243 512C116 512 41 458 41 334C41 255 87 217 155 202L214 190C258 181 273 174 273 146C273 97 246 86 199 86C148 86 130 100 134 153ZM195 568L284 568L417 724L288 724Z"/>
<glyph unicode="&#x15c;" horiz-adv-x="546" d="M25 219C12 51 75 -12 251 -12C426 -12 512 64 512 227C512 326 458 377 351 404L297 418C233 434 204 448 204 497C204 570 241 600 310 600C387 600 410 581 405 488L538 488C551 651 501 724 316 724C140 724 64 633 64 476C64 369 121 325 226 298L280 284C344 268 371 251 371 204C371 125 327 98 259 98C174 98 154 127 159 219ZM174 776L274 776L351 872L403 776L494 776L402 932L306 932Z"/>
<glyph unicode="&#x15d;" horiz-adv-x="440" d="M16 153C11 62 36 -8 192 -8C323 -8 402 36 402 164C402 233 365 275 291 291L231 303C184 312 169 323 169 350C169 399 196 407 241 407C292 407 305 396 300 341L416 341C431 461 380 512 243 512C116 512 41 458 41 334C41 255 87 217 155 202L214 190C258 181 273 174 273 146C273 97 246 86 199 86C148 86 130 100 134 153ZM93 568L193 568L270 664L322 568L413 568L321 724L225 724Z"/>
<glyph unicode="&#x15e;" horiz-adv-x="546" d="M190 -87L226 -87C258 -87 271 -96 271 -117C271 -152 248 -159 217 -159L159 -159L152 -216L230 -216C306 -216 357 -185 357 -113C357 -73 335 -37 263 -34L266 -12C431 -7 512 68 512 227C512 326 458 377 351 404L297 418C233 434 204 448 204 497C204 570 241 600 310 600C387 600 410 581 405 488L538 488C551 651 501 724 316 724C140 724 64 633 64 476C64 369 121 325 226 298L280 284C344 268 371 251 371 204C371 125 327 98 259 98C174 98 154 127 159 219L25 219C12 60 68 -4 222 -11Z"/>
<glyph unicode="&#x15f;" horiz-adv-x="440" d="M133 -87L169 -87C201 -87 214 -96 214 -117C214 -152 191 -159 160 -159L102 -159L95 -216L173 -216C249 -216 300 -185 300 -113C300 -73 278 -37 206 -34L210 -7C330 -3 402 42 402 164C402 233 365 275 291 291L231 303C184 312 169 323 169 350C169 399 196 407 241 407C292 407 305 396 300 341L416 341C431 461 380 512 243 512C116 512 41 458 41 334C41 255 87 217 155 202L214 190C258 181 273 174 273 146C273 97 246 86 199 86C148 86 130 100 134 153L16 153C11 67 33 0 167 -7Z"/>
<glyph unicode="&#x160;" horiz-adv-x="546" d="M25 219C12 51 75 -12 251 -12C426 -12 512 64 512 227C512 326 458 377 351 404L297 418C233 434 204 448 204 497C204 570 241 600 310 600C387 600 410 581 405 488L538 488C551 651 501 724 316 724C140 724 64 633 64 476C64 369 121 325 226 298L280 284C344 268 371 251 371 204C371 125 327 98 259 98C174 98 154 127 159 219ZM287 776L383 776L515 932L418 932L341 835L289 932L195 932Z"/>
<glyph unicode="&#x161;" horiz-adv-x="440" d="M16 153C11 62 36 -8 192 -8C323 -8 402 36 402 164C402 233 365 275 291 291L231 303C184 312 169 323 169 350C169 399 196 407 241 407C292 407 305 396 300 341L416 341C431 461 380 512 243 512C116 512 41 458 41 334C41 255 87 217 155 202L214 190C258 181 273 174 273 146C273 97 246 86 199 86C148 86 130 100 134 153ZM206 568L302 568L434 724L337 724L260 627L208 724L114 724Z"/>
<glyph unicode="&#x162;" horiz-adv-x="527" d="M174 -87L210 -87C242 -87 255 -96 255 -117C255 -152 232 -159 201 -159L143 -159L136 -216L214 -216C290 -216 341 -185 341 -113C341 -73 319 -37 247 -34L252 0L302 0L374 588L554 588L569 712L70 712L55 588L235 588L163 0L211 0Z"/>
<glyph unicode="&#x163;" horiz-adv-x="339" d="M115 -87L151 -87C183 -87 196 -96 196 -117C196 -152 173 -159 142 -159L84 -159L77 -216L155 -216C231 -216 282 -185 282 -113C282 -73 260 -37 188 -34L192 1C201 0 210 0 221 0L291 0L303 101L250 101C201 101 185 113 192 168L220 395L342 395L355 504L233 504L248 624L120 624L105 504L44 504L30 395L88 395L61 175C48 74 78 23 151 6Z"/>
<glyph unicode="&#x164;" horiz-adv-x="527" d="M55 588L235 588L163 0L302 0L374 588L554 588L569 712L70 712ZM281 776L377 776L509 932L412 932L335 835L283 932L189 932Z"/>
<glyph unicode="&#x165;" horiz-adv-x="339" d="M30 395L88 395L61 175C45 47 97 0 221 0L291 0L303 101L250 101C201 101 185 113 192 168L220 395L342 395L355 504L233 504L248 624L120 624L105 504L44 504ZM307 712L288 560L347 560L403 654L410 712Z"/>
<glyph unicode="&#x166;" horiz-adv-x="547" d="M65 588L245 588L223 409L89 409L76 305L210 305L173 0L312 0L349 305L484 305L496 409L362 409L384 588L564 588L579 712L80 712Z"/>
<glyph unicode="&#x167;" horiz-adv-x="345" d="M34 395L91 395L78 292L20 292L11 215L69 215L64 175C49 47 101 0 225 0L295 0L306 101L253 101C205 101 189 113 196 168L202 215L323 215L332 292L211 292L224 395L345 395L359 504L237 504L252 624L123 624L109 504L47 504Z"/>
<glyph unicode="&#x168;" horiz-adv-x="626" d="M55 229C35 70 104 -12 291 -12C479 -12 547 70 566 229L625 712L489 712L429 226C417 129 378 98 294 98C210 98 179 129 191 226L251 712L114 712ZM245 792L314 792L318 823C320 838 325 845 334 845C366 845 389 790 441 790C482 790 511 812 518 864L525 920L457 920L453 889C451 874 446 867 437 867C403 867 381 922 330 922C289 922 259 900 252 848Z"/>
<glyph unicode="&#x169;" horiz-adv-x="504" d="M79 504L38 180C22 55 61 -8 177 -8C241 -8 281 16 302 57L296 0L422 0L484 504L351 504L312 194C302 113 283 93 229 93C177 93 163 114 173 194L211 504ZM153 584L222 584L226 615C228 630 233 637 242 637C274 637 297 582 349 582C390 582 419 604 426 656L433 712L365 712L361 681C359 666 354 659 345 659C311 659 289 714 238 714C197 714 167 692 160 640Z"/>
<glyph unicode="&#x16a;" horiz-adv-x="626" d="M55 229C35 70 104 -12 291 -12C479 -12 547 70 566 229L625 712L489 712L429 226C417 129 378 98 294 98C210 98 179 129 191 226L251 712L114 712ZM242 813L521 813L531 895L252 895Z"/>
<glyph unicode="&#x16b;" horiz-adv-x="504" d="M79 504L38 180C22 55 61 -8 177 -8C241 -8 281 16 302 57L296 0L422 0L484 504L351 504L312 194C302 113 283 93 229 93C177 93 163 114 173 194L211 504ZM150 605L429 605L439 687L160 687Z"/>
<glyph unicode="&#x16c;" horiz-adv-x="626" d="M55 229C35 70 104 -12 291 -12C479 -12 547 70 566 229L625 712L489 712L429 226C417 129 378 98 294 98C210 98 179 129 191 226L251 712L114 712ZM383 768C471 768 518 805 537 922L465 922C453 859 434 839 385 839C337 839 322 859 327 922L255 922C244 805 298 768 383 768Z"/>
<glyph unicode="&#x16d;" horiz-adv-x="504" d="M79 504L38 180C22 55 61 -8 177 -8C241 -8 281 16 302 57L296 0L422 0L484 504L351 504L312 194C302 113 283 93 229 93C177 93 163 114 173 194L211 504ZM291 560C379 560 426 597 445 714L373 714C361 651 342 631 293 631C245 631 230 651 235 714L163 714C152 597 206 560 291 560Z"/>
<glyph unicode="&#x16e;" horiz-adv-x="626" d="M55 229C35 70 104 -12 291 -12C479 -12 547 70 566 229L625 712L489 712L429 226C417 129 378 98 294 98C210 98 179 129 191 226L251 712L114 712ZM383 819C350 819 341 831 341 854C341 895 351 922 395 922C428 922 437 910 437 887C437 846 427 819 383 819ZM380 768C464 768 494 821 494 888C494 945 462 973 398 973C314 973 284 920 284 853C284 796 316 768 380 768Z"/>
<glyph unicode="&#x16f;" horiz-adv-x="504" d="M79 504L38 180C22 55 61 -8 177 -8C241 -8 281 16 302 57L296 0L422 0L484 504L351 504L312 194C302 113 283 93 229 93C177 93 163 114 173 194L211 504ZM291 611C258 611 249 623 249 646C249 687 259 714 303 714C336 714 345 702 345 679C345 638 335 611 291 611ZM288 560C372 560 402 613 402 680C402 737 370 765 306 765C222 765 192 712 192 645C192 588 224 560 288 560Z"/>
<glyph unicode="&#x170;" horiz-adv-x="626" d="M55 229C35 70 104 -12 291 -12C479 -12 547 70 566 229L625 712L489 712L429 226C417 129 378 98 294 98C210 98 179 129 191 226L251 712L114 712ZM401 776L490 776L623 932L495 932ZM227 776L316 776L450 932L321 932Z"/>
<glyph unicode="&#x171;" horiz-adv-x="504" d="M79 504L38 180C22 55 61 -8 177 -8C241 -8 281 16 302 57L296 0L422 0L484 504L351 504L312 194C302 113 283 93 229 93C177 93 163 114 173 194L211 504ZM309 568L398 568L531 724L403 724ZM135 568L224 568L358 724L229 724Z"/>
<glyph unicode="&#x172;" horiz-adv-x="626" d="M361 -216L369 -145L341 -145C312 -145 298 -133 298 -110C298 -73 328 -46 375 -5C499 16 550 96 566 229L625 712L489 712L429 226C417 129 378 98 294 98C210 98 179 129 191 226L251 712L114 712L55 229C35 70 104 -12 291 -12C298 -12 305 -11 312 -11C267 -45 221 -83 221 -138C221 -186 254 -216 325 -216Z"/>
<glyph unicode="&#x173;" horiz-adv-x="504" d="M402 -216L411 -145L382 -145C353 -145 339 -133 339 -110C339 -71 371 -44 422 0L484 504L351 504L312 194C302 113 283 93 229 93C177 93 163 114 173 194L211 504L79 504L38 180C22 55 61 -8 177 -8C241 -8 281 16 302 57L296 0L367 0C322 -40 262 -76 262 -138C262 -186 295 -216 366 -216Z"/>
<glyph unicode="&#x174;" horiz-adv-x="897" d="M146 0L308 0L477 447L534 0L690 0L948 712L818 712L628 163L563 712L457 712L254 161L198 712L62 712ZM351 776L451 776L528 872L580 776L671 776L579 932L483 932Z"/>
<glyph unicode="&#x175;" horiz-adv-x="722" d="M118 0L246 0L366 285L416 0L541 0L749 504L626 504L502 176L448 504L346 504L210 176L168 504L35 504ZM239 568L339 568L416 664L468 568L559 568L467 724L371 724Z"/>
<glyph unicode="&#x176;" horiz-adv-x="559" d="M181 0L318 0L349 267L611 712L477 712L302 414L202 712L61 712L213 272ZM189 776L289 776L366 872L418 776L509 776L417 932L321 932Z"/>
<glyph unicode="&#x177;" horiz-adv-x="470" d="M1 -107L-11 -208L47 -208C160 -208 199 -153 247 -48L500 504L377 504L232 169L169 504L36 504L148 -10L136 -39C113 -95 87 -107 42 -107ZM117 568L217 568L294 664L346 568L437 568L345 724L249 724Z"/>
<glyph unicode="&#x178;" horiz-adv-x="559" d="M181 0L318 0L349 267L611 712L477 712L302 414L202 712L61 712L213 272ZM391 795L497 795L511 909L406 909ZM207 795L313 795L327 909L222 909Z"/>
<glyph unicode="&#x179;" horiz-adv-x="498" d="M62 588L347 588L7 83L-3 0L442 0L455 110L176 110L525 629L535 712L77 712ZM254 776L343 776L476 932L347 932Z"/>
<glyph unicode="&#x17a;" horiz-adv-x="416" d="M44 395L241 395L7 72L-1 0L357 0L369 101L172 101L413 432L423 504L58 504ZM185 568L274 568L407 724L278 724Z"/>
<glyph unicode="&#x17b;" horiz-adv-x="498" d="M62 588L347 588L7 83L-3 0L442 0L455 110L176 110L525 629L535 712L77 712ZM262 795L368 795L382 909L277 909Z"/>
<glyph unicode="&#x17c;" horiz-adv-x="416" d="M44 395L241 395L7 72L-1 0L357 0L369 101L172 101L413 432L423 504L58 504ZM193 587L299 587L313 701L208 701Z"/>
<glyph unicode="&#x17d;" horiz-adv-x="498" d="M62 588L347 588L7 83L-3 0L442 0L455 110L176 110L525 629L535 712L77 712ZM265 776L361 776L493 932L396 932L319 835L267 932L173 932Z"/>
<glyph unicode="&#x17e;" horiz-adv-x="416" d="M44 395L241 395L7 72L-1 0L357 0L369 101L172 101L413 432L423 504L58 504ZM196 568L292 568L424 724L327 724L250 627L198 724L104 724Z"/>
<glyph unicode="&#x17f;" horiz-adv-x="279" d="M36 395L94 395L46 0L178 0L244 539C250 586 272 599 309 599L372 599L386 712L295 712C182 712 126 660 113 547L108 504L50 504Z"/>
<glyph unicode="&#x18f;" horiz-adv-x="604" d="M33 223C33 44 104 -12 273 -12C493 -12 549 74 581 354C586 403 591 446 591 483C591 669 516 724 340 724C139 724 91 644 62 487L198 487C214 570 242 600 334 600C418 600 451 580 451 489C451 462 449 433 444 396L47 396L41 347C36 300 33 260 33 223ZM276 98C200 98 170 114 170 210C170 230 171 254 174 282L429 282C405 119 374 98 276 98Z"/>
<glyph unicode="&#x192;" horiz-adv-x="560" d="M86 301L205 301L166 -20C158 -83 135 -98 86 -98L20 -98L6 -208L105 -208C222 -208 284 -155 299 -31L339 301L483 301L496 410L353 410L367 524C375 585 398 599 447 599L514 599L528 712L428 712C311 712 249 659 234 535L219 410L100 410Z"/>
<glyph unicode="&#x1fc;" horiz-adv-x="841" d="M-28 0L110 0L171 140L373 140L356 0L777 0L791 113L506 113L529 302L783 302L797 415L543 415L564 589L849 589L864 712L294 712ZM369 589L428 589L387 254L221 254ZM465 776L554 776L687 932L558 932Z"/>
<glyph unicode="&#x1fd;" horiz-adv-x="728" d="M150 -8C226 -8 276 19 300 68C329 14 387 -8 478 -8C608 -8 663 55 683 155L565 155C553 104 531 90 481 90C432 90 410 102 410 167C410 183 411 202 413 225L696 225L699 251C721 428 680 512 521 512C460 512 414 498 380 469C356 495 316 512 254 512C112 512 63 449 46 337L163 337C171 394 192 405 241 405C292 405 301 385 293 326L290 306L227 294C108 272 8 243 8 119C8 38 62 -8 150 -8ZM274 169C267 111 240 87 191 87C155 87 140 107 140 138C140 195 194 204 239 211L280 217ZM517 403C568 403 587 386 582 311L426 311C443 390 470 403 517 403ZM337 568L426 568L559 724L430 724Z"/>
<glyph unicode="&#x1fe;" horiz-adv-x="622" d="M-1 0L74 71C111 11 178 -12 291 -12C512 -12 567 73 599 354C604 403 608 445 608 484C608 516 605 544 601 569L637 603L650 712L575 641C536 702 467 724 358 724C148 724 84 654 49 362C43 312 40 268 40 229C40 195 42 166 47 143L11 109ZM292 98C222 98 188 108 180 172L465 440L457 360C433 123 406 98 292 98ZM192 360C216 566 239 600 354 600C422 600 452 587 463 535L182 271ZM312 776L401 776L534 932L405 932Z"/>
<glyph unicode="&#x1ff;" horiz-adv-x="501" d="M-3 0L60 52C91 9 143 -8 227 -8C390 -8 445 53 469 248C473 276 475 302 475 326C475 352 473 374 468 393L497 417L508 504L444 451C413 494 360 512 277 512C117 512 59 455 35 256C32 227 30 200 30 176C30 151 32 130 36 111L7 87ZM232 93C191 93 172 101 165 140L338 284L335 252C322 115 297 93 232 93ZM170 252C187 378 204 399 270 399C307 399 328 392 337 361L166 219C167 230 168 240 170 252ZM232 568L321 568L454 724L325 724Z"/>
<glyph unicode="&#x218;" horiz-adv-x="546" d="M25 219C12 51 75 -12 251 -12C426 -12 512 64 512 227C512 326 458 377 351 404L297 418C233 434 204 448 204 497C204 570 241 600 310 600C387 600 410 581 405 488L538 488C551 651 501 724 316 724C140 724 64 633 64 476C64 369 121 325 226 298L280 284C344 268 371 251 371 204C371 125 327 98 259 98C174 98 154 127 159 219ZM191 -56L172 -208L231 -208L287 -114L294 -56Z"/>
<glyph unicode="&#x219;" horiz-adv-x="440" d="M16 153C11 62 36 -8 192 -8C323 -8 402 36 402 164C402 233 365 275 291 291L231 303C184 312 169 323 169 350C169 399 196 407 241 407C292 407 305 396 300 341L416 341C431 461 380 512 243 512C116 512 41 458 41 334C41 255 87 217 155 202L214 190C258 181 273 174 273 146C273 97 246 86 199 86C148 86 130 100 134 153ZM134 -56L115 -208L174 -208L230 -114L237 -56Z"/>
<glyph unicode="&#x21a;" horiz-adv-x="527" d="M55 588L235 588L163 0L302 0L374 588L554 588L569 712L70 712ZM175 -56L156 -208L215 -208L271 -114L278 -56Z"/>
<glyph unicode="&#x21b;" horiz-adv-x="339" d="M30 395L88 395L61 175C45 47 97 0 221 0L291 0L303 101L250 101C201 101 185 113 192 168L220 395L342 395L355 504L233 504L248 624L120 624L105 504L44 504ZM116 -56L97 -208L156 -208L212 -114L219 -56Z"/>
<glyph unicode="&#x237;" horiz-adv-x="233" d="M14 -42C7 -87 -14 -107 -59 -107L-92 -107L-104 -208L-51 -208C74 -208 133 -149 148 -25L213 504L81 504Z"/>
<glyph unicode="&#x259;" horiz-adv-x="472" d="M205 -8C359 -8 422 65 442 254C445 279 446 302 446 323C446 460 388 512 248 512C122 512 65 447 44 346L164 346C175 387 197 403 244 403C293 403 315 391 315 328C315 314 313 297 311 277L30 277L27 253C24 224 22 200 22 176C22 53 71 -8 205 -8ZM208 90C165 90 146 109 146 166C146 174 146 182 147 191L299 191C281 104 255 90 208 90Z"/>
<glyph unicode="&#x2c6;" horiz-adv-x="489" d="M118 568L218 568L295 664L347 568L438 568L346 724L250 724Z"/>
<glyph unicode="&#x2c7;" horiz-adv-x="489" d="M231 568L327 568L459 724L362 724L285 627L233 724L139 724Z"/>
<glyph unicode="&#x2c9;" horiz-adv-x="489" d="M143 605L422 605L432 687L153 687Z"/>
<glyph unicode="&#x2d8;" horiz-adv-x="489" d="M284 560C372 560 419 597 438 714L366 714C354 651 335 631 286 631C238 631 223 651 228 714L156 714C145 597 199 560 284 560Z"/>
<glyph unicode="&#x2d9;" horiz-adv-x="489" d="M228 587L334 587L348 701L243 701Z"/>
<glyph unicode="&#x2da;" horiz-adv-x="489" d="M284 611C251 611 242 623 242 646C242 687 252 714 296 714C329 714 338 702 338 679C338 638 328 611 284 611ZM281 560C365 560 395 613 395 680C395 737 363 765 299 765C215 765 185 712 185 645C185 588 217 560 281 560Z"/>
<glyph unicode="&#x2db;" horiz-adv-x="489" d="M256 -216L264 -145L236 -145C207 -145 193 -133 193 -110C193 -71 225 -44 276 0L221 0C174 -39 116 -76 116 -138C116 -186 149 -216 220 -216Z"/>
<glyph unicode="&#x2dc;" horiz-adv-x="489" d="M146 584L215 584L219 615C221 630 226 637 235 637C267 637 290 582 342 582C383 582 412 604 419 656L426 712L358 712L354 681C352 666 347 659 338 659C304 659 282 714 231 714C190 714 160 692 153 640Z"/>
<glyph unicode="&#x2dd;" horiz-adv-x="489" d="M302 568L391 568L524 724L396 724ZM128 568L217 568L351 724L222 724Z"/>
<glyph unicode="&#x326;" horiz-adv-x="0" d="M-328 -56L-347 -208L-288 -208L-232 -114L-225 -56Z"/>
<glyph unicode="&#x37e;" horiz-adv-x="216" d="M58 337L179 337L196 472L75 472ZM33 135L2 -128L67 -128L143 39L154 135Z"/>
<glyph unicode="&#x385;" horiz-adv-x="491" d="M212 568L292 568L374 724L267 724ZM364 587L461 587L476 701L379 701ZM103 587L200 587L215 701L118 701Z"/>
<glyph unicode="&#x387;" horiz-adv-x="208" d="M50 337L171 337L188 472L67 472Z"/>
<glyph unicode="&#x394;" horiz-adv-x="587" d="M-27 0L552 0L434 712L265 712ZM330 567L401 110L148 110Z"/>
<glyph unicode="&#x3a9;" horiz-adv-x="635" d="M15 0L254 0L281 219C222 224 192 247 192 331C192 352 194 379 198 412C214 556 245 600 359 600C448 600 481 573 481 490C481 467 478 443 475 412C458 256 421 227 345 219L318 0L557 0L570 110L435 110L439 133C551 160 598 234 619 414C622 445 624 472 624 499C624 656 550 724 369 724C158 724 80 632 56 414C52 380 50 350 50 324C50 209 90 158 166 133L163 110L28 110Z"/>
<glyph unicode="&#x3bc;" horiz-adv-x="525" d="M141 7C154 -3 172 -8 196 -8C249 -8 292 16 317 57C332 17 370 0 434 0L482 0L495 101L483 101C446 101 438 113 443 152L487 504L354 504L315 194C305 113 286 93 232 93C180 93 166 115 176 193L214 504L81 504L-6 -208L116 -208Z"/>
<glyph unicode="&#x3c0;" horiz-adv-x="566" d="M32 395L114 395L35 0L168 0L242 395L345 395L312 137C299 33 339 0 451 0L495 0L506 101L488 101C451 101 444 113 449 152L478 395L561 395L575 504L46 504Z"/>
<glyph unicode="&#xe3f;" horiz-adv-x="562" d="M18 0L184 0L172 -104L289 -104L301 0L318 0C456 0 520 57 534 199C535 209 535 217 535 224C535 286 510 340 454 366C503 383 540 423 550 516C551 526 552 536 552 546C552 643 498 701 386 710L399 816L282 816L269 712L105 712ZM325 301C370 301 395 287 395 234C395 227 394 217 393 206C385 133 353 110 301 110L168 110L192 301ZM341 588C393 588 411 569 411 527C411 520 411 511 410 502C402 439 382 415 321 415L206 415L227 588Z"/>
<glyph unicode="&#x1e80;" horiz-adv-x="897" d="M146 0L308 0L477 447L534 0L690 0L948 712L818 712L628 163L563 712L457 712L254 161L198 712L62 712ZM481 776L562 776L509 932L388 932Z"/>
<glyph unicode="&#x1e81;" horiz-adv-x="722" d="M118 0L246 0L366 285L416 0L541 0L749 504L626 504L502 176L448 504L346 504L210 176L168 504L35 504ZM369 568L450 568L397 724L276 724Z"/>
<glyph unicode="&#x1e82;" horiz-adv-x="897" d="M146 0L308 0L477 447L534 0L690 0L948 712L818 712L628 163L563 712L457 712L254 161L198 712L62 712ZM453 776L542 776L675 932L546 932Z"/>
<glyph unicode="&#x1e83;" horiz-adv-x="722" d="M118 0L246 0L366 285L416 0L541 0L749 504L626 504L502 176L448 504L346 504L210 176L168 504L35 504ZM341 568L430 568L563 724L434 724Z"/>
<glyph unicode="&#x1e84;" horiz-adv-x="897" d="M146 0L308 0L477 447L534 0L690 0L948 712L818 712L628 163L563 712L457 712L254 161L198 712L62 712ZM553 795L659 795L673 909L568 909ZM369 795L475 795L489 909L384 909Z"/>
<glyph unicode="&#x1e85;" horiz-adv-x="722" d="M118 0L246 0L366 285L416 0L541 0L749 504L626 504L502 176L448 504L346 504L210 176L168 504L35 504ZM441 587L547 587L561 701L456 701ZM257 587L363 587L377 701L272 701Z"/>
<glyph unicode="&#x1e8a;" horiz-adv-x="547" d="M-31 0L112 0L273 250L374 0L518 0L366 359L600 712L456 712L301 471L205 712L60 712L207 362ZM282 775L388 775L402 889L297 889Z"/>
<glyph unicode="&#x1e8b;" horiz-adv-x="456" d="M-26 0L107 0L213 155L283 0L420 0L301 252L482 504L349 504L241 348L172 504L35 504L154 250ZM216 587L322 587L336 701L231 701Z"/>
<glyph unicode="&#x1ef2;" horiz-adv-x="559" d="M181 0L318 0L349 267L611 712L477 712L302 414L202 712L61 712L213 272ZM319 776L400 776L347 932L226 932Z"/>
<glyph unicode="&#x1ef3;" horiz-adv-x="470" d="M1 -107L-11 -208L47 -208C160 -208 199 -153 247 -48L500 504L377 504L232 169L169 504L36 504L148 -10L136 -39C113 -95 87 -107 42 -107ZM247 568L328 568L275 724L154 724Z"/>
<glyph unicode="&#x2007;" horiz-adv-x="560" />
<glyph unicode="&#x2008;" horiz-adv-x="216" />
<glyph unicode="&#x200b;" horiz-adv-x="0" />
<glyph unicode="&#x2013;" horiz-adv-x="557" d="M46 241L509 241L521 341L58 341Z"/>
<glyph unicode="&#x2014;" horiz-adv-x="858" d="M46 241L810 241L822 341L58 341Z"/>
<glyph unicode="&#x2015;" horiz-adv-x="557" d="M46 241L509 241L521 341L58 341Z"/>
<glyph unicode="&#x2018;" horiz-adv-x="185" d="M61 472L168 472L197 712L139 712L72 559Z"/>
<glyph unicode="&#x2019;" horiz-adv-x="179" d="M70 472L128 472L195 625L205 712L99 712Z"/>
<glyph unicode="&#x201a;" horiz-adv-x="188" d="M24 112L-4 -128L53 -128L120 25L131 112Z"/>
<glyph unicode="&#x201c;" horiz-adv-x="354" d="M231 472L337 472L367 712L309 712L242 559ZM61 472L168 472L197 712L139 712L72 559Z"/>
<glyph unicode="&#x201d;" horiz-adv-x="348" d="M240 472L297 472L364 625L375 712L269 712ZM70 472L128 472L195 625L205 712L99 712Z"/>
<glyph unicode="&#x201e;" horiz-adv-x="358" d="M194 112L165 -128L223 -128L290 25L300 112ZM24 112L-4 -128L53 -128L120 25L131 112Z"/>
<glyph unicode="&#x2020;" horiz-adv-x="466" d="M59 451L197 451L142 0L262 0L317 451L455 451L467 551L329 551L349 712L229 712L209 551L71 551Z"/>
<glyph unicode="&#x2021;" horiz-adv-x="466" d="M59 451L197 451L173 259L36 259L23 159L161 159L142 0L262 0L281 159L419 159L432 259L293 259L317 451L455 451L467 551L329 551L349 712L229 712L209 551L71 551Z"/>
<glyph unicode="&#x2022;" horiz-adv-x="414" d="M82 172L312 172L341 404L111 404Z"/>
<glyph unicode="&#x2026;" horiz-adv-x="651" d="M469 0L590 0L606 135L485 135ZM241 0L362 0L378 135L257 135ZM2 0L122 0L138 135L17 135Z"/>
<glyph unicode="&#x2030;" horiz-adv-x="1055" d="M186 348C297 348 334 402 350 535C353 556 354 576 354 593C354 681 318 720 221 720C103 720 74 665 58 537C55 514 54 495 54 478C54 386 91 348 186 348ZM190 423C163 423 152 431 152 466C152 481 154 505 158 536C169 624 177 637 216 637C243 637 255 630 255 595C255 580 253 563 250 536C238 440 230 423 190 423ZM62 0L155 0L697 712L604 712ZM535 -8C646 -8 683 46 699 179C702 200 703 220 703 237C703 325 667 364 570 364C452 364 423 309 407 181C404 158 403 139 403 122C403 30 440 -8 535 -8ZM539 67C512 67 501 75 501 110C501 125 503 149 507 180C518 268 526 281 565 281C592 281 604 274 604 239C604 224 602 207 599 180C587 84 579 67 539 67ZM860 -8C971 -8 1008 46 1024 179C1027 200 1028 220 1028 237C1028 325 992 364 895 364C777 364 748 309 732 181C729 158 728 139 728 122C728 30 765 -8 860 -8ZM864 67C837 67 826 75 826 110C826 125 828 149 832 180C843 268 851 281 890 281C917 281 929 274 929 239C929 224 927 207 924 180C912 84 904 67 864 67Z"/>
<glyph unicode="&#x2039;" horiz-adv-x="259" d="M97 64L202 64L142 256L250 448L145 448L25 256Z"/>
<glyph unicode="&#x203a;" horiz-adv-x="260" d="M10 64L115 64L235 256L163 448L58 448L118 256Z"/>
<glyph unicode="&#x2044;" horiz-adv-x="67" d="M-271 0L-178 0L364 712L271 712Z"/>
<glyph unicode="&#x2070;" horiz-adv-x="325" d="M199 508C310 508 347 562 363 695C366 716 367 736 367 753C367 841 331 880 234 880C116 880 87 825 71 697C68 674 67 655 67 638C67 546 104 508 199 508ZM203 583C176 583 165 591 165 626C165 641 167 665 171 696C182 784 190 797 229 797C256 797 268 790 268 755C268 740 266 723 263 696C251 600 243 583 203 583Z"/>
<glyph unicode="&#x2071;" horiz-adv-x="175" d="M120 934L221 934L232 1022L132 1022ZM70 516L170 516L213 872L113 872Z"/>
<glyph unicode="&#x2074;" horiz-adv-x="325" d="M54 579L207 579L199 516L295 516L303 579L343 579L352 655L312 655L338 872L214 872L61 643ZM151 655L231 774L216 655Z"/>
<glyph unicode="&#x2075;" horiz-adv-x="325" d="M68 623C65 544 100 508 199 508C302 508 353 560 353 652C353 724 307 753 235 753C211 753 194 747 175 738L186 789L351 789L361 872L119 872L80 675L76 647L164 647C172 671 182 683 214 683C242 683 252 674 252 651C252 611 245 583 202 583C169 583 158 590 161 623Z"/>
<glyph unicode="&#x2076;" horiz-adv-x="325" d="M70 638C69 629 68 620 68 612C68 533 118 508 201 508C292 508 343 536 355 628C356 636 356 644 356 652C356 720 314 751 245 751C240 751 234 751 227 749L337 872L223 872L127 757C95 719 77 686 70 638ZM170 632C174 668 182 681 218 681C247 681 256 673 256 650C256 645 256 639 255 632C251 596 242 583 206 583C177 583 169 591 169 614C169 619 169 625 170 632Z"/>
<glyph unicode="&#x2077;" horiz-adv-x="325" d="M94 516L196 516L370 809L377 872L99 872L90 789L261 789Z"/>
<glyph unicode="&#x2078;" horiz-adv-x="325" d="M64 602C64 539 108 508 197 508C295 508 350 538 350 629C350 661 338 683 314 695C348 716 364 748 364 784C364 837 327 880 234 880C142 880 87 842 87 762C87 732 97 710 118 695C75 675 64 643 64 602ZM220 729C192 729 184 736 184 753C184 782 190 801 229 801C257 801 265 794 265 777C265 748 259 729 220 729ZM202 583C173 583 163 591 163 611C163 641 173 661 212 661C241 661 251 653 251 633C251 603 241 583 202 583Z"/>
<glyph unicode="&#x2079;" horiz-adv-x="325" d="M97 516L210 516L306 631C337 667 359 708 363 752C364 761 365 769 365 776C365 855 315 880 232 880C143 880 90 852 79 760C78 752 77 743 77 736C77 668 118 637 189 637C194 637 199 638 206 639ZM214 702C185 702 176 711 176 732C176 737 176 743 177 750C181 786 192 801 227 801C258 801 265 791 265 770C265 765 265 758 264 750C259 715 250 702 214 702Z"/>
<glyph unicode="&#x207a;" horiz-adv-x="325" d="M171 579L234 579L245 665L338 665L345 723L252 723L263 809L200 809L189 723L95 723L88 665L181 665Z"/>
<glyph unicode="&#x207b;" horiz-adv-x="325" d="M88 665L338 665L345 723L95 723Z"/>
<glyph unicode="&#x207c;" horiz-adv-x="325" d="M97 730L347 730L353 789L103 789ZM80 599L330 599L337 658L87 658Z"/>
<glyph unicode="&#x207d;" horiz-adv-x="167" d="M70 702C64 653 61 613 61 580C61 484 89 456 159 456L181 456L189 524L185 524C157 524 144 527 144 571C144 596 148 635 155 694C176 862 184 864 227 864L231 864L239 932L217 932C121 932 94 899 70 702Z"/>
<glyph unicode="&#x207e;" horiz-adv-x="167" d="M204 686C210 735 213 775 213 808C213 904 185 932 114 932L93 932L85 864L89 864C117 864 130 861 130 817C130 792 126 753 119 694C98 526 89 524 47 524L43 524L35 456L56 456C153 456 179 489 204 686Z"/>
<glyph unicode="&#x207f;" horiz-adv-x="363" d="M70 516L170 516L195 725C201 778 212 792 250 792C285 792 294 780 287 725L261 516L361 516L389 746C400 834 372 880 288 880C241 880 218 861 203 832L208 872L113 872Z"/>
<glyph unicode="&#x2080;" horiz-adv-x="325" d="M116 -168C227 -168 264 -114 280 19C283 40 284 60 284 77C284 165 248 204 151 204C33 204 4 149 -12 21C-15 -2 -16 -21 -16 -38C-16 -130 21 -168 116 -168ZM120 -93C93 -93 82 -85 82 -50C82 -35 84 -11 88 20C99 108 107 121 146 121C173 121 185 114 185 79C185 64 183 47 180 20C168 -76 160 -93 120 -93Z"/>
<glyph unicode="&#x2081;" horiz-adv-x="325" d="M88 -160L188 -160L231 196L158 196L44 161L34 77L120 100Z"/>
<glyph unicode="&#x2082;" horiz-adv-x="325" d="M-24 -160L244 -160L253 -85L90 -85C99 -73 113 -65 140 -52L187 -29C246 0 283 33 283 98C283 162 246 204 153 204C51 204 17 159 1 72L94 72C105 115 115 121 147 121C170 121 182 111 182 90C182 59 160 50 128 34L90 15C38 -11 -10 -44 -18 -113Z"/>
</font>
</defs>
</svg>
